{"glyphs":{"0":{"ha":1203,"x_min":-3,"x_max":1064,"o":"m 513 874 l 503 892 l 481 924 l 461 949 l 439 965 l 417 974 l 389 981 l 363 981 l 356 979 l 374 978 l 400 972 l 428 958 l 456 938 l 478 911 l 500 888 l 513 874 m 590 674 l 586 685 l 575 715 l 557 753 l 540 783 l 522 814 l 503 843 l 481 868 l 458 892 l 436 918 l 414 936 l 392 947 l 371 950 l 347 953 l 326 953 l 313 950 l 297 940 l 271 929 l 247 908 l 224 885 l 201 858 l 182 828 l 160 796 l 142 767 l 126 736 l 138 753 l 160 781 l 185 807 l 211 835 l 240 860 l 267 879 l 290 894 l 308 901 l 331 911 l 356 913 l 372 913 l 393 911 l 417 906 l 440 890 l 461 878 l 481 861 l 503 838 l 518 815 l 535 781 l 550 751 l 568 722 l 578 690 l 590 660 l 590 668 l 590 674 m 181 208 l 169 228 l 179 193 l 197 161 l 218 139 l 240 118 l 269 107 l 304 94 l 338 90 l 375 90 l 421 100 l 463 129 l 499 163 l 525 207 l 551 249 l 564 274 l 574 297 l 576 321 l 581 339 l 582 358 l 583 367 l 574 368 l 572 368 l 569 368 l 569 363 l 563 338 l 550 307 l 538 271 l 521 242 l 503 215 l 486 192 l 461 164 l 433 138 l 404 115 l 371 96 l 343 93 l 319 93 l 296 103 l 275 113 l 247 131 l 222 154 l 199 181 l 181 208 m 1036 -365 l 1064 -365 l 1064 -393 l 1036 -393 l 1036 -365 m 18 443 l 24 471 l 40 468 l 54 468 l 69 468 l 93 472 l 108 478 l 131 489 l 147 494 l 156 469 l 142 464 l 119 453 l 101 444 l 72 440 l 54 440 l 38 440 l 18 443 m 14 403 l 19 431 l 42 426 l 54 426 l 78 429 l 93 435 l 113 440 l 126 447 l 138 422 l 121 415 l 101 410 l 86 401 l 54 399 l 39 399 l 14 403 m 90 536 l 68 519 l 65 524 l 38 524 l 38 546 l 38 568 l 42 599 l 57 639 l 67 671 l 82 707 l 100 746 l 117 781 l 138 813 l 160 844 l 179 875 l 204 904 l 228 928 l 257 951 l 265 957 l 242 947 l 211 929 l 185 907 l 160 883 l 135 850 l 110 815 l 86 779 l 72 746 l 57 714 l 49 685 l 39 653 l 33 618 l 33 590 l 33 561 l 33 539 l 35 521 l 60 515 l 78 514 l 94 514 l 99 514 l 100 536 l 100 556 l 103 574 l 110 600 l 114 624 l 124 650 l 136 683 l 153 711 l 171 738 l 186 760 l 199 779 l 219 803 l 239 819 l 258 836 l 281 851 l 301 860 l 322 869 l 344 869 l 361 869 l 376 869 l 399 869 l 418 861 l 439 846 l 453 831 l 468 813 l 482 793 l 499 769 l 511 744 l 522 718 l 535 694 l 547 660 l 556 639 l 563 613 l 569 585 l 574 592 l 569 618 l 563 651 l 553 682 l 543 711 l 525 738 l 510 769 l 493 801 l 481 821 l 461 842 l 444 856 l 426 868 l 406 881 l 390 883 l 372 885 l 356 885 l 336 883 l 319 876 l 304 869 l 283 857 l 257 838 l 231 815 l 204 788 l 182 761 l 160 736 l 140 710 l 125 679 l 110 650 l 94 617 l 89 593 l 85 568 l 83 543 l 90 536 m 38 488 l 10 482 l 7 500 l 7 517 l 6 539 l 6 561 l 6 590 l 6 621 l 11 658 l 21 693 l 32 725 l 47 757 l 61 793 l 88 832 l 113 867 l 138 903 l 165 929 l 194 951 l 231 972 l 264 985 l 299 997 l 329 1004 l 360 1008 l 392 1008 l 425 1001 l 453 990 l 481 968 l 503 940 l 525 906 l 547 871 l 568 836 l 589 794 l 601 758 l 613 713 l 617 681 l 625 660 l 633 628 l 640 599 l 640 565 l 640 535 l 638 524 l 640 524 l 642 518 l 656 522 l 679 529 l 694 533 l 703 506 l 688 501 l 664 494 l 633 488 l 629 488 l 628 476 l 621 461 l 625 461 l 657 465 l 671 471 l 682 446 l 665 438 l 628 433 l 617 433 l 617 431 l 589 433 l 589 435 l 575 436 l 550 438 l 529 443 l 538 471 l 556 465 l 578 464 l 592 463 l 592 469 l 574 471 l 574 475 l 568 472 l 550 472 l 525 472 l 525 500 l 549 500 l 550 500 l 551 508 l 551 528 l 550 540 l 546 560 l 542 579 l 535 604 l 528 631 l 522 651 l 510 683 l 497 707 l 486 733 l 474 756 l 460 776 l 446 796 l 431 811 l 419 826 l 404 836 l 393 842 l 376 842 l 361 842 l 344 842 l 328 842 l 313 835 l 294 826 l 275 814 l 256 797 l 239 783 l 221 763 l 208 743 l 193 721 l 175 697 l 161 672 l 149 642 l 142 618 l 138 594 l 131 568 l 128 553 l 128 536 l 126 511 l 125 511 l 133 494 l 115 486 l 94 486 l 78 486 l 57 488 l 36 492 l 38 488 m 15 338 l 43 338 l 43 315 l 43 288 l 46 253 l 57 215 l 71 175 l 90 133 l 113 96 l 138 65 l 167 38 l 196 19 l 233 4 l 274 -7 l 314 -11 l 356 -11 l 396 -7 l 432 4 l 472 26 l 511 60 l 517 65 l 486 47 l 446 29 l 404 15 l 361 8 l 318 8 l 279 8 l 238 25 l 204 44 l 169 75 l 147 101 l 121 143 l 104 185 l 90 226 l 79 269 l 75 304 l 76 339 l 104 339 l 103 304 l 107 275 l 118 235 l 129 193 l 146 157 l 169 118 l 189 94 l 221 67 l 249 50 l 285 36 l 318 36 l 358 36 l 399 43 l 435 54 l 472 72 l 513 96 l 547 124 l 581 158 l 599 189 l 603 197 l 615 231 l 624 264 l 631 292 l 635 313 l 636 329 l 639 347 l 639 357 l 636 361 l 624 363 l 611 364 l 610 356 l 608 336 l 604 315 l 601 289 l 589 263 l 576 235 l 550 193 l 521 146 l 479 107 l 432 75 l 378 63 l 335 63 l 299 67 l 258 82 l 226 96 l 199 119 l 175 144 l 154 182 l 142 219 l 131 261 l 122 297 l 118 326 l 118 347 l 114 368 l 114 374 l 108 371 l 85 367 l 58 360 l 39 358 l 21 358 l 0 356 l -3 383 l 18 386 l 39 386 l 53 388 l 79 394 l 100 399 l 119 406 l 149 411 l 171 417 l 176 389 l 154 383 l 140 381 l 142 371 l 146 350 l 147 346 l 157 317 l 168 283 l 186 256 l 206 222 l 221 197 l 242 174 l 264 153 l 289 138 l 307 128 l 325 121 l 340 121 l 363 124 l 388 138 l 417 160 l 442 183 l 464 208 l 481 232 l 499 256 l 513 282 l 525 315 l 535 346 l 542 368 l 533 368 l 533 396 l 547 396 l 547 399 l 550 408 l 546 408 l 531 413 l 539 440 l 554 436 l 567 432 l 574 431 l 585 426 l 599 426 l 615 426 l 629 426 l 650 426 l 665 426 l 665 399 l 650 399 l 629 399 l 615 399 l 599 399 l 582 399 l 575 400 l 575 396 l 576 396 l 600 392 l 603 392 l 626 390 l 651 388 l 672 386 l 692 386 l 703 386 l 717 394 l 731 369 l 711 358 l 692 358 l 675 338 l 675 313 l 674 289 l 663 261 l 651 229 l 631 188 l 624 175 l 613 154 l 594 119 l 567 82 l 531 40 l 489 4 l 443 -21 l 401 -35 l 356 -39 l 314 -39 l 268 -35 l 225 -21 l 185 -6 l 150 15 l 118 46 l 90 79 l 65 119 l 46 164 l 29 207 l 18 247 l 15 288 l 15 315 l 15 338 z "},"1":{"ha":678,"x_min":81,"x_max":539,"o":"m 474 836 l 501 828 l 492 800 l 483 783 l 474 763 l 460 743 l 443 722 l 450 724 l 454 696 l 456 657 l 460 615 l 469 569 l 475 522 l 479 475 l 485 429 l 489 383 l 494 340 l 501 301 l 510 261 l 517 225 l 524 194 l 528 163 l 532 138 l 536 113 l 539 92 l 539 72 l 539 53 l 539 29 l 511 29 l 511 53 l 511 72 l 511 89 l 508 107 l 504 132 l 500 160 l 496 189 l 489 219 l 482 256 l 474 296 l 467 338 l 461 381 l 457 426 l 451 472 l 447 519 l 444 544 l 447 503 l 454 447 l 458 390 l 463 335 l 467 282 l 471 239 l 474 192 l 475 151 l 482 117 l 486 83 l 494 57 l 500 39 l 472 31 l 467 49 l 464 58 l 442 54 l 439 71 l 438 90 l 435 113 l 432 143 l 428 171 l 426 210 l 424 253 l 417 303 l 413 353 l 408 406 l 404 456 l 400 511 l 396 564 l 393 611 l 393 647 l 393 674 l 394 676 l 386 671 l 392 664 l 383 660 l 385 639 l 385 600 l 389 557 l 390 508 l 393 458 l 397 394 l 400 346 l 401 293 l 401 243 l 404 196 l 404 150 l 404 115 l 404 90 l 406 76 l 408 63 l 381 57 l 378 74 l 376 90 l 376 115 l 376 150 l 376 196 l 374 243 l 374 293 l 372 346 l 369 307 l 363 251 l 361 204 l 358 156 l 356 117 l 354 90 l 354 61 l 354 42 l 354 26 l 326 26 l 326 42 l 326 61 l 326 90 l 328 119 l 331 158 l 333 204 l 335 254 l 342 310 l 346 365 l 346 422 l 346 482 l 343 535 l 342 582 l 342 628 l 342 640 l 335 649 l 332 653 l 308 657 l 311 674 l 315 682 l 310 678 l 292 667 l 275 651 l 247 633 l 219 618 l 189 600 l 167 588 l 146 576 l 132 601 l 153 613 l 175 625 l 206 643 l 233 658 l 258 674 l 275 689 l 293 700 l 304 708 l 315 718 l 324 710 l 326 718 l 329 738 l 319 732 l 307 724 l 290 708 l 267 696 l 236 678 l 210 663 l 182 647 l 157 629 l 136 617 l 121 606 l 104 628 l 122 639 l 140 651 l 168 669 l 196 688 l 222 703 l 253 721 l 274 731 l 290 746 l 306 754 l 325 767 l 331 758 l 331 782 l 324 779 l 300 760 l 279 747 l 256 731 l 224 717 l 192 704 l 161 692 l 133 678 l 110 668 l 92 661 l 81 686 l 99 693 l 122 703 l 150 717 l 181 729 l 213 742 l 242 756 l 257 765 l 235 757 l 201 742 l 175 736 l 149 726 l 131 722 l 125 750 l 140 754 l 167 764 l 193 769 l 224 782 l 257 794 l 278 806 l 293 818 l 306 831 l 307 842 l 329 838 l 328 860 l 328 889 l 326 908 l 354 911 l 356 889 l 356 860 l 358 825 l 358 782 l 358 750 l 357 740 l 361 756 l 369 785 l 376 822 l 381 849 l 381 878 l 381 894 l 381 910 l 408 910 l 408 894 l 408 878 l 408 846 l 404 817 l 397 779 l 389 747 l 382 726 l 386 735 l 401 767 l 414 788 l 424 810 l 431 836 l 435 857 l 438 875 l 438 889 l 465 889 l 465 872 l 463 851 l 458 831 l 449 801 l 439 776 l 426 753 l 417 736 l 424 742 l 438 760 l 449 776 l 458 797 l 467 811 l 474 836 z "},"2":{"ha":776,"x_min":-1,"x_max":639,"o":"m 131 138 l 133 146 l 132 146 l 125 144 l 122 133 l 122 132 l 131 138 m 175 285 l 193 301 l 219 324 l 249 349 l 278 369 l 317 393 l 353 422 l 388 449 l 421 476 l 451 506 l 481 531 l 503 558 l 510 567 l 493 549 l 471 526 l 450 506 l 425 482 l 396 461 l 368 439 l 338 417 l 307 393 l 279 371 l 246 350 l 218 328 l 193 308 l 175 285 m 597 724 l 596 731 l 586 756 l 574 774 l 572 775 l 572 774 l 588 750 l 597 724 m 432 393 l 447 404 l 476 429 l 504 456 l 532 479 l 550 506 l 567 528 l 578 556 l 585 583 l 585 611 l 582 638 l 581 669 l 576 690 l 569 715 l 563 739 l 550 760 l 546 765 l 547 761 l 557 733 l 567 708 l 569 683 l 569 654 l 569 625 l 558 596 l 547 571 l 525 542 l 500 511 l 471 486 l 440 457 l 404 426 l 369 400 l 333 371 l 293 347 l 265 326 l 236 301 l 213 282 l 189 260 l 169 239 l 156 222 l 146 203 l 136 182 l 133 174 l 140 174 l 143 182 l 153 200 l 164 213 l 178 229 l 200 246 l 221 264 l 249 281 l 276 300 l 307 317 l 336 335 l 369 360 l 400 375 l 431 393 l 432 393 m 63 656 l 35 661 l 39 681 l 38 681 l 42 704 l 46 719 l 51 735 l 65 758 l 79 781 l 94 803 l 118 829 l 135 847 l 163 867 l 190 883 l 217 896 l 249 911 l 285 917 l 315 922 l 349 924 l 389 924 l 421 915 l 453 901 l 479 885 l 485 879 l 501 872 l 529 854 l 551 835 l 575 814 l 596 790 l 611 769 l 624 739 l 628 711 l 632 685 l 636 657 l 639 625 l 639 603 l 633 569 l 624 544 l 613 517 l 590 488 l 567 464 l 544 440 l 515 419 l 490 400 l 469 381 l 446 369 l 435 361 l 396 336 l 364 311 l 333 289 l 299 265 l 267 246 l 240 226 l 217 207 l 196 190 l 188 176 l 176 158 l 172 147 l 179 125 l 178 125 l 182 114 l 185 99 l 189 108 l 200 104 l 214 104 l 240 104 l 278 106 l 313 108 l 356 114 l 411 124 l 453 132 l 499 143 l 533 144 l 563 149 l 585 149 l 599 149 l 599 121 l 585 121 l 565 121 l 536 117 l 501 115 l 458 104 l 417 96 l 358 86 l 315 81 l 281 78 l 240 76 l 214 76 l 194 76 l 188 79 l 189 74 l 189 71 l 201 71 l 232 71 l 263 71 l 303 71 l 347 71 l 392 74 l 439 75 l 488 79 l 533 79 l 574 82 l 604 83 l 629 83 l 629 56 l 604 56 l 576 54 l 533 51 l 488 51 l 442 47 l 392 46 l 347 43 l 303 43 l 263 43 l 232 43 l 201 43 l 192 43 l 192 35 l 197 35 l 214 35 l 239 32 l 271 32 l 313 32 l 351 35 l 396 35 l 442 35 l 486 35 l 526 32 l 561 29 l 593 28 l 617 25 l 633 25 l 633 -3 l 614 -3 l 590 0 l 560 1 l 582 -3 l 599 -6 l 593 -33 l 576 -31 l 554 -26 l 528 -22 l 490 -19 l 451 -18 l 403 -18 l 357 -15 l 310 -15 l 275 -15 l 242 -14 l 221 -11 l 201 -11 l 201 7 l 197 7 l 192 7 l 192 0 l 192 -15 l 189 -36 l 161 -33 l 164 -12 l 164 0 l 164 14 l 164 31 l 164 44 l 161 71 l 153 53 l 144 29 l 136 1 l 125 -21 l 122 -36 l 114 -56 l 89 -47 l 94 -28 l 100 -12 l 111 13 l 119 38 l 128 61 l 132 76 l 125 67 l 106 39 l 90 11 l 79 -11 l 71 -26 l 46 -12 l 54 3 l 65 25 l 83 53 l 103 83 l 110 92 l 92 79 l 76 63 l 60 44 l 49 26 l 40 10 l 15 21 l 24 40 l 38 61 l 57 82 l 72 101 l 100 118 l 94 118 l 94 129 l 93 117 l 71 121 l 61 117 l 42 104 l 29 96 l 18 86 l -1 106 l 13 118 l 28 126 l 47 142 l 72 151 l 75 153 l 78 158 l 86 185 l 97 210 l 111 232 l 121 256 l 136 282 l 153 301 l 174 328 l 201 350 l 229 372 l 263 393 l 290 415 l 321 439 l 351 461 l 379 483 l 408 504 l 431 525 l 451 546 l 474 568 l 493 590 l 514 610 l 521 624 l 521 646 l 521 667 l 519 686 l 514 704 l 508 719 l 496 739 l 486 753 l 469 767 l 454 782 l 432 790 l 407 796 l 382 799 l 353 799 l 324 796 l 293 792 l 271 788 l 250 778 l 221 760 l 203 747 l 185 728 l 169 707 l 157 688 l 150 669 l 147 654 l 147 639 l 147 628 l 153 618 l 128 604 l 119 619 l 119 639 l 119 657 l 122 678 l 132 701 l 147 724 l 163 744 l 186 769 l 207 782 l 236 803 l 263 815 l 290 819 l 321 824 l 353 826 l 385 826 l 413 824 l 440 818 l 468 804 l 489 789 l 506 772 l 518 756 l 522 749 l 522 750 l 514 772 l 497 789 l 479 803 l 458 817 l 436 825 l 414 831 l 379 833 l 351 833 l 321 833 l 293 831 l 264 825 l 242 817 l 213 801 l 188 783 l 163 764 l 142 744 l 128 728 l 114 708 l 107 694 l 104 683 l 103 664 l 75 667 l 76 689 l 82 706 l 89 722 l 106 744 l 122 764 l 143 786 l 171 806 l 199 826 l 231 842 l 256 853 l 290 858 l 321 861 l 351 861 l 379 861 l 419 858 l 444 853 l 472 842 l 496 825 l 511 813 l 501 824 l 482 844 l 469 857 l 465 858 l 438 868 l 407 876 l 382 879 l 356 879 l 324 879 l 300 876 l 268 871 l 239 856 l 208 842 l 183 825 l 154 804 l 133 781 l 110 754 l 90 731 l 75 704 l 68 685 l 63 656 z "},"3":{"ha":801,"x_min":-15,"x_max":664,"o":"m 519 639 l 519 643 l 513 626 l 503 599 l 513 621 l 519 639 m 604 618 l 608 635 l 600 614 l 589 593 l 576 574 l 564 557 l 551 542 l 556 532 l 561 539 l 576 558 l 588 576 l 599 596 l 604 618 m 507 479 l 506 481 l 504 479 l 507 479 m 515 165 l 526 176 l 539 200 l 542 224 l 542 250 l 542 271 l 536 293 l 532 313 l 519 333 l 513 343 l 489 356 l 503 336 l 513 322 l 524 297 l 528 275 l 529 254 l 532 229 l 529 200 l 519 175 l 515 165 m 304 76 l 278 74 l 313 74 l 332 75 l 364 79 l 374 82 l 335 78 l 304 76 m 119 179 l 119 172 l 119 147 l 125 129 l 129 118 l 142 107 l 156 97 l 175 89 l 199 83 l 204 83 l 181 94 l 156 107 l 136 126 l 122 153 l 119 179 m 525 136 l 504 117 l 510 121 l 525 136 m 261 28 l 301 25 l 340 25 l 378 32 l 415 46 l 429 53 l 407 46 l 367 35 l 324 31 l 282 28 l 261 28 m 571 215 l 571 239 l 571 265 l 569 293 l 563 318 l 556 340 l 544 360 l 532 375 l 519 386 l 497 396 l 499 400 l 488 386 l 492 386 l 529 365 l 542 350 l 557 324 l 564 299 l 569 274 l 569 250 l 569 221 l 568 208 l 571 215 m 597 388 l 585 396 l 564 407 l 543 413 l 524 417 l 514 418 l 533 408 l 551 394 l 567 376 l 581 351 l 590 326 l 596 306 l 597 335 l 600 358 l 600 379 l 597 388 m 549 440 l 557 438 l 543 444 l 536 447 l 533 443 l 549 440 m 22 107 l 47 115 l 53 101 l 65 85 l 82 64 l 100 43 l 119 29 l 144 15 l 171 8 l 207 0 l 246 -3 l 283 -6 l 322 -6 l 364 -6 l 410 8 l 446 24 l 483 44 l 517 72 l 543 94 l 565 122 l 588 146 l 599 175 l 614 201 l 625 228 l 631 249 l 635 274 l 636 299 l 636 324 l 629 347 l 626 350 l 625 332 l 624 303 l 617 274 l 613 247 l 603 218 l 597 207 l 589 179 l 572 149 l 565 140 l 560 132 l 538 101 l 508 71 l 472 43 l 426 21 l 386 4 l 343 -3 l 301 -3 l 258 0 l 219 8 l 183 18 l 153 33 l 125 54 l 100 75 l 72 101 l 56 126 l 33 150 l 17 171 l 1 190 l -8 208 l -14 225 l 14 233 l 17 219 l 24 207 l 33 194 l 31 214 l 31 243 l 31 265 l 31 285 l 31 299 l 58 299 l 58 285 l 58 265 l 58 243 l 58 217 l 61 199 l 64 183 l 71 171 l 81 153 l 90 139 l 94 133 l 92 142 l 92 172 l 92 204 l 99 244 l 107 281 l 117 307 l 131 325 l 147 338 l 164 315 l 150 306 l 142 293 l 135 272 l 143 283 l 161 297 l 183 303 l 189 275 l 172 272 l 163 264 l 154 254 l 147 240 l 147 224 l 147 203 l 147 182 l 150 161 l 158 143 l 172 129 l 192 119 l 215 108 l 239 101 l 271 101 l 301 104 l 332 106 l 369 110 l 403 118 l 435 128 l 457 140 l 476 154 l 486 168 l 494 186 l 501 206 l 504 229 l 501 251 l 500 272 l 496 289 l 488 308 l 481 319 l 467 340 l 457 346 l 444 351 l 443 353 l 439 350 l 418 344 l 399 344 l 399 372 l 415 372 l 428 375 l 435 379 l 436 382 l 439 381 l 453 389 l 464 401 l 476 417 l 485 428 l 490 433 l 474 426 l 449 414 l 429 408 l 410 403 l 379 401 l 361 401 l 361 429 l 379 429 l 404 431 l 424 436 l 440 439 l 463 451 l 479 460 l 496 471 l 500 472 l 500 476 l 497 474 l 481 468 l 461 460 l 433 449 l 408 449 l 389 451 l 374 451 l 347 463 l 335 476 l 354 496 l 364 485 l 379 479 l 392 479 l 411 476 l 428 476 l 450 485 l 469 493 l 483 499 l 489 503 l 469 499 l 444 499 l 415 499 l 394 501 l 375 503 l 357 507 l 342 514 l 353 539 l 365 532 l 378 531 l 386 529 l 383 546 l 406 550 l 418 556 l 433 567 l 451 581 l 465 594 l 478 613 l 488 635 l 492 651 l 497 675 l 497 690 l 496 700 l 492 711 l 482 718 l 463 733 l 446 746 l 428 754 l 404 765 l 385 776 l 363 785 l 339 792 l 319 794 l 292 794 l 268 794 l 246 792 l 221 786 l 204 778 l 182 764 l 165 749 l 151 732 l 142 711 l 136 696 l 131 679 l 128 660 l 135 639 l 107 631 l 100 657 l 103 685 l 111 704 l 117 722 l 129 746 l 146 768 l 165 786 l 190 803 l 213 811 l 240 819 l 265 822 l 292 822 l 322 822 l 344 819 l 371 810 l 396 801 l 418 790 l 439 779 l 460 771 l 479 756 l 499 740 l 514 728 l 521 713 l 521 729 l 519 747 l 513 760 l 503 778 l 492 790 l 482 803 l 464 813 l 450 821 l 432 831 l 413 839 l 392 844 l 365 849 l 344 849 l 318 849 l 299 849 l 274 846 l 253 842 l 233 832 l 203 821 l 181 808 l 160 799 l 142 783 l 126 769 l 113 751 l 100 732 l 88 714 l 78 689 l 83 669 l 56 664 l 50 689 l 63 728 l 78 749 l 90 768 l 107 789 l 122 803 l 143 821 l 167 833 l 192 846 l 222 857 l 244 867 l 268 874 l 296 876 l 318 876 l 344 876 l 368 876 l 397 872 l 421 864 l 443 856 l 464 846 l 478 838 l 499 825 l 514 807 l 525 794 l 538 774 l 547 756 l 549 729 l 549 708 l 549 682 l 549 658 l 547 633 l 538 610 l 528 588 l 513 554 l 500 532 l 503 532 l 515 544 l 528 557 l 542 574 l 554 590 l 564 607 l 575 625 l 581 643 l 585 657 l 585 678 l 585 697 l 585 715 l 585 732 l 578 746 l 572 765 l 564 783 l 550 800 l 535 817 l 521 835 l 506 849 l 483 864 l 465 876 l 442 885 l 417 892 l 385 899 l 354 904 l 328 907 l 313 910 l 283 907 l 247 903 l 210 890 l 176 878 l 150 863 l 125 847 l 103 829 l 83 807 l 63 785 l 47 764 l 33 738 l 21 707 l 18 697 l 13 676 l 13 656 l 13 638 l 22 618 l -3 607 l -15 632 l -15 656 l -15 679 l -10 706 l 0 731 l 13 760 l 26 789 l 44 818 l 63 842 l 85 864 l 108 882 l 133 901 l 161 914 l 193 926 l 226 938 l 264 939 l 299 939 l 313 938 l 321 938 l 357 938 l 396 938 l 433 932 l 461 928 l 493 915 l 517 901 l 543 885 l 561 864 l 576 844 l 592 821 l 603 800 l 611 779 l 622 760 l 631 736 l 639 711 l 640 689 l 640 665 l 636 633 l 632 613 l 624 585 l 613 563 l 599 542 l 583 522 l 565 503 l 557 496 l 567 488 l 560 481 l 565 475 l 557 468 l 571 463 l 592 449 l 607 432 l 619 410 l 621 404 l 624 403 l 640 382 l 654 358 l 664 329 l 664 299 l 663 271 l 658 243 l 650 219 l 639 190 l 624 164 l 610 132 l 588 106 l 563 75 l 533 50 l 500 22 l 457 -1 l 418 -17 l 369 -33 l 322 -33 l 283 -33 l 243 -31 l 204 -28 l 165 -19 l 133 -10 l 106 7 l 81 24 l 60 47 l 43 68 l 28 88 l 22 107 m 503 599 l 488 578 l 471 561 l 450 544 l 432 531 l 422 526 l 444 526 l 467 526 l 478 528 l 468 533 l 475 546 l 488 568 l 503 599 z "},"4":{"ha":935,"x_min":-4,"x_max":797,"o":"m 474 356 l 478 369 l 486 400 l 493 439 l 497 479 l 497 519 l 496 561 l 492 607 l 489 650 l 486 693 l 488 713 l 475 694 l 475 689 l 475 654 l 475 604 l 475 561 l 475 511 l 474 464 l 465 421 l 460 386 l 458 371 l 471 360 l 474 356 m 511 306 l 511 324 l 517 353 l 521 383 l 526 425 l 531 469 l 531 519 l 531 567 l 526 615 l 524 668 l 521 719 l 521 756 l 521 767 l 515 756 l 501 733 l 496 724 l 517 722 l 514 693 l 517 653 l 519 610 l 524 564 l 525 519 l 525 476 l 521 436 l 514 394 l 506 361 l 497 335 l 496 329 l 497 326 l 510 307 l 511 306 m 536 304 l 513 304 l 522 286 l 528 271 l 538 256 l 539 251 l 539 268 l 536 292 l 536 304 m 542 786 l 542 808 l 542 817 l 538 806 l 531 786 l 542 786 m 153 203 l 167 203 l 186 203 l 214 203 l 244 203 l 281 206 l 317 210 l 347 214 l 382 217 l 410 217 l 421 217 l 410 226 l 410 219 l 388 219 l 367 219 l 339 217 l 308 215 l 276 213 l 244 208 l 213 208 l 185 208 l 160 213 l 156 207 l 153 203 m 146 399 l 164 414 l 176 433 l 203 457 l 229 489 l 260 528 l 293 564 l 322 600 l 353 632 l 375 663 l 390 692 l 401 717 l 414 739 l 411 743 l 410 743 l 400 721 l 379 686 l 351 643 l 318 603 l 283 554 l 246 514 l 208 476 l 178 442 l 151 408 l 146 399 m 465 150 l 467 174 l 467 193 l 467 194 l 465 194 l 465 192 l 465 168 l 465 150 m 104 157 l 93 182 l 104 188 l 121 204 l 133 224 l 151 249 l 163 271 l 169 293 l 174 315 l 181 332 l 186 339 l 172 339 l 178 367 l 208 356 l 208 329 l 219 329 l 246 332 l 271 332 l 301 333 l 329 333 l 357 333 l 382 333 l 407 333 l 415 333 l 418 335 l 419 333 l 426 333 l 426 324 l 433 313 l 446 299 l 464 285 l 479 272 l 499 257 l 507 251 l 503 260 l 497 275 l 488 293 l 476 308 l 463 311 l 465 322 l 461 326 l 460 329 l 432 326 l 431 343 l 431 363 l 432 389 l 438 426 l 446 467 l 447 511 l 447 561 l 447 604 l 447 654 l 447 689 l 447 708 l 447 724 l 451 724 l 440 729 l 426 703 l 415 681 l 400 649 l 375 615 l 344 581 l 313 544 l 282 511 l 251 472 l 222 438 l 199 414 l 183 394 l 165 379 l 158 369 l 138 385 l 135 382 l 121 360 l 115 364 l 111 356 l 104 339 l 118 346 l 135 351 l 154 358 l 163 333 l 151 329 l 169 325 l 167 307 l 160 289 l 144 268 l 135 256 l 118 233 l 101 219 l 86 207 l 65 194 l 39 189 l 33 217 l 54 219 l 69 229 l 85 242 l 99 253 l 113 272 l 119 281 l 113 276 l 88 254 l 60 242 l 40 236 l 11 236 l -4 239 l 1 267 l 14 264 l 38 264 l 51 267 l 71 276 l 96 299 l 114 311 l 118 315 l 107 310 l 82 299 l 50 290 l 31 290 l 1 297 l 10 325 l 18 322 l 22 329 l 25 344 l 32 365 l 42 390 l 51 417 l 61 440 l 79 469 l 101 503 l 121 535 l 142 567 l 168 603 l 199 633 l 226 668 l 251 699 l 272 728 l 292 756 l 308 781 l 317 800 l 331 818 l 343 838 l 349 840 l 343 846 l 363 865 l 375 853 l 389 832 l 400 813 l 410 793 l 418 785 l 417 796 l 415 814 l 408 832 l 406 851 l 399 865 l 393 882 l 383 894 l 406 911 l 418 896 l 424 876 l 431 860 l 436 840 l 443 819 l 444 799 l 447 778 l 450 761 l 450 751 l 451 753 l 457 771 l 461 783 l 461 808 l 461 836 l 461 863 l 461 886 l 461 904 l 457 926 l 485 932 l 489 907 l 489 886 l 489 863 l 489 836 l 489 808 l 489 781 l 485 763 l 479 749 l 490 769 l 501 788 l 513 814 l 519 839 l 521 858 l 526 875 l 526 892 l 533 910 l 558 901 l 554 886 l 554 872 l 550 856 l 571 854 l 569 840 l 569 808 l 569 764 l 574 718 l 575 667 l 578 608 l 579 550 l 579 497 l 579 447 l 575 401 l 574 360 l 569 325 l 569 322 l 583 322 l 599 322 l 619 322 l 646 325 l 669 332 l 699 333 l 714 333 l 731 336 l 736 308 l 717 306 l 699 306 l 675 304 l 651 297 l 619 294 l 599 294 l 583 294 l 564 294 l 565 278 l 581 278 l 600 279 l 619 279 l 633 279 l 653 282 l 669 282 l 685 282 l 699 282 l 699 254 l 685 254 l 669 254 l 656 254 l 636 251 l 619 251 l 600 251 l 581 250 l 567 250 l 567 243 l 588 243 l 611 243 l 640 243 l 665 240 l 690 238 l 717 233 l 736 229 l 754 228 l 771 225 l 765 197 l 751 200 l 733 201 l 711 206 l 688 210 l 663 213 l 638 215 l 611 215 l 588 215 l 564 215 l 563 211 l 561 208 l 571 208 l 589 206 l 617 206 l 643 201 l 674 199 l 706 194 l 732 188 l 754 183 l 772 174 l 797 168 l 789 140 l 764 149 l 746 156 l 726 160 l 700 167 l 671 171 l 640 174 l 614 178 l 586 178 l 568 181 l 543 182 l 544 185 l 529 182 l 513 183 l 513 176 l 513 172 l 536 175 l 539 150 l 539 125 l 540 96 l 543 67 l 544 39 l 549 14 l 554 -10 l 557 -24 l 567 -35 l 544 -51 l 532 -35 l 526 -15 l 521 8 l 517 36 l 514 19 l 513 -1 l 513 -21 l 510 -42 l 482 -39 l 485 -18 l 485 -1 l 486 22 l 489 43 l 489 74 l 486 94 l 485 114 l 479 89 l 475 58 l 467 32 l 465 17 l 463 -6 l 463 -19 l 435 -19 l 435 -3 l 438 19 l 438 21 l 426 0 l 401 14 l 413 32 l 421 56 l 431 81 l 438 111 l 438 139 l 438 168 l 438 189 l 431 189 l 410 189 l 382 189 l 350 186 l 319 182 l 283 178 l 244 175 l 214 175 l 186 175 l 167 175 l 153 175 l 133 175 l 133 178 l 121 165 l 104 157 m 369 792 l 389 772 l 372 754 l 353 724 l 324 682 l 294 638 l 258 588 l 219 535 l 206 513 l 226 533 l 261 571 l 296 619 l 329 660 l 354 700 l 375 735 l 388 757 l 396 768 l 388 776 l 375 799 l 364 818 l 363 818 l 353 801 l 342 786 l 333 767 l 314 739 l 294 711 l 274 682 l 249 651 l 221 614 l 190 583 l 164 550 l 143 521 l 124 489 l 101 456 l 86 429 l 76 406 l 67 379 l 57 357 l 53 339 l 47 318 l 69 324 l 76 343 l 86 367 l 100 399 l 121 438 l 140 471 l 168 506 l 197 551 l 236 604 l 272 654 l 301 699 l 331 740 l 350 771 l 369 792 m 189 256 l 200 281 l 221 272 l 233 272 l 263 272 l 290 275 l 321 278 l 351 282 l 382 283 l 406 286 l 408 263 l 413 267 l 428 247 l 439 238 l 458 226 l 475 219 l 493 214 l 508 213 l 525 210 l 524 213 l 519 214 l 503 222 l 482 235 l 463 250 l 447 263 l 426 279 l 411 296 l 404 306 l 382 306 l 357 306 l 329 306 l 301 306 l 271 304 l 249 304 l 222 301 l 200 301 l 197 285 l 188 260 l 178 238 l 188 236 l 213 236 l 242 236 l 274 240 l 306 243 l 336 244 l 367 247 l 388 247 l 403 258 l 385 256 l 354 254 l 324 250 l 293 247 l 263 244 l 233 244 l 215 244 l 189 256 m 525 210 l 529 210 l 526 211 l 525 210 z "},"5":{"ha":797,"x_min":11,"x_max":660,"o":"m 206 535 l 200 533 l 199 533 l 197 529 l 204 533 l 206 535 m 150 911 l 146 915 l 138 922 l 138 893 l 135 843 l 128 781 l 126 718 l 115 657 l 104 613 l 100 575 l 97 556 l 100 556 l 108 554 l 110 564 l 114 585 l 122 619 l 131 664 l 135 711 l 142 764 l 144 815 l 149 860 l 149 890 l 150 911 m 194 856 l 183 874 l 176 882 l 176 860 l 172 813 l 169 761 l 163 708 l 158 661 l 150 614 l 142 579 l 138 558 l 136 553 l 147 553 l 150 553 l 154 576 l 160 603 l 165 633 l 169 672 l 174 714 l 181 757 l 185 800 l 188 829 l 183 853 l 194 856 m 236 774 l 229 771 l 224 790 l 222 807 l 215 822 l 213 797 l 208 754 l 201 711 l 197 669 l 193 631 l 188 597 l 183 578 l 190 597 l 204 636 l 215 676 l 224 719 l 235 758 l 236 774 m 399 822 l 410 819 l 438 818 l 413 822 l 399 822 m 329 535 l 314 536 l 288 536 l 265 536 l 244 526 l 229 518 l 231 515 l 224 511 l 221 508 l 219 506 l 228 500 l 232 503 l 226 513 l 243 521 l 269 531 l 290 533 l 313 535 l 329 535 m 449 492 l 443 496 l 431 504 l 411 515 l 407 517 l 415 511 l 442 492 l 468 467 l 485 442 l 499 408 l 510 375 l 513 340 l 514 303 l 508 261 l 492 226 l 465 193 l 433 164 l 388 147 l 347 132 l 303 125 l 260 121 l 286 121 l 325 121 l 364 125 l 400 138 l 435 154 l 464 172 l 490 197 l 513 226 l 525 258 l 535 290 l 536 311 l 536 338 l 532 363 l 522 393 l 513 421 l 496 446 l 482 463 l 447 489 l 449 492 m 218 544 l 214 549 l 215 542 l 218 544 m 429 554 l 408 557 l 382 563 l 353 564 l 322 564 l 314 564 l 346 561 l 374 556 l 400 549 l 422 540 l 444 529 l 460 518 l 482 503 l 497 486 l 501 482 l 508 476 l 544 444 l 546 443 l 546 444 l 524 474 l 504 499 l 479 521 l 453 539 l 429 554 m 615 240 l 615 244 l 613 265 l 606 229 l 592 200 l 601 214 l 615 240 m 631 306 l 632 322 l 632 353 l 625 378 l 617 407 l 603 429 l 589 449 l 575 467 l 560 479 l 543 497 l 536 501 l 546 490 l 568 458 l 588 425 l 601 386 l 607 363 l 622 332 l 631 306 m 326 17 l 368 21 l 410 32 l 447 43 l 486 61 l 526 81 l 556 101 l 581 125 l 597 149 l 606 171 l 585 140 l 553 118 l 522 94 l 486 78 l 451 63 l 415 47 l 365 28 l 326 17 m 331 903 l 336 931 l 361 926 l 386 926 l 413 926 l 449 932 l 488 939 l 514 943 l 540 943 l 556 943 l 556 915 l 540 915 l 517 915 l 493 911 l 454 904 l 415 899 l 386 899 l 358 899 l 331 903 m 322 822 l 322 850 l 340 850 l 371 850 l 396 850 l 415 850 l 443 846 l 463 842 l 492 839 l 517 835 l 542 833 l 565 831 l 563 803 l 539 806 l 514 807 l 489 811 l 460 814 l 468 813 l 497 807 l 525 803 l 549 796 l 564 790 l 585 782 l 574 757 l 556 765 l 540 768 l 519 775 l 492 779 l 463 785 l 436 790 l 404 792 l 379 799 l 360 800 l 340 800 l 325 800 l 325 822 l 322 822 m 49 215 l 71 232 l 85 211 l 100 193 l 122 172 l 140 158 l 151 153 l 142 163 l 122 183 l 111 200 l 100 228 l 104 251 l 132 246 l 128 231 l 136 214 l 144 200 l 161 182 l 176 168 l 200 154 l 226 149 l 260 149 l 300 153 l 342 160 l 379 172 l 419 189 l 446 213 l 467 240 l 481 269 l 486 306 l 485 338 l 482 369 l 474 397 l 460 428 l 446 450 l 425 469 l 399 489 l 382 500 l 358 506 l 338 507 l 313 507 l 293 506 l 275 503 l 261 499 l 250 474 l 242 458 l 229 438 l 207 413 l 185 392 l 158 369 l 131 363 l 111 360 l 86 360 l 86 388 l 108 388 l 125 390 l 144 394 l 165 414 l 188 432 l 207 454 l 217 472 l 225 488 l 233 496 l 229 499 l 218 483 l 201 469 l 188 458 l 168 446 l 147 431 l 124 415 l 99 410 l 78 410 l 56 422 l 69 447 l 86 438 l 96 438 l 113 440 l 131 453 l 151 468 l 171 481 l 183 490 l 183 496 l 179 494 l 153 483 l 126 478 l 99 475 l 71 475 l 53 475 l 25 479 l 31 507 l 56 503 l 71 503 l 96 503 l 121 506 l 144 511 l 150 513 l 146 513 l 147 525 l 122 525 l 94 528 l 75 535 l 68 536 l 68 538 l 49 556 l 68 575 l 72 572 l 72 578 l 76 618 l 88 663 l 99 721 l 100 783 l 107 846 l 110 893 l 110 928 l 131 928 l 125 932 l 142 954 l 165 935 l 185 915 l 206 890 l 221 863 l 238 839 l 233 861 l 229 888 l 224 911 l 214 928 l 200 942 l 219 961 l 236 944 l 249 922 l 257 893 l 261 867 l 261 893 l 258 914 l 251 936 l 276 944 l 286 919 l 289 896 l 289 867 l 289 839 l 293 850 l 296 868 l 296 893 l 296 914 l 296 929 l 286 946 l 311 960 l 324 938 l 324 914 l 324 893 l 324 881 l 333 881 l 364 881 l 392 881 l 422 881 l 456 882 l 486 882 l 514 882 l 535 882 l 556 882 l 556 854 l 535 854 l 514 854 l 486 854 l 456 854 l 422 853 l 392 853 l 364 853 l 333 853 l 322 853 l 321 844 l 311 821 l 304 800 l 294 778 l 283 764 l 275 747 l 263 754 l 263 753 l 251 714 l 243 671 l 231 628 l 215 589 l 215 586 l 225 590 l 246 596 l 274 599 l 303 600 l 332 600 l 365 600 l 406 594 l 436 582 l 438 581 l 443 581 l 468 574 l 494 563 l 514 551 l 543 532 l 563 517 l 579 499 l 594 486 l 611 465 l 625 446 l 642 418 l 653 386 l 660 356 l 660 322 l 658 292 l 653 261 l 643 235 l 643 207 l 636 169 l 622 135 l 603 106 l 572 79 l 540 56 l 497 36 l 458 18 l 418 4 l 374 -7 l 326 -11 l 286 -11 l 247 -11 l 207 -8 l 165 -3 l 136 4 l 113 13 l 94 22 l 79 42 l 82 43 l 78 46 l 63 57 l 42 78 l 50 86 l 42 94 l 26 113 l 18 133 l 14 153 l 14 168 l 11 190 l 39 193 l 42 171 l 42 156 l 46 142 l 51 126 l 61 114 l 79 99 l 99 83 l 119 72 l 146 57 l 169 46 l 190 39 l 225 36 l 258 36 l 289 40 l 325 49 l 369 63 l 411 82 l 453 107 l 485 125 l 519 150 l 544 176 l 564 206 l 578 238 l 585 271 l 585 308 l 582 344 l 581 351 l 578 356 l 554 394 l 549 400 l 560 368 l 564 340 l 564 311 l 563 285 l 550 250 l 538 213 l 510 178 l 481 150 l 449 129 l 411 113 l 369 97 l 328 93 l 286 93 l 251 93 l 218 101 l 182 110 l 157 121 l 126 133 l 103 150 l 81 174 l 63 194 l 49 215 z "},"6":{"ha":825,"x_min":-4,"x_max":686,"o":"m 33 513 l 26 507 l 24 476 l 24 458 l 25 439 l 38 435 l 35 443 l 35 461 l 33 482 l 33 513 m 557 833 l 556 836 l 553 849 l 544 857 l 535 869 l 522 885 l 510 899 l 488 908 l 474 917 l 454 922 l 433 922 l 408 922 l 403 921 l 422 917 l 450 907 l 471 896 l 494 886 l 518 869 l 540 854 l 557 833 m 106 556 l 113 575 l 126 603 l 144 638 l 167 668 l 189 696 l 213 719 l 236 736 l 261 753 l 288 768 l 317 782 l 346 792 l 372 796 l 400 800 l 418 800 l 444 799 l 467 788 l 500 764 l 511 749 l 521 739 l 514 751 l 500 765 l 481 783 l 465 803 l 449 818 l 429 833 l 415 843 l 397 846 l 378 846 l 351 842 l 322 835 l 297 828 l 275 815 l 254 803 l 229 786 l 204 761 l 185 736 l 163 711 l 146 681 l 133 650 l 121 619 l 111 583 l 106 556 m 396 47 l 383 47 l 343 50 l 308 51 l 269 56 l 235 63 l 203 72 l 172 89 l 157 100 l 168 86 l 188 67 l 206 54 l 229 44 l 257 39 l 290 36 l 328 36 l 364 40 l 396 47 m 294 544 l 329 544 l 367 544 l 408 542 l 438 535 l 469 524 l 496 508 l 515 492 l 533 474 l 546 456 l 561 436 l 576 410 l 586 382 l 593 353 l 599 319 l 599 288 l 597 256 l 593 228 l 582 194 l 568 163 l 546 131 l 521 104 l 508 92 l 525 103 l 547 128 l 568 147 l 583 175 l 597 203 l 606 238 l 615 272 l 617 300 l 619 331 l 619 360 l 613 392 l 601 422 l 589 450 l 572 469 l 556 492 l 536 508 l 514 522 l 489 535 l 464 547 l 461 547 l 428 553 l 388 557 l 349 557 l 333 557 l 317 553 l 294 544 m 217 510 l 194 496 l 178 478 l 165 456 l 165 454 l 169 446 l 178 469 l 193 492 l 217 510 m 619 186 l 626 197 l 640 231 l 650 268 l 658 301 l 658 333 l 658 365 l 649 392 l 638 421 l 622 446 l 618 450 l 626 433 l 640 400 l 647 363 l 647 331 l 644 297 l 643 267 l 633 229 l 622 194 l 619 186 m 8 354 l 8 382 l 25 382 l 49 382 l 67 382 l 85 383 l 111 389 l 132 403 l 142 413 l 161 393 l 149 381 l 122 364 l 88 356 l 67 354 l 49 354 l 25 354 l 8 354 m 131 249 l 158 243 l 154 222 l 154 207 l 161 189 l 172 167 l 185 149 l 201 138 l 229 124 l 260 117 l 288 113 l 322 110 l 360 110 l 393 114 l 424 122 l 450 136 l 472 153 l 496 171 l 513 194 l 522 219 l 531 249 l 532 275 l 535 300 l 535 322 l 532 344 l 525 364 l 514 383 l 497 397 l 476 411 l 457 422 l 424 429 l 394 432 l 361 433 l 324 433 l 293 429 l 265 419 l 238 404 l 219 385 l 214 378 l 215 374 l 210 353 l 200 336 l 196 329 l 192 310 l 189 283 l 161 286 l 161 290 l 149 278 l 124 261 l 107 253 l 107 231 l 110 214 l 121 196 l 133 172 l 147 150 l 165 128 l 186 111 l 214 97 l 240 90 l 275 83 l 311 79 l 346 78 l 383 75 l 418 75 l 447 88 l 478 101 l 501 124 l 524 147 l 543 176 l 557 206 l 565 233 l 569 258 l 571 288 l 571 317 l 565 347 l 558 374 l 551 399 l 539 419 l 524 439 l 511 457 l 496 472 l 479 486 l 458 499 l 429 507 l 403 514 l 367 517 l 329 517 l 294 517 l 263 507 l 236 489 l 213 472 l 203 456 l 196 439 l 196 422 l 168 422 l 168 436 l 160 432 l 157 422 l 147 425 l 138 419 l 114 411 l 89 401 l 60 401 l 42 403 l 14 414 l 21 432 l -1 429 l -4 456 l -4 476 l -1 510 l 6 546 l 14 582 l 26 617 l 39 649 l 58 685 l 76 717 l 101 760 l 128 794 l 150 822 l 165 838 l 172 844 l 176 849 l 190 863 l 199 868 l 201 871 l 229 890 l 263 911 l 293 922 l 318 931 l 349 943 l 378 946 l 406 950 l 433 950 l 457 950 l 485 942 l 501 933 l 526 921 l 544 904 l 557 886 l 567 876 l 578 863 l 583 844 l 590 815 l 590 797 l 583 797 l 589 788 l 600 760 l 608 732 l 610 710 l 582 707 l 581 726 l 575 751 l 564 776 l 553 796 l 535 817 l 521 835 l 501 847 l 481 861 l 460 871 l 439 882 l 414 889 l 397 894 l 371 894 l 346 894 l 325 892 l 297 885 l 275 879 l 251 869 l 231 857 l 215 846 l 196 829 l 185 818 l 164 793 l 144 763 l 125 729 l 110 692 l 94 660 l 79 619 l 68 582 l 61 542 l 61 513 l 61 482 l 63 461 l 63 449 l 68 429 l 83 429 l 90 432 l 92 450 l 75 450 l 75 465 l 75 481 l 75 497 l 75 524 l 76 553 l 83 589 l 96 628 l 108 661 l 121 692 l 140 728 l 163 753 l 185 781 l 213 808 l 240 825 l 261 840 l 286 853 l 314 863 l 346 869 l 375 874 l 400 874 l 426 868 l 446 856 l 465 840 l 485 822 l 500 803 l 519 785 l 536 768 l 550 740 l 556 724 l 533 717 l 538 706 l 544 681 l 517 675 l 513 697 l 503 717 l 489 732 l 481 744 l 453 763 l 436 771 l 418 772 l 403 772 l 378 768 l 351 764 l 328 757 l 301 743 l 275 728 l 253 714 l 229 697 l 208 676 l 189 651 l 167 624 l 151 592 l 138 564 l 128 535 l 122 510 l 119 488 l 119 467 l 119 451 l 119 442 l 126 444 l 136 450 l 136 453 l 131 456 l 144 485 l 168 514 l 194 539 l 231 558 l 267 575 l 308 585 l 331 585 l 343 588 l 376 588 l 411 588 l 443 583 l 471 574 l 475 572 l 500 563 l 531 551 l 560 539 l 588 522 l 608 506 l 626 485 l 644 463 l 663 432 l 674 403 l 686 371 l 686 333 l 686 299 l 678 260 l 665 222 l 651 186 l 626 144 l 594 108 l 564 76 l 528 51 l 488 32 l 443 8 l 399 -7 l 357 -11 l 313 -11 l 274 -8 l 233 1 l 201 18 l 174 38 l 146 60 l 124 82 l 103 107 l 86 132 l 69 157 l 57 183 l 56 207 l 58 207 l 53 222 l 79 231 l 79 243 l 65 240 l 44 240 l 24 249 l 32 274 l 50 268 l 63 268 l 86 271 l 110 286 l 132 300 l 150 317 l 167 335 l 146 322 l 118 311 l 93 301 l 64 301 l 29 304 l 11 308 l 17 336 l 35 332 l 64 329 l 88 329 l 107 336 l 132 347 l 153 360 l 167 368 l 176 378 l 181 374 l 182 378 l 185 383 l 183 389 l 190 390 l 197 401 l 221 426 l 254 444 l 288 457 l 321 461 l 361 461 l 397 460 l 429 457 l 465 447 l 490 436 l 514 419 l 536 400 l 550 375 l 560 350 l 563 325 l 563 297 l 560 272 l 558 243 l 547 211 l 538 181 l 515 151 l 489 131 l 464 114 l 435 97 l 399 86 l 363 82 l 322 82 l 285 85 l 254 89 l 221 99 l 188 113 l 165 129 l 147 153 l 136 178 l 126 201 l 126 225 l 131 249 z "},"7":{"ha":836,"x_min":65,"x_max":699,"o":"m 479 492 l 490 524 l 510 575 l 529 625 l 542 667 l 550 700 l 554 721 l 554 722 l 553 729 l 539 693 l 524 642 l 508 586 l 490 528 l 479 492 m 396 171 l 403 201 l 411 242 l 415 281 l 428 326 l 439 376 l 435 365 l 424 317 l 413 269 l 401 219 l 396 178 l 396 171 m 528 813 l 522 785 l 508 788 l 490 788 l 472 788 l 446 785 l 408 779 l 368 775 l 325 768 l 282 760 l 239 753 l 200 744 l 169 738 l 143 733 l 118 726 l 104 724 l 88 715 l 76 740 l 93 749 l 110 754 l 138 761 l 164 765 l 194 772 l 233 781 l 276 788 l 319 796 l 365 803 l 406 807 l 443 813 l 469 815 l 490 815 l 511 815 l 528 813 m 514 778 l 539 764 l 531 750 l 532 750 l 543 769 l 539 786 l 529 819 l 528 822 l 511 819 l 492 819 l 463 818 l 435 815 l 397 811 l 354 807 l 308 803 l 264 800 l 219 796 l 188 794 l 153 790 l 125 790 l 104 785 l 85 781 l 68 779 l 65 807 l 79 808 l 99 813 l 122 818 l 150 818 l 185 822 l 217 824 l 261 828 l 306 831 l 351 835 l 394 839 l 432 843 l 460 846 l 492 847 l 508 847 l 518 849 l 518 850 l 508 871 l 503 879 l 503 876 l 500 876 l 500 853 l 471 853 l 451 853 l 419 850 l 383 846 l 340 844 l 297 842 l 256 842 l 213 842 l 171 842 l 139 844 l 108 844 l 83 844 l 67 844 l 67 872 l 83 872 l 108 872 l 139 872 l 171 869 l 213 869 l 256 869 l 297 869 l 340 872 l 381 874 l 388 875 l 340 875 l 288 875 l 236 875 l 186 875 l 142 879 l 100 881 l 69 883 l 72 911 l 103 908 l 144 907 l 186 903 l 236 903 l 288 903 l 340 903 l 388 903 l 429 903 l 461 904 l 486 904 l 489 904 l 500 919 l 517 907 l 533 885 l 543 861 l 554 828 l 567 794 l 569 778 l 569 789 l 567 815 l 563 843 l 561 860 l 553 875 l 544 890 l 532 911 l 557 925 l 569 904 l 578 889 l 589 868 l 590 846 l 594 818 l 597 789 l 597 760 l 597 756 l 601 764 l 610 783 l 615 806 l 615 828 l 615 854 l 611 875 l 607 893 l 599 913 l 624 924 l 632 901 l 639 881 l 643 857 l 643 828 l 643 803 l 635 775 l 626 753 l 615 731 l 610 717 l 613 719 l 624 732 l 638 751 l 649 772 l 661 799 l 671 828 l 671 847 l 669 871 l 664 892 l 653 903 l 647 919 l 675 928 l 678 917 l 689 906 l 697 876 l 699 847 l 699 822 l 686 788 l 674 761 l 663 738 l 646 715 l 632 700 l 618 689 l 604 708 l 599 700 l 592 706 l 589 692 l 578 694 l 569 658 l 554 617 l 535 564 l 515 515 l 499 463 l 481 415 l 467 368 l 456 321 l 443 275 l 439 236 l 431 196 l 421 157 l 415 119 l 410 92 l 401 65 l 401 46 l 401 29 l 397 8 l 381 11 l 381 4 l 378 -22 l 369 -43 l 344 -35 l 350 -17 l 353 7 l 354 35 l 358 67 l 361 97 l 365 135 l 368 181 l 374 225 l 385 275 l 396 322 l 407 374 l 428 426 l 447 482 l 463 536 l 481 594 l 496 650 l 506 679 l 493 650 l 476 600 l 453 542 l 431 490 l 408 438 l 388 388 l 374 338 l 358 285 l 347 246 l 340 203 l 336 160 l 335 121 l 332 90 l 328 58 l 328 35 l 326 11 l 326 -8 l 326 -29 l 299 -29 l 299 -8 l 299 11 l 300 35 l 300 61 l 304 93 l 307 124 l 308 163 l 313 206 l 319 251 l 331 289 l 315 257 l 301 196 l 285 142 l 276 107 l 274 78 l 269 51 l 267 28 l 267 7 l 239 7 l 239 31 l 242 54 l 246 81 l 249 113 l 257 150 l 274 204 l 290 265 l 319 333 l 344 407 l 371 479 l 401 544 l 429 607 l 453 661 l 478 708 l 494 739 l 506 763 l 514 778 z "},"8":{"ha":814,"x_min":-6,"x_max":675,"o":"m 283 467 l 265 461 l 265 457 l 265 442 l 283 450 l 283 457 l 283 467 m 333 442 l 311 432 l 313 419 l 314 411 l 326 406 l 328 418 l 333 438 l 333 442 m 374 443 l 361 443 l 361 442 l 374 442 l 374 443 m 404 413 l 399 413 l 396 401 l 393 383 l 365 386 l 368 407 l 371 414 l 356 414 l 356 413 l 351 389 l 324 394 l 315 379 l 292 394 l 285 414 l 285 421 l 271 414 l 267 411 l 269 403 l 244 392 l 239 407 l 229 419 l 238 425 l 238 432 l 236 432 l 226 426 l 213 414 l 196 399 l 182 383 l 167 365 l 156 342 l 147 317 l 143 289 l 139 264 l 139 239 l 142 218 l 153 192 l 168 171 l 186 156 l 214 142 l 242 132 l 269 125 l 307 124 l 346 124 l 382 132 l 413 142 l 438 151 l 458 167 l 469 182 l 483 203 l 497 231 l 500 249 l 504 269 l 504 289 l 504 308 l 501 335 l 497 353 l 485 374 l 474 388 l 464 397 l 446 407 l 433 410 l 426 393 l 401 401 l 404 413 m 411 443 l 403 443 l 401 440 l 411 440 l 411 442 l 411 443 m 158 588 l 149 600 l 158 585 l 169 571 l 183 558 l 196 551 l 211 546 l 217 546 l 211 549 l 194 560 l 178 571 l 158 588 m 539 826 l 533 836 l 524 854 l 514 864 l 526 844 l 539 826 m 547 642 l 547 651 l 547 678 l 546 704 l 542 729 l 535 757 l 529 785 l 518 807 l 504 828 l 493 846 l 468 863 l 450 874 l 422 886 l 400 892 l 367 892 l 335 892 l 304 888 l 281 883 l 251 875 l 224 865 l 200 850 l 175 836 l 158 817 l 143 796 l 126 768 l 122 750 l 122 725 l 122 700 l 122 679 l 126 654 l 131 642 l 129 660 l 129 689 l 131 726 l 147 761 l 168 790 l 194 819 l 225 838 l 254 856 l 288 868 l 321 876 l 356 876 l 386 876 l 419 872 l 443 854 l 464 835 l 476 817 l 492 793 l 504 768 l 515 733 l 525 711 l 528 683 l 528 658 l 528 633 l 515 606 l 497 583 l 481 567 l 460 550 l 450 540 l 438 531 l 438 524 l 456 529 l 476 540 l 497 553 l 517 568 l 529 585 l 538 606 l 540 613 l 542 618 l 546 639 l 547 642 m 85 576 l 89 571 l 103 556 l 114 547 l 100 561 l 85 576 m 563 589 l 564 590 l 576 604 l 585 621 l 586 640 l 586 663 l 586 685 l 585 703 l 583 711 l 583 700 l 579 676 l 579 658 l 574 638 l 574 621 l 567 604 l 563 589 m 210 896 l 186 879 l 160 863 l 135 842 l 115 821 l 97 799 l 86 776 l 81 757 l 78 733 l 78 713 l 78 690 l 81 664 l 85 643 l 88 628 l 99 608 l 106 594 l 119 581 l 133 567 l 143 560 l 136 568 l 124 586 l 115 610 l 106 629 l 99 649 l 94 676 l 94 700 l 94 725 l 94 753 l 101 779 l 121 813 l 136 833 l 158 858 l 186 875 l 213 890 l 243 903 l 275 911 l 301 915 l 332 919 l 367 919 l 403 919 l 431 911 l 464 899 l 485 885 l 511 867 l 508 869 l 493 883 l 471 901 l 450 915 l 429 922 l 404 929 l 379 931 l 353 931 l 346 931 l 319 926 l 285 918 l 251 910 l 218 900 l 210 896 m 156 394 l 149 388 l 125 364 l 114 338 l 103 311 l 97 288 l 97 261 l 97 232 l 106 203 l 117 176 l 135 158 l 154 135 l 176 115 l 203 100 l 233 90 l 263 82 l 296 78 l 326 75 l 369 75 l 404 79 l 436 89 l 469 100 l 501 118 l 526 140 l 551 160 l 572 188 l 586 210 l 590 235 l 593 265 l 593 292 l 593 319 l 586 342 l 576 365 l 556 388 l 536 404 l 508 419 l 483 433 l 450 440 l 439 442 l 439 438 l 457 432 l 481 419 l 493 407 l 507 390 l 522 364 l 529 340 l 532 308 l 532 289 l 532 267 l 528 243 l 522 222 l 508 189 l 492 165 l 478 147 l 451 126 l 421 117 l 390 104 l 349 96 l 307 96 l 267 97 l 233 104 l 203 117 l 172 133 l 149 151 l 128 178 l 114 210 l 111 236 l 111 267 l 115 294 l 119 322 l 131 353 l 144 379 l 156 394 m 619 249 l 621 256 l 624 285 l 624 311 l 621 322 l 621 292 l 621 265 l 619 249 m 588 163 l 585 158 l 588 161 l 588 163 m 94 163 l 93 164 l 103 136 l 124 108 l 143 86 l 165 68 l 192 58 l 231 47 l 268 44 l 313 44 l 342 47 l 326 47 l 293 50 l 257 54 l 225 63 l 192 75 l 160 93 l 135 115 l 113 139 l 94 163 m 644 338 l 651 329 l 665 297 l 675 268 l 675 233 l 675 201 l 663 174 l 650 142 l 621 106 l 590 74 l 553 42 l 517 18 l 475 1 l 429 -8 l 386 -19 l 346 -26 l 288 -28 l 236 -28 l 190 -22 l 144 -10 l 107 6 l 71 22 l 39 47 l 17 78 l -4 114 l -6 150 l -6 185 l -6 217 l 0 256 l 7 290 l 15 326 l 31 363 l 49 394 l 68 421 l 92 449 l 119 469 l 146 488 l 153 493 l 147 496 l 122 507 l 104 519 l 83 536 l 67 554 l 51 575 l 42 599 l 31 624 l 26 654 l 25 686 l 25 715 l 26 746 l 36 772 l 51 801 l 71 825 l 92 854 l 119 878 l 149 894 l 176 911 l 196 921 l 199 922 l 207 925 l 208 926 l 229 933 l 264 946 l 292 954 l 321 957 l 343 958 l 346 958 l 353 958 l 379 958 l 411 958 l 442 954 l 468 942 l 489 928 l 515 904 l 532 889 l 549 871 l 565 846 l 572 825 l 588 799 l 593 775 l 603 756 l 608 732 l 613 706 l 614 685 l 614 663 l 614 640 l 613 613 l 599 590 l 586 571 l 567 553 l 551 532 l 535 517 l 515 497 l 494 483 l 479 476 l 510 460 l 519 454 l 547 443 l 572 428 l 594 414 l 615 390 l 632 368 l 643 344 l 644 338 m 647 246 l 643 224 l 635 194 l 624 174 l 610 144 l 586 119 l 558 96 l 525 72 l 489 56 l 449 42 l 406 31 l 360 21 l 313 17 l 268 17 l 225 19 l 183 31 l 151 43 l 124 67 l 101 92 l 78 122 l 65 156 l 57 193 l 57 224 l 57 254 l 60 285 l 65 321 l 76 354 l 89 388 l 113 417 l 136 442 l 164 460 l 199 476 l 222 475 l 222 471 l 231 472 l 232 460 l 238 460 l 239 479 l 240 488 l 238 483 l 233 485 l 233 482 l 213 482 l 196 483 l 185 479 l 160 465 l 136 447 l 111 429 l 90 404 l 71 381 l 56 351 l 43 318 l 35 285 l 28 250 l 22 214 l 22 185 l 22 150 l 24 122 l 39 92 l 58 67 l 85 47 l 118 31 l 153 15 l 196 6 l 239 0 l 288 0 l 343 1 l 381 8 l 424 19 l 467 29 l 503 43 l 536 64 l 571 93 l 599 125 l 625 156 l 638 185 l 647 207 l 647 233 l 647 246 m 403 569 l 431 578 l 433 564 l 443 572 l 461 586 l 478 603 l 490 619 l 500 639 l 500 658 l 500 681 l 497 706 l 490 725 l 479 757 l 467 779 l 454 800 l 442 815 l 424 835 l 408 847 l 386 849 l 356 849 l 324 849 l 296 840 l 265 831 l 239 813 l 211 797 l 190 774 l 172 747 l 158 721 l 157 689 l 157 660 l 158 639 l 167 622 l 178 607 l 194 593 l 208 582 l 225 574 l 238 564 l 249 564 l 254 564 l 258 572 l 283 561 l 276 546 l 274 529 l 269 506 l 268 490 l 279 494 l 283 494 l 285 508 l 285 533 l 294 560 l 319 551 l 313 528 l 313 508 l 313 499 l 319 500 l 335 500 l 335 508 l 335 529 l 331 557 l 358 560 l 363 532 l 363 508 l 363 500 l 378 500 l 378 501 l 378 518 l 374 546 l 374 565 l 401 565 l 401 549 l 406 521 l 406 511 l 411 513 l 408 538 l 407 556 l 403 569 z "},"9":{"ha":832,"x_min":7,"x_max":693,"o":"m 515 446 l 522 453 l 526 465 l 528 472 l 525 472 l 507 475 l 499 479 l 518 465 l 510 454 l 507 447 l 515 446 m 550 442 l 561 442 l 582 450 l 611 467 l 631 478 l 646 493 l 651 503 l 646 499 l 624 489 l 596 478 l 569 472 l 560 472 l 558 471 l 554 450 l 550 442 m 563 379 l 557 372 l 556 364 l 554 344 l 551 325 l 549 300 l 543 274 l 535 242 l 522 208 l 504 172 l 496 158 l 507 172 l 522 197 l 532 224 l 543 247 l 550 276 l 554 296 l 561 322 l 563 339 l 563 358 l 563 374 l 563 379 m 617 407 l 624 389 l 624 404 l 624 419 l 624 433 l 622 440 l 593 425 l 581 419 l 574 407 l 574 404 l 589 404 l 586 411 l 611 422 l 617 407 m 257 849 l 247 849 l 218 839 l 186 824 l 160 806 l 138 788 l 119 765 l 101 738 l 86 710 l 76 676 l 68 643 l 63 614 l 63 582 l 63 547 l 63 522 l 72 492 l 86 467 l 107 444 l 132 424 l 153 413 l 179 400 l 211 392 l 246 386 l 272 382 l 306 379 l 340 379 l 375 379 l 403 388 l 424 394 l 399 389 l 363 383 l 332 383 l 299 386 l 268 393 l 239 399 l 213 411 l 188 422 l 167 436 l 144 457 l 132 481 l 118 511 l 111 546 l 110 586 l 111 618 l 115 653 l 119 681 l 132 715 l 143 742 l 157 769 l 178 794 l 204 817 l 231 838 l 257 849 m 531 672 l 532 682 l 532 700 l 532 713 l 522 725 l 517 736 l 519 722 l 524 708 l 528 693 l 531 672 m 96 415 l 118 399 l 146 382 l 171 367 l 199 351 l 224 344 l 249 340 l 278 338 l 307 338 l 339 340 l 371 342 l 394 349 l 421 356 l 447 363 l 465 374 l 483 383 l 501 399 l 510 408 l 493 399 l 478 390 l 460 381 l 435 369 l 411 360 l 378 351 l 340 351 l 306 351 l 269 354 l 240 358 l 206 364 l 171 375 l 142 388 l 115 401 l 89 424 l 96 415 m 504 365 l 507 367 l 521 376 l 531 385 l 531 390 l 521 379 l 504 365 m 233 314 l 242 311 l 269 303 l 293 299 l 322 299 l 354 301 l 388 313 l 421 321 l 443 331 l 450 335 l 429 328 l 403 321 l 374 314 l 342 313 l 307 310 l 278 310 l 246 313 l 233 314 m 413 894 l 401 899 l 379 904 l 401 897 l 413 894 m 490 556 l 515 567 l 519 553 l 538 544 l 569 542 l 589 542 l 613 551 l 629 561 l 642 572 l 658 582 l 672 557 l 658 550 l 646 539 l 624 526 l 594 514 l 569 514 l 529 517 l 500 533 l 490 556 m 528 611 l 503 619 l 507 633 l 507 644 l 504 664 l 500 688 l 496 700 l 492 717 l 489 731 l 479 757 l 464 783 l 456 794 l 444 803 l 436 810 l 426 815 l 410 825 l 393 831 l 375 833 l 346 838 l 322 838 l 297 835 l 276 828 l 244 813 l 221 794 l 197 775 l 179 756 l 168 731 l 157 704 l 147 675 l 143 650 l 139 615 l 138 586 l 139 549 l 146 519 l 157 492 l 167 474 l 183 458 l 201 447 l 224 436 l 247 426 l 274 421 l 304 414 l 332 411 l 360 411 l 393 417 l 417 422 l 439 429 l 457 439 l 471 449 l 479 456 l 488 468 l 494 481 l 489 483 l 500 508 l 515 503 l 528 500 l 542 500 l 567 500 l 588 506 l 613 514 l 632 524 l 646 532 l 661 543 l 667 536 l 682 540 l 686 521 l 681 499 l 668 476 l 647 456 l 651 436 l 651 419 l 651 404 l 651 386 l 649 367 l 647 344 l 644 324 l 640 300 l 636 272 l 632 243 l 624 215 l 618 192 l 608 164 l 597 139 l 576 111 l 560 79 l 536 51 l 511 29 l 485 11 l 458 -7 l 421 -21 l 379 -35 l 338 -37 l 301 -37 l 258 -35 l 222 -28 l 189 -18 l 158 -6 l 126 11 l 106 26 l 83 47 l 71 68 l 58 85 l 50 103 l 46 125 l 65 128 l 58 138 l 50 153 l 75 167 l 83 151 l 94 133 l 103 114 l 115 92 l 131 74 l 149 54 l 171 39 l 201 26 l 232 17 l 261 13 l 301 10 l 339 10 l 372 17 l 407 26 l 436 38 l 465 53 l 493 75 l 517 100 l 539 126 l 557 151 l 571 178 l 578 207 l 585 240 l 589 268 l 596 297 l 596 324 l 597 346 l 597 365 l 597 378 l 592 399 l 590 400 l 590 388 l 590 374 l 590 358 l 590 339 l 589 317 l 582 290 l 578 271 l 568 239 l 557 213 l 547 186 l 529 156 l 508 129 l 489 110 l 469 93 l 443 72 l 417 63 l 388 49 l 358 33 l 319 24 l 290 24 l 256 24 l 229 28 l 201 32 l 175 46 l 154 65 l 140 83 l 125 103 l 111 125 l 104 144 l 97 158 l 89 185 l 114 193 l 122 169 l 129 156 l 136 136 l 147 119 l 163 100 l 174 85 l 192 68 l 210 60 l 235 56 l 258 51 l 285 51 l 249 58 l 224 68 l 196 85 l 175 110 l 158 143 l 149 164 l 144 194 l 172 197 l 176 172 l 183 154 l 197 126 l 215 107 l 235 93 l 257 86 l 288 79 l 318 79 l 354 79 l 385 92 l 414 110 l 443 132 l 464 157 l 479 186 l 497 219 l 507 250 l 515 279 l 521 306 l 524 328 l 526 346 l 521 342 l 499 331 l 478 318 l 454 306 l 429 296 l 396 285 l 360 274 l 322 271 l 290 271 l 264 275 l 233 286 l 203 296 l 176 307 l 143 326 l 124 343 l 100 367 l 79 392 l 76 396 l 72 399 l 49 426 l 31 454 l 15 488 l 10 525 l 7 561 l 7 603 l 11 640 l 15 681 l 28 714 l 39 750 l 57 782 l 75 813 l 100 835 l 125 858 l 142 871 l 143 872 l 165 894 l 190 914 l 222 931 l 250 942 l 282 943 l 310 943 l 335 942 l 360 939 l 385 932 l 410 926 l 435 915 l 451 907 l 474 899 l 493 890 l 511 878 l 526 867 l 544 851 l 563 836 l 574 825 l 593 811 l 607 794 l 618 782 l 629 767 l 640 751 l 651 736 l 658 721 l 664 703 l 668 675 l 668 656 l 668 638 l 664 625 l 682 633 l 693 608 l 674 599 l 650 592 l 617 579 l 583 576 l 553 576 l 522 579 l 496 588 l 479 601 l 496 624 l 510 613 l 528 607 l 542 606 l 529 611 l 528 611 m 581 626 l 558 643 l 568 657 l 574 669 l 576 682 l 576 704 l 574 717 l 568 733 l 563 749 l 554 761 l 542 778 l 533 789 l 524 800 l 511 813 l 494 825 l 482 836 l 461 846 l 443 858 l 424 864 l 396 869 l 374 876 l 346 881 l 319 883 l 292 883 l 265 883 l 240 876 l 215 872 l 189 865 l 163 851 l 161 851 l 143 828 l 172 849 l 207 864 l 242 876 l 282 878 l 314 878 l 343 874 l 369 869 l 394 860 l 419 851 l 421 850 l 426 849 l 444 839 l 451 833 l 460 828 l 476 815 l 497 800 l 508 788 l 524 772 l 536 758 l 547 739 l 557 721 l 560 700 l 560 682 l 558 663 l 558 646 l 556 619 l 549 604 l 553 604 l 583 604 l 611 607 l 642 617 l 658 622 l 636 629 l 640 640 l 640 656 l 640 672 l 636 697 l 633 710 l 626 722 l 618 735 l 607 750 l 596 765 l 585 775 l 574 792 l 558 801 l 564 794 l 576 778 l 588 760 l 593 744 l 601 725 l 604 707 l 604 679 l 601 661 l 593 643 l 581 626 m 379 904 l 354 911 l 332 914 l 310 915 l 282 915 l 256 914 l 233 906 l 229 903 l 235 904 l 263 911 l 292 911 l 322 911 l 349 908 l 379 904 z "}," ":{"ha":417,"x_min":0,"x_max":0,"o":""},"A":{"ha":1017,"x_min":-22,"x_max":879,"o":"m 619 404 l 604 393 l 611 394 l 619 404 m 576 431 l 576 432 l 560 424 l 574 429 l 576 431 m 624 429 l 610 421 l 611 419 l 621 406 l 632 417 l 624 417 l 624 429 m 160 269 l 181 274 l 169 276 l 161 282 l 160 269 m 704 338 l 706 340 l 701 338 l 704 338 m 453 347 l 485 344 l 525 342 l 560 342 l 575 344 l 572 347 l 556 347 l 525 347 l 492 347 l 453 347 m 326 351 l 300 354 l 288 354 l 286 353 l 288 353 l 306 353 l 326 351 m 479 317 l 447 319 l 407 321 l 368 321 l 335 324 l 306 325 l 285 325 l 263 329 l 257 317 l 265 314 l 282 314 l 307 313 l 340 313 l 372 313 l 407 313 l 447 313 l 479 317 m 282 286 l 285 282 l 314 279 l 346 278 l 375 275 l 408 275 l 436 279 l 464 282 l 493 288 l 521 292 l 528 294 l 489 290 l 450 285 l 407 285 l 372 285 l 340 285 l 307 285 l 282 286 m 374 831 l 401 825 l 397 797 l 381 765 l 365 731 l 339 679 l 310 628 l 283 571 l 256 522 l 240 488 l 239 486 l 236 472 l 228 446 l 219 449 l 215 440 l 190 451 l 200 472 l 214 496 l 218 513 l 226 550 l 243 600 l 261 658 l 281 719 l 300 774 l 319 824 l 331 863 l 339 899 l 347 922 l 356 939 l 381 925 l 372 911 l 367 890 l 358 854 l 344 815 l 325 765 l 308 711 l 289 650 l 286 643 l 314 693 l 340 742 l 356 776 l 369 806 l 374 831 m 404 744 l 429 736 l 425 721 l 418 694 l 392 651 l 364 604 l 332 554 l 303 514 l 282 479 l 263 450 l 250 429 l 242 407 l 235 393 l 210 407 l 217 418 l 225 440 l 240 464 l 260 493 l 281 528 l 310 571 l 339 618 l 367 665 l 393 706 l 397 729 l 404 744 m 96 256 l 124 250 l 121 239 l 125 253 l 131 269 l 135 290 l 156 286 l 147 292 l 133 304 l 115 335 l 114 351 l 142 354 l 143 343 l 156 321 l 164 314 l 181 301 l 199 299 l 201 299 l 208 311 l 218 306 l 218 307 l 231 325 l 232 328 l 222 328 l 201 329 l 185 338 l 167 347 l 153 360 l 140 372 l 132 385 l 154 401 l 163 389 l 172 379 l 183 369 l 196 363 l 210 357 l 222 356 l 239 356 l 222 364 l 201 374 l 183 390 l 167 408 l 158 435 l 183 443 l 192 422 l 203 410 l 218 396 l 233 389 l 236 388 l 242 392 l 249 404 l 267 424 l 279 446 l 299 474 l 321 504 l 344 535 l 365 560 l 383 588 l 396 610 l 414 632 l 426 647 l 440 668 l 463 651 l 449 631 l 436 615 l 418 593 l 408 574 l 388 543 l 367 518 l 343 488 l 321 457 l 301 432 l 289 407 l 271 388 l 268 383 l 303 382 l 333 379 l 374 375 l 414 375 l 453 375 l 492 375 l 525 375 l 556 375 l 576 375 l 578 375 l 582 394 l 594 392 l 596 392 l 588 404 l 561 396 l 553 421 l 544 440 l 536 461 l 525 493 l 510 535 l 493 586 l 478 642 l 458 690 l 443 743 l 428 793 l 413 842 l 397 879 l 389 907 l 385 926 l 413 932 l 417 913 l 422 888 l 438 853 l 456 801 l 471 751 l 483 699 l 503 650 l 521 594 l 535 543 l 550 501 l 561 472 l 569 451 l 575 440 l 569 458 l 563 493 l 551 532 l 542 579 l 531 632 l 515 686 l 500 739 l 482 790 l 467 843 l 451 894 l 447 928 l 446 950 l 474 953 l 475 931 l 479 900 l 494 851 l 510 799 l 528 747 l 543 694 l 558 638 l 563 617 l 563 635 l 551 686 l 542 738 l 535 782 l 521 828 l 508 879 l 501 917 l 500 953 l 528 953 l 529 919 l 536 885 l 549 836 l 563 788 l 569 743 l 579 692 l 590 638 l 590 593 l 594 551 l 599 514 l 601 481 l 610 457 l 610 454 l 617 458 l 625 465 l 625 486 l 625 519 l 625 550 l 621 592 l 615 632 l 606 679 l 597 721 l 585 772 l 574 818 l 565 864 l 556 908 l 554 931 l 547 951 l 575 960 l 582 936 l 583 911 l 593 869 l 601 824 l 613 778 l 625 726 l 633 685 l 643 638 l 649 594 l 653 550 l 653 519 l 653 486 l 653 483 l 656 485 l 674 490 l 685 497 l 699 472 l 685 465 l 667 460 l 653 450 l 651 435 l 651 433 l 653 435 l 669 444 l 685 453 l 699 431 l 683 419 l 669 413 l 656 401 l 640 386 l 625 369 l 638 378 l 643 368 l 647 371 l 663 388 l 685 413 l 704 432 l 724 413 l 704 393 l 682 368 l 667 351 l 644 333 l 629 329 l 639 317 l 646 322 l 663 338 l 683 360 l 697 376 l 714 394 l 724 404 l 728 413 l 729 424 l 757 421 l 756 404 l 746 388 l 733 375 l 719 360 l 715 354 l 733 353 l 732 329 l 736 307 l 754 271 l 771 240 l 789 207 l 806 171 l 821 139 l 835 111 l 846 90 l 856 65 l 867 46 l 876 25 l 879 10 l 851 4 l 849 17 l 842 35 l 831 54 l 821 79 l 810 97 l 796 128 l 781 160 l 764 193 l 756 210 l 765 181 l 778 143 l 785 111 l 796 85 l 806 57 l 813 38 l 817 17 l 822 -1 l 794 -10 l 789 11 l 785 29 l 778 49 l 771 76 l 760 103 l 750 135 l 740 172 l 726 210 l 714 246 l 701 281 l 690 308 l 689 325 l 682 318 l 683 318 l 683 304 l 686 283 l 696 254 l 708 222 l 717 186 l 722 151 l 729 117 l 738 92 l 743 68 l 749 44 l 754 28 l 761 13 l 736 1 l 729 17 l 721 36 l 715 63 l 710 83 l 701 111 l 694 146 l 689 181 l 681 214 l 671 246 l 658 278 l 657 296 l 643 286 l 640 286 l 644 274 l 653 246 l 658 211 l 664 183 l 671 149 l 675 113 l 682 88 l 683 65 l 688 47 l 660 42 l 656 63 l 654 82 l 647 107 l 643 143 l 636 178 l 631 206 l 625 240 l 617 265 l 610 290 l 603 294 l 593 288 l 572 282 l 554 275 l 529 264 l 499 260 l 467 254 l 439 251 l 411 247 l 375 247 l 343 250 l 311 251 l 279 254 l 258 258 l 232 268 l 222 272 l 213 272 l 213 264 l 213 242 l 213 203 l 208 158 l 200 111 l 192 72 l 185 35 l 182 14 l 182 -4 l 185 -21 l 157 -26 l 154 -7 l 154 17 l 157 40 l 164 78 l 172 117 l 181 161 l 185 203 l 178 197 l 167 146 l 153 100 l 136 51 l 121 17 l 107 -12 l 101 -33 l 94 -47 l 69 -33 l 76 -22 l 82 -4 l 96 28 l 111 63 l 125 108 l 139 154 l 150 203 l 157 238 l 160 258 l 158 261 l 153 244 l 143 211 l 129 175 l 114 125 l 92 79 l 72 35 l 60 1 l 51 -25 l 39 -44 l 17 -28 l 26 -14 l 35 10 l 47 46 l 67 90 l 89 136 l 104 183 l 114 214 l 92 174 l 72 133 l 51 93 l 33 60 l 18 25 l 3 -4 l -22 10 l -7 36 l 8 71 l 26 107 l 47 144 l 67 188 l 89 225 l 96 256 m 625 369 l 596 364 l 601 360 l 607 358 l 613 361 l 625 369 z "},"B":{"ha":943,"x_min":46,"x_max":806,"o":"m 190 911 l 179 907 l 174 928 l 172 908 l 169 863 l 165 813 l 158 753 l 157 714 l 161 731 l 169 776 l 176 819 l 183 860 l 188 892 l 190 911 m 413 939 l 399 944 l 369 949 l 351 950 l 321 950 l 294 949 l 274 949 l 250 946 l 233 944 l 225 943 l 224 939 l 236 942 l 260 942 l 279 942 l 294 942 l 318 942 l 340 942 l 367 942 l 393 942 l 413 939 m 628 628 l 646 649 l 668 674 l 683 694 l 686 711 l 686 728 l 682 740 l 681 756 l 675 769 l 668 782 l 657 796 l 643 813 l 633 828 l 619 846 l 606 861 l 590 875 l 574 885 l 560 893 l 538 899 l 514 908 l 493 914 l 499 911 l 528 899 l 549 885 l 568 867 l 589 850 l 607 829 l 617 811 l 631 788 l 638 768 l 643 749 l 651 732 l 653 697 l 647 663 l 631 632 l 628 628 m 693 663 l 699 667 l 721 688 l 743 713 l 753 729 l 756 749 l 756 763 l 754 779 l 754 790 l 746 806 l 739 821 l 728 835 l 714 850 l 696 864 l 679 878 l 658 897 l 639 906 l 608 921 l 582 936 l 551 949 l 524 954 l 490 958 l 456 961 l 431 963 l 453 958 l 475 950 l 496 942 l 522 933 l 546 926 l 571 918 l 588 910 l 607 897 l 625 881 l 642 863 l 656 844 l 665 829 l 679 813 l 690 799 l 700 781 l 708 761 l 710 746 l 714 731 l 714 708 l 708 683 l 693 663 m 356 89 l 358 89 l 406 90 l 450 93 l 488 101 l 531 113 l 574 128 l 615 150 l 651 172 l 678 203 l 696 232 l 696 233 l 682 222 l 661 208 l 626 188 l 599 168 l 561 153 l 525 138 l 483 125 l 433 113 l 388 97 l 356 89 m 528 463 l 492 463 l 446 463 l 418 460 l 443 460 l 478 456 l 517 446 l 553 438 l 586 425 l 615 413 l 642 401 l 660 390 l 679 379 l 689 372 l 685 379 l 674 394 l 653 413 l 626 429 l 593 444 l 561 456 l 528 463 m 271 431 l 265 429 l 235 414 l 231 424 l 226 407 l 214 389 l 203 375 l 188 363 l 181 357 l 189 357 l 189 333 l 189 308 l 192 275 l 197 239 l 201 206 l 208 169 l 211 132 l 219 99 l 219 94 l 232 96 l 231 82 l 236 86 l 254 89 l 278 94 l 308 104 l 340 114 l 379 125 l 425 140 l 475 153 l 517 163 l 550 178 l 585 193 l 613 210 l 646 231 l 665 244 l 683 258 l 689 272 l 689 289 l 689 311 l 689 325 l 683 336 l 675 349 l 665 357 l 646 365 l 628 376 l 604 388 l 575 400 l 544 410 l 511 418 l 472 428 l 440 432 l 407 432 l 367 432 l 333 432 l 301 432 l 278 418 l 271 431 m 771 208 l 778 231 l 778 271 l 774 308 l 769 322 l 771 308 l 772 265 l 772 233 l 771 208 m 525 39 l 567 47 l 615 58 l 656 65 l 685 81 l 717 106 l 746 142 l 757 168 l 731 139 l 696 117 l 647 94 l 601 72 l 556 53 l 525 39 m 417 18 l 451 35 l 500 57 l 544 78 l 590 97 l 636 119 l 682 142 l 714 161 l 735 183 l 743 207 l 744 233 l 744 265 l 743 306 l 740 336 l 733 360 l 719 383 l 701 407 l 694 413 l 707 396 l 719 376 l 729 354 l 732 329 l 733 299 l 733 263 l 721 221 l 700 186 l 668 150 l 629 125 l 585 103 l 539 85 l 493 74 l 453 65 l 406 63 l 361 61 l 322 58 l 293 56 l 271 54 l 249 54 l 228 54 l 233 39 l 242 21 l 238 19 l 249 17 l 263 17 l 286 17 l 313 17 l 351 17 l 390 17 l 417 18 m 58 356 l 67 381 l 86 375 l 103 369 l 114 364 l 124 364 l 138 364 l 140 365 l 142 371 l 149 369 l 158 374 l 171 385 l 183 394 l 192 406 l 201 418 l 203 428 l 203 431 l 196 424 l 179 411 l 158 399 l 135 389 l 114 389 l 89 389 l 71 393 l 79 421 l 92 417 l 114 417 l 129 417 l 147 424 l 149 425 l 147 425 l 131 428 l 97 432 l 79 442 l 53 457 l 46 475 l 71 486 l 75 476 l 93 467 l 106 460 l 133 456 l 150 453 l 169 453 l 178 458 l 190 469 l 204 481 l 210 474 l 210 492 l 225 492 l 251 492 l 278 492 l 315 494 l 342 500 l 375 510 l 413 521 l 444 533 l 447 533 l 467 543 l 510 556 l 526 563 l 536 567 l 558 588 l 588 613 l 606 646 l 622 671 l 625 697 l 624 726 l 618 740 l 613 760 l 606 776 l 592 797 l 585 813 l 569 831 l 551 844 l 532 863 l 514 874 l 485 886 l 465 900 l 439 907 l 417 911 l 390 914 l 367 914 l 340 914 l 318 914 l 294 914 l 279 914 l 260 914 l 239 914 l 224 911 l 218 911 l 215 889 l 211 857 l 204 814 l 197 771 l 189 725 l 178 679 l 172 643 l 167 619 l 167 596 l 165 571 l 165 551 l 167 540 l 172 526 l 163 522 l 182 522 l 193 521 l 201 529 l 206 540 l 231 532 l 224 513 l 201 496 l 182 494 l 163 494 l 138 494 l 118 497 l 94 503 l 79 506 l 61 510 l 67 538 l 75 535 l 75 556 l 75 590 l 75 636 l 75 685 l 75 740 l 75 804 l 75 854 l 76 897 l 76 928 l 76 951 l 104 951 l 104 928 l 104 897 l 103 854 l 103 804 l 103 740 l 103 685 l 103 636 l 103 590 l 103 556 l 103 529 l 119 525 l 119 542 l 119 571 l 119 606 l 122 653 l 129 699 l 131 756 l 138 815 l 142 865 l 144 911 l 146 938 l 150 965 l 178 960 l 174 935 l 189 939 l 196 939 l 199 954 l 200 954 l 193 975 l 211 982 l 231 985 l 256 989 l 286 992 l 317 992 l 351 992 l 388 992 l 422 992 l 458 989 l 493 986 l 529 982 l 560 976 l 593 961 l 622 946 l 650 931 l 672 919 l 699 900 l 713 886 l 733 869 l 750 851 l 761 835 l 771 819 l 782 796 l 782 779 l 783 763 l 783 746 l 778 721 l 765 696 l 740 668 l 718 644 l 689 624 l 661 601 l 628 579 l 596 558 l 588 556 l 581 550 l 551 528 l 519 511 l 503 500 l 550 500 l 596 500 l 642 496 l 686 478 l 724 447 l 750 421 l 771 389 l 789 353 l 801 314 l 806 274 l 806 228 l 789 175 l 771 128 l 736 86 l 699 58 l 664 40 l 621 31 l 572 19 l 518 8 l 475 1 l 431 -8 l 424 -8 l 415 -12 l 365 -29 l 322 -46 l 289 -54 l 264 -58 l 240 -58 l 219 -57 l 200 -39 l 219 -19 l 231 -32 l 240 -31 l 261 -31 l 283 -26 l 314 -18 l 335 -11 l 313 -11 l 286 -11 l 263 -11 l 246 -11 l 224 -6 l 208 4 l 215 13 l 208 28 l 200 46 l 196 67 l 192 93 l 183 126 l 185 108 l 189 81 l 189 57 l 193 36 l 197 14 l 200 -1 l 172 -7 l 169 8 l 165 31 l 161 54 l 161 78 l 157 106 l 154 143 l 150 186 l 144 232 l 142 271 l 139 308 l 139 331 l 139 333 l 139 336 l 124 336 l 106 336 l 96 342 l 96 326 l 96 292 l 96 254 l 97 214 l 97 179 l 97 138 l 97 104 l 97 76 l 97 53 l 97 31 l 97 14 l 106 -3 l 81 -14 l 69 8 l 69 31 l 69 53 l 69 76 l 69 104 l 69 138 l 69 179 l 69 214 l 68 254 l 68 292 l 68 326 l 68 346 l 68 351 l 58 356 m 99 328 l 126 328 l 128 300 l 131 275 l 135 236 l 138 192 l 138 150 l 138 110 l 138 79 l 139 51 l 142 35 l 142 19 l 154 4 l 132 -12 l 117 11 l 114 32 l 111 49 l 110 79 l 110 110 l 110 150 l 110 192 l 107 233 l 103 272 l 100 297 l 99 328 m 228 54 l 228 60 l 226 60 l 228 54 m 182 146 l 181 167 l 182 146 z "},"C":{"ha":1017,"x_min":19,"x_max":879,"o":"m 817 268 l 815 256 l 794 229 l 782 217 l 767 203 l 746 185 l 724 169 l 704 147 l 671 119 l 638 85 l 600 68 l 563 56 l 522 56 l 481 56 l 444 58 l 406 61 l 372 65 l 333 76 l 301 88 l 269 99 l 240 117 l 210 135 l 183 160 l 158 182 l 136 210 l 121 226 l 117 232 l 126 215 l 131 207 l 140 193 l 158 169 l 172 154 l 189 136 l 211 118 l 239 104 l 269 89 l 299 72 l 325 60 l 336 58 l 371 49 l 394 44 l 429 36 l 451 32 l 474 28 l 496 25 l 522 24 l 542 21 l 550 21 l 571 24 l 599 28 l 629 39 l 654 53 l 683 71 l 706 88 l 731 103 l 735 104 l 736 106 l 757 128 l 781 156 l 796 186 l 810 219 l 818 238 l 821 253 l 825 264 l 817 268 m 106 254 l 118 261 l 117 269 l 101 261 l 103 258 l 106 254 m 847 728 l 819 731 l 821 744 l 821 763 l 815 789 l 807 804 l 800 819 l 793 832 l 778 849 l 767 863 l 756 879 l 740 892 l 722 906 l 701 917 l 681 928 l 660 939 l 638 946 l 615 953 l 589 958 l 564 958 l 538 958 l 510 961 l 481 961 l 453 958 l 417 953 l 393 946 l 361 931 l 336 918 l 313 899 l 290 871 l 260 836 l 239 806 l 218 775 l 199 738 l 181 704 l 165 668 l 153 628 l 142 588 l 138 553 l 135 526 l 135 496 l 138 467 l 110 464 l 107 496 l 107 526 l 110 556 l 114 593 l 125 636 l 140 679 l 156 715 l 174 751 l 193 789 l 217 822 l 238 853 l 268 888 l 293 918 l 314 935 l 299 928 l 272 913 l 247 893 l 232 876 l 213 854 l 197 839 l 182 818 l 168 793 l 157 764 l 144 732 l 135 700 l 126 667 l 118 642 l 111 614 l 104 588 l 103 560 l 100 535 l 100 517 l 100 496 l 100 478 l 103 464 l 75 458 l 72 475 l 72 496 l 72 517 l 72 538 l 75 563 l 76 590 l 83 619 l 90 650 l 99 675 l 107 708 l 119 740 l 132 775 l 143 804 l 160 832 l 175 856 l 193 874 l 213 896 l 228 913 l 256 935 l 285 953 l 315 965 l 347 981 l 372 990 l 406 1001 l 439 1011 l 468 1017 l 497 1021 l 526 1021 l 557 1021 l 583 1021 l 606 1021 l 632 1017 l 656 1015 l 676 1008 l 696 1004 l 717 996 l 733 988 l 753 975 l 772 963 l 786 950 l 799 938 l 814 922 l 831 903 l 843 882 l 858 856 l 871 828 l 875 804 l 879 779 l 879 749 l 875 726 l 847 732 l 847 728 m 28 444 l 42 469 l 63 456 l 90 453 l 110 453 l 122 453 l 135 457 l 139 457 l 139 461 l 142 493 l 142 525 l 146 553 l 153 585 l 164 617 l 174 644 l 186 681 l 204 715 l 222 747 l 242 775 l 264 801 l 281 822 l 303 843 l 329 865 l 353 882 l 381 901 l 404 911 l 431 922 l 460 924 l 483 924 l 514 924 l 535 924 l 557 924 l 579 922 l 607 915 l 629 911 l 654 901 l 675 890 l 694 878 l 711 867 l 729 854 l 743 839 l 761 819 l 779 797 l 793 778 l 801 754 l 810 732 l 810 715 l 810 701 l 782 701 l 782 715 l 782 726 l 776 746 l 768 764 l 757 781 l 739 800 l 724 819 l 710 832 l 694 844 l 681 856 l 661 865 l 643 876 l 621 883 l 601 888 l 574 894 l 557 896 l 535 896 l 514 896 l 483 896 l 460 896 l 436 894 l 415 886 l 394 876 l 369 860 l 346 843 l 322 824 l 300 803 l 286 785 l 264 758 l 244 733 l 229 701 l 211 669 l 199 636 l 192 608 l 181 576 l 174 547 l 169 522 l 169 493 l 167 461 l 167 432 l 150 432 l 143 429 l 125 425 l 110 425 l 88 425 l 54 431 l 28 444 m 53 247 l 58 275 l 68 272 l 88 285 l 100 292 l 108 301 l 115 308 l 101 304 l 71 299 l 53 297 l 50 325 l 68 326 l 96 332 l 114 336 l 126 343 l 143 353 l 156 369 l 164 381 l 169 389 l 154 379 l 135 371 l 118 371 l 100 371 l 82 374 l 67 375 l 40 382 l 19 383 l 22 411 l 46 410 l 72 403 l 85 401 l 103 399 l 118 399 l 129 399 l 140 404 l 165 418 l 178 428 l 194 406 l 190 403 l 204 399 l 199 383 l 186 364 l 178 353 l 174 347 l 176 346 l 164 326 l 154 311 l 139 293 l 128 282 l 126 281 l 142 283 l 146 260 l 154 249 l 176 229 l 200 214 l 229 196 l 261 181 l 294 168 l 335 163 l 378 158 l 422 156 l 461 153 l 503 153 l 539 156 l 574 167 l 606 183 l 636 208 l 663 236 l 686 258 l 707 276 l 725 290 l 736 301 l 746 313 l 756 325 l 758 340 l 763 363 l 763 376 l 790 376 l 790 360 l 786 335 l 781 314 l 768 296 l 756 282 l 744 271 l 724 254 l 706 239 l 682 217 l 656 189 l 622 161 l 585 142 l 544 128 l 503 125 l 461 125 l 419 128 l 375 131 l 332 135 l 289 140 l 250 156 l 215 171 l 203 179 l 226 157 l 254 142 l 281 124 l 310 113 l 342 104 l 378 93 l 408 89 l 447 86 l 481 83 l 522 83 l 557 83 l 589 93 l 621 107 l 651 139 l 685 167 l 704 189 l 729 207 l 747 225 l 763 236 l 775 249 l 790 267 l 792 288 l 781 299 l 803 315 l 815 299 l 815 300 l 850 275 l 849 247 l 843 229 l 835 208 l 821 175 l 803 142 l 796 132 l 808 119 l 793 104 l 776 94 l 761 86 l 750 81 l 729 63 l 703 39 l 678 22 l 650 3 l 621 -7 l 590 -8 l 568 -8 l 551 -7 l 546 -8 l 515 -8 l 486 -8 l 460 -7 l 431 0 l 401 7 l 374 15 l 347 21 l 319 32 l 317 33 l 304 35 l 279 44 l 254 53 l 232 64 l 211 72 l 190 89 l 169 108 l 153 126 l 139 144 l 122 161 l 111 185 l 107 192 l 101 200 l 93 215 l 78 247 l 74 244 l 53 247 m 847 732 l 851 751 l 851 776 l 847 799 l 843 819 l 833 842 l 818 868 l 808 886 l 794 903 l 779 918 l 767 931 l 756 940 l 739 953 l 719 963 l 706 971 l 688 976 l 668 981 l 650 988 l 629 989 l 603 993 l 583 993 l 557 993 l 526 993 l 500 993 l 474 989 l 481 989 l 510 989 l 538 986 l 564 986 l 592 986 l 621 981 l 646 974 l 671 964 l 694 953 l 715 942 l 736 928 l 757 914 l 775 899 l 789 879 l 800 868 l 815 849 l 825 831 l 832 815 l 840 797 l 849 765 l 849 744 l 847 732 z "},"D":{"ha":982,"x_min":58,"x_max":844,"o":"m 651 815 l 626 833 l 603 853 l 578 865 l 549 876 l 521 885 l 488 894 l 457 903 l 424 907 l 396 907 l 368 907 l 343 904 l 324 904 l 304 899 l 286 896 l 268 890 l 264 901 l 263 889 l 261 878 l 282 881 l 303 881 l 325 881 l 356 881 l 382 881 l 413 878 l 453 874 l 486 868 l 525 861 l 560 850 l 594 839 l 632 826 l 651 815 m 275 117 l 264 132 l 258 124 l 249 110 l 246 106 l 265 113 l 275 117 m 524 914 l 494 926 l 460 933 l 418 938 l 388 938 l 360 938 l 343 932 l 365 935 l 396 935 l 426 935 l 463 931 l 496 922 l 524 914 m 789 621 l 788 625 l 790 597 l 792 561 l 792 519 l 790 479 l 779 433 l 761 390 l 736 347 l 714 310 l 685 275 l 656 243 l 653 242 l 653 240 l 617 199 l 581 165 l 542 138 l 504 122 l 539 132 l 578 153 l 614 179 l 651 208 l 686 243 l 713 276 l 738 314 l 760 353 l 769 389 l 785 438 l 793 490 l 793 536 l 793 582 l 789 621 m 276 88 l 267 83 l 301 86 l 346 90 l 388 99 l 439 108 l 472 114 l 450 111 l 403 106 l 367 104 l 332 104 l 321 104 l 293 94 l 276 88 m 251 83 l 244 103 l 236 90 l 229 82 l 233 82 l 251 83 m 519 97 l 497 90 l 444 81 l 393 71 l 349 63 l 304 58 l 269 56 l 233 54 l 208 54 l 203 54 l 203 53 l 182 38 l 178 36 l 183 36 l 214 36 l 247 36 l 282 36 l 311 36 l 343 40 l 376 44 l 417 54 l 451 65 l 493 82 l 519 97 m 793 356 l 794 371 l 794 375 l 785 342 l 763 300 l 735 260 l 706 224 l 671 189 l 631 157 l 611 143 l 617 146 l 654 158 l 696 176 l 721 199 l 742 229 l 760 263 l 775 301 l 786 335 l 793 356 m 765 778 l 764 779 l 739 819 l 706 849 l 665 871 l 624 897 l 586 911 l 621 889 l 657 865 l 693 835 l 724 803 l 753 768 l 771 736 l 783 715 l 771 763 l 765 778 m 69 208 l 78 236 l 92 232 l 106 229 l 124 228 l 140 228 l 163 228 l 176 228 l 192 233 l 197 246 l 222 232 l 211 214 l 182 200 l 163 200 l 140 200 l 124 200 l 103 201 l 86 204 l 69 208 m 58 150 l 67 178 l 83 172 l 96 163 l 118 160 l 139 158 l 154 158 l 169 163 l 182 171 l 192 179 l 204 193 l 224 174 l 211 160 l 199 149 l 181 138 l 157 131 l 139 131 l 115 132 l 85 138 l 72 147 l 58 150 m 325 969 l 317 997 l 350 1007 l 389 1011 l 433 1011 l 482 1008 l 542 997 l 596 975 l 649 943 l 700 908 l 743 869 l 776 824 l 790 790 l 813 744 l 829 693 l 840 643 l 844 597 l 844 550 l 844 496 l 838 436 l 829 379 l 821 351 l 817 310 l 810 263 l 799 219 l 785 186 l 767 147 l 738 110 l 704 74 l 663 47 l 614 31 l 564 15 l 507 -3 l 446 -26 l 392 -46 l 333 -58 l 272 -61 l 213 -61 l 174 -54 l 146 -53 l 125 -46 l 107 -21 l 129 -4 l 142 -24 l 151 -25 l 176 -26 l 215 -33 l 272 -33 l 331 -31 l 383 -18 l 438 -1 l 499 22 l 556 43 l 606 58 l 651 72 l 688 96 l 715 126 l 742 161 l 760 197 l 767 215 l 740 179 l 710 154 l 665 133 l 628 121 l 582 99 l 551 83 l 504 57 l 460 40 l 425 26 l 382 17 l 346 13 l 314 8 l 282 8 l 247 8 l 214 8 l 183 8 l 153 11 l 131 19 l 114 17 l 94 15 l 92 43 l 100 43 l 93 63 l 118 74 l 125 54 l 132 50 l 151 57 l 168 63 l 168 82 l 186 82 l 192 82 l 199 89 l 214 107 l 226 126 l 236 138 l 236 139 l 224 128 l 206 111 l 182 94 l 156 82 l 132 78 l 107 71 l 90 71 l 69 71 l 69 99 l 90 99 l 104 99 l 126 106 l 147 110 l 168 119 l 189 133 l 204 147 l 219 161 l 240 176 l 257 154 l 254 151 l 269 144 l 269 143 l 282 153 l 294 133 l 308 132 l 315 132 l 338 143 l 375 147 l 408 153 l 451 156 l 488 164 l 528 181 l 564 203 l 601 233 l 633 260 l 663 297 l 690 338 l 714 382 l 731 418 l 743 453 l 743 489 l 743 531 l 743 571 l 739 611 l 732 646 l 722 676 l 707 710 l 690 740 l 674 765 l 646 786 l 621 801 l 586 811 l 551 822 l 519 833 l 481 840 l 450 846 l 410 850 l 382 853 l 356 853 l 325 853 l 303 853 l 285 853 l 265 850 l 256 849 l 251 836 l 246 810 l 235 778 l 226 738 l 221 711 l 219 700 l 211 638 l 200 582 l 192 533 l 188 490 l 178 443 l 176 439 l 176 419 l 176 369 l 176 326 l 178 293 l 178 272 l 178 254 l 178 229 l 150 229 l 150 235 l 126 235 l 126 239 l 110 239 l 110 253 l 107 272 l 107 276 l 99 276 l 99 290 l 96 306 l 94 325 l 92 346 l 92 374 l 90 403 l 88 439 l 88 472 l 88 513 l 85 561 l 85 606 l 85 654 l 85 700 l 85 751 l 85 801 l 85 847 l 88 893 l 88 921 l 88 956 l 115 956 l 115 921 l 115 893 l 113 847 l 113 801 l 113 751 l 113 700 l 113 654 l 113 606 l 113 561 l 115 513 l 115 507 l 119 536 l 126 590 l 133 647 l 139 710 l 142 771 l 142 821 l 142 868 l 139 904 l 135 931 l 131 961 l 158 964 l 163 933 l 167 907 l 169 868 l 169 821 l 169 771 l 167 707 l 161 644 l 154 588 l 147 533 l 142 494 l 139 460 l 138 429 l 135 396 l 132 368 l 132 350 l 138 375 l 142 407 l 149 443 l 150 488 l 160 544 l 165 588 l 174 638 l 188 689 l 193 715 l 199 764 l 204 821 l 208 879 l 214 919 l 215 944 l 214 972 l 242 972 l 243 949 l 247 965 l 254 979 l 279 965 l 272 954 l 269 940 l 267 918 l 281 924 l 299 926 l 308 929 l 307 935 l 293 933 l 290 961 l 321 965 l 351 967 l 383 967 l 429 967 l 478 965 l 533 957 l 583 942 l 622 928 l 585 950 l 533 969 l 479 981 l 433 983 l 392 983 l 356 979 l 325 969 z "},"E":{"ha":990,"x_min":71,"x_max":851,"o":"m 224 850 l 219 835 l 207 786 l 196 733 l 188 688 l 178 646 l 176 614 l 174 592 l 174 576 l 174 567 l 176 568 l 185 571 l 185 572 l 189 592 l 192 618 l 199 649 l 203 679 l 207 717 l 215 761 l 219 811 l 224 850 m 206 114 l 204 136 l 200 186 l 196 232 l 194 274 l 188 296 l 189 285 l 189 233 l 192 181 l 193 125 l 193 119 l 206 114 m 282 906 l 264 904 l 261 904 l 261 896 l 257 878 l 271 878 l 306 878 l 357 874 l 407 868 l 469 861 l 531 858 l 588 858 l 643 861 l 700 869 l 719 872 l 676 875 l 626 875 l 575 879 l 525 881 l 476 881 l 433 881 l 390 881 l 349 881 l 321 881 l 297 881 l 282 881 l 282 906 m 517 64 l 483 63 l 439 61 l 396 56 l 351 51 l 314 51 l 282 51 l 253 51 l 242 51 l 244 40 l 251 40 l 285 43 l 329 44 l 375 47 l 421 54 l 479 60 l 517 64 m 75 393 l 81 421 l 99 417 l 113 417 l 149 414 l 174 425 l 203 436 l 224 446 l 228 468 l 247 464 l 242 485 l 226 482 l 211 474 l 188 464 l 169 453 l 136 438 l 111 438 l 88 440 l 90 468 l 114 465 l 131 465 l 156 478 l 169 485 l 150 482 l 124 482 l 107 482 l 83 486 l 89 514 l 110 510 l 124 510 l 147 510 l 172 514 l 193 521 l 222 533 l 239 535 l 244 538 l 244 561 l 260 561 l 275 561 l 301 564 l 343 568 l 386 569 l 429 575 l 476 575 l 524 579 l 569 581 l 611 583 l 647 583 l 671 581 l 685 579 l 682 551 l 668 553 l 644 556 l 611 556 l 569 553 l 526 551 l 476 547 l 432 547 l 389 542 l 346 540 l 304 536 l 288 535 l 271 519 l 247 508 l 257 496 l 254 493 l 268 497 l 268 513 l 296 513 l 296 504 l 303 506 l 346 510 l 388 511 l 429 511 l 471 514 l 515 514 l 564 514 l 597 515 l 638 518 l 668 522 l 693 522 l 717 525 l 719 497 l 696 494 l 671 494 l 640 490 l 600 488 l 564 486 l 515 486 l 471 486 l 429 483 l 388 483 l 349 482 l 308 478 l 289 474 l 288 469 l 282 461 l 306 460 l 344 460 l 383 460 l 429 460 l 471 464 l 519 468 l 565 471 l 611 471 l 646 471 l 683 471 l 708 471 l 708 443 l 683 443 l 646 443 l 611 443 l 565 443 l 522 440 l 474 436 l 429 432 l 383 432 l 344 432 l 306 432 l 278 433 l 256 435 l 240 422 l 214 411 l 185 400 l 167 392 l 181 392 l 181 390 l 200 393 l 204 361 l 208 342 l 213 311 l 222 279 l 224 235 l 228 189 l 232 139 l 233 110 l 243 110 l 275 110 l 322 110 l 367 113 l 425 121 l 479 125 l 533 132 l 594 132 l 650 136 l 696 136 l 739 136 l 768 136 l 768 108 l 739 108 l 696 108 l 650 108 l 594 104 l 536 104 l 482 97 l 428 93 l 369 85 l 322 82 l 275 82 l 243 82 l 236 82 l 238 79 l 253 79 l 282 79 l 314 79 l 351 79 l 393 83 l 436 89 l 483 90 l 529 93 l 575 94 l 618 94 l 661 94 l 694 93 l 694 79 l 696 79 l 743 79 l 782 79 l 807 74 l 801 46 l 779 51 l 743 51 l 696 51 l 651 50 l 593 46 l 536 39 l 482 32 l 424 26 l 378 19 l 329 17 l 288 15 l 254 13 l 250 13 l 251 3 l 256 -8 l 265 -18 l 292 -21 l 333 -21 l 374 -21 l 415 -15 l 460 -11 l 506 -6 l 556 -3 l 601 4 l 647 8 l 686 13 l 719 14 l 746 14 l 765 14 l 781 14 l 796 14 l 796 -14 l 781 -14 l 765 -14 l 746 -14 l 719 -14 l 689 -15 l 650 -19 l 604 -24 l 558 -31 l 508 -33 l 463 -39 l 418 -43 l 376 -49 l 333 -49 l 292 -49 l 258 -46 l 229 -43 l 207 -43 l 201 -42 l 186 -53 l 174 -33 l 168 -6 l 165 19 l 165 49 l 165 79 l 165 125 l 164 181 l 161 233 l 161 285 l 157 326 l 154 360 l 153 386 l 113 389 l 96 389 l 75 393 m 85 972 l 113 972 l 113 943 l 113 918 l 113 886 l 113 840 l 113 797 l 115 753 l 118 710 l 119 672 l 124 647 l 126 618 l 128 597 l 131 585 l 103 579 l 100 594 l 99 615 l 96 644 l 92 669 l 90 707 l 88 750 l 85 797 l 85 840 l 85 886 l 85 918 l 85 943 l 85 972 m 88 363 l 115 363 l 115 346 l 115 322 l 115 299 l 115 264 l 115 224 l 115 193 l 111 164 l 108 133 l 104 106 l 104 76 l 103 60 l 103 46 l 104 29 l 104 14 l 76 14 l 76 29 l 75 46 l 75 60 l 76 76 l 76 108 l 81 136 l 83 167 l 88 196 l 88 224 l 88 264 l 88 299 l 88 322 l 88 346 l 88 363 m 119 382 l 147 382 l 147 350 l 147 308 l 147 258 l 147 196 l 147 142 l 147 103 l 150 68 l 150 38 l 150 14 l 150 -1 l 150 -19 l 122 -19 l 122 -1 l 122 14 l 122 38 l 122 68 l 119 103 l 119 142 l 119 196 l 119 258 l 119 308 l 119 350 l 119 382 m 306 939 l 306 967 l 326 967 l 356 967 l 383 967 l 421 967 l 471 967 l 515 967 l 565 967 l 614 967 l 660 969 l 704 972 l 742 972 l 774 974 l 796 974 l 811 974 l 811 946 l 796 946 l 774 946 l 742 944 l 704 944 l 663 942 l 614 939 l 565 939 l 561 939 l 561 938 l 510 938 l 463 935 l 410 926 l 364 918 l 325 910 l 307 908 l 321 908 l 349 908 l 390 908 l 433 908 l 476 908 l 525 908 l 578 907 l 626 903 l 676 903 l 724 900 l 769 900 l 803 900 l 828 903 l 843 907 l 851 882 l 833 875 l 803 872 l 796 872 l 797 850 l 774 849 l 744 849 l 706 842 l 646 833 l 588 831 l 531 831 l 467 833 l 404 840 l 354 846 l 306 850 l 271 850 l 251 850 l 247 808 l 243 758 l 235 714 l 231 676 l 226 643 l 219 613 l 217 586 l 215 581 l 222 583 l 242 594 l 256 569 l 233 558 l 207 549 l 182 540 l 157 536 l 128 536 l 108 536 l 93 536 l 71 536 l 71 564 l 93 564 l 108 564 l 128 564 l 146 564 l 146 576 l 146 578 l 135 578 l 135 600 l 138 629 l 139 658 l 139 700 l 142 744 l 146 806 l 150 856 l 150 901 l 153 946 l 154 974 l 157 989 l 185 983 l 182 971 l 181 943 l 178 901 l 178 856 l 174 803 l 169 744 l 179 792 l 192 843 l 203 881 l 207 914 l 208 953 l 207 976 l 235 979 l 236 957 l 243 972 l 268 961 l 263 950 l 263 932 l 264 932 l 290 935 l 319 938 l 326 939 l 306 939 m 222 8 l 214 35 l 217 35 l 214 47 l 208 83 l 193 90 l 193 79 l 193 49 l 193 22 l 196 -3 l 197 -12 l 210 -15 l 229 -15 l 224 -6 l 222 8 z "},"F":{"ha":907,"x_min":72,"x_max":769,"o":"m 163 617 l 150 617 l 149 607 l 157 607 l 158 606 l 163 615 l 163 617 m 182 379 l 181 390 l 179 408 l 178 408 l 178 397 l 182 379 m 340 471 l 367 472 l 333 472 l 303 472 l 286 471 l 283 468 l 301 468 l 340 471 m 113 378 l 138 392 l 146 376 l 147 353 l 157 318 l 158 278 l 163 232 l 165 179 l 167 125 l 169 79 l 169 49 l 169 29 l 169 15 l 142 15 l 142 29 l 142 49 l 142 79 l 139 125 l 138 179 l 135 229 l 131 275 l 129 313 l 119 347 l 118 368 l 113 378 m 229 850 l 229 878 l 239 878 l 243 900 l 249 936 l 253 957 l 253 972 l 278 972 l 283 976 l 303 976 l 318 976 l 349 976 l 376 976 l 410 976 l 451 976 l 483 976 l 528 974 l 567 967 l 606 963 l 639 961 l 674 958 l 703 957 l 729 957 l 744 957 l 761 963 l 769 935 l 747 929 l 729 929 l 703 929 l 671 931 l 636 933 l 603 935 l 564 939 l 525 946 l 483 949 l 451 949 l 410 949 l 376 949 l 349 949 l 318 949 l 303 949 l 292 949 l 279 940 l 278 940 l 276 931 l 271 894 l 267 878 l 272 878 l 299 876 l 324 874 l 357 869 l 393 868 l 424 863 l 465 858 l 504 857 l 538 853 l 568 847 l 596 843 l 618 843 l 636 843 l 657 850 l 665 822 l 642 815 l 618 815 l 593 815 l 563 819 l 532 825 l 501 829 l 463 831 l 421 835 l 390 840 l 354 842 l 321 846 l 296 849 l 272 850 l 261 850 l 251 810 l 236 756 l 221 704 l 201 663 l 196 632 l 188 607 l 185 597 l 188 596 l 203 596 l 221 594 l 238 594 l 254 596 l 257 568 l 244 567 l 247 560 l 253 560 l 282 560 l 313 560 l 354 561 l 394 564 l 439 569 l 479 572 l 518 572 l 544 572 l 572 572 l 592 572 l 610 572 l 625 572 l 625 544 l 610 544 l 592 544 l 572 544 l 544 544 l 518 544 l 479 544 l 442 542 l 397 536 l 357 533 l 313 532 l 282 532 l 253 532 l 243 532 l 257 513 l 243 503 l 226 494 l 242 496 l 268 499 l 269 506 l 290 500 l 303 500 l 333 500 l 367 500 l 403 500 l 436 503 l 478 510 l 519 511 l 554 518 l 583 522 l 614 522 l 629 522 l 629 494 l 614 494 l 586 494 l 560 490 l 522 483 l 481 482 l 439 475 l 410 472 l 457 475 l 499 476 l 539 479 l 575 481 l 608 483 l 636 486 l 653 488 l 667 490 l 672 463 l 656 460 l 639 458 l 611 456 l 578 453 l 542 451 l 499 449 l 457 447 l 410 444 l 378 444 l 415 442 l 449 440 l 483 440 l 521 440 l 556 440 l 585 440 l 613 442 l 632 444 l 649 444 l 649 417 l 635 417 l 615 414 l 585 413 l 556 413 l 521 413 l 483 413 l 449 413 l 413 414 l 375 417 l 346 421 l 319 421 l 290 428 l 269 429 l 246 432 l 240 433 l 222 425 l 207 418 l 208 393 l 211 360 l 222 315 l 232 260 l 242 203 l 251 149 l 258 110 l 263 76 l 265 56 l 269 42 l 242 33 l 238 50 l 235 74 l 231 104 l 224 143 l 214 197 l 204 254 l 194 310 l 188 339 l 189 328 l 193 285 l 200 235 l 204 182 l 208 139 l 211 106 l 215 75 l 221 53 l 229 31 l 235 15 l 210 7 l 204 22 l 196 44 l 188 69 l 183 103 l 181 136 l 176 179 l 172 232 l 165 282 l 161 325 l 157 360 l 150 394 l 150 400 l 146 399 l 115 394 l 110 394 l 111 383 l 115 339 l 115 292 l 119 240 l 124 189 l 126 142 l 126 111 l 126 85 l 126 57 l 126 29 l 126 -1 l 128 -29 l 128 -43 l 100 -43 l 100 -29 l 99 -1 l 99 29 l 99 57 l 99 85 l 99 111 l 99 142 l 96 186 l 92 238 l 88 292 l 88 339 l 83 381 l 82 393 l 75 393 l 72 421 l 78 421 l 76 438 l 104 440 l 106 422 l 113 422 l 140 426 l 150 429 l 150 432 l 160 432 l 163 433 l 189 440 l 211 450 l 218 453 l 218 465 l 200 463 l 197 479 l 192 475 l 176 464 l 153 458 l 133 458 l 115 460 l 94 467 l 79 471 l 88 499 l 103 494 l 121 488 l 133 486 l 150 486 l 165 489 l 175 497 l 190 508 l 208 517 l 229 528 l 236 532 l 235 532 l 215 536 l 193 529 l 165 525 l 139 525 l 117 525 l 101 528 l 86 532 l 94 560 l 107 556 l 119 553 l 139 553 l 163 553 l 188 557 l 210 564 l 221 567 l 203 568 l 185 568 l 179 569 l 154 569 l 154 578 l 149 579 l 129 582 l 111 592 l 115 601 l 110 601 l 110 615 l 110 639 l 110 667 l 107 707 l 103 750 l 99 800 l 90 847 l 85 896 l 83 936 l 83 958 l 81 978 l 108 981 l 111 961 l 111 936 l 113 899 l 118 850 l 126 803 l 131 757 l 131 774 l 133 835 l 139 894 l 142 938 l 142 964 l 144 982 l 172 976 l 169 961 l 169 938 l 167 892 l 161 832 l 158 774 l 157 715 l 154 665 l 160 699 l 165 742 l 172 799 l 176 856 l 183 900 l 183 936 l 183 963 l 185 983 l 213 981 l 211 963 l 211 936 l 211 897 l 204 853 l 200 796 l 193 739 l 188 699 l 196 715 l 208 764 l 224 818 l 233 850 l 229 850 m 283 888 l 283 915 l 304 915 l 319 913 l 344 913 l 383 911 l 411 908 l 453 907 l 486 907 l 533 907 l 568 907 l 600 904 l 632 900 l 653 896 l 671 892 l 685 892 l 703 892 l 703 864 l 685 864 l 668 864 l 647 868 l 626 872 l 597 876 l 568 879 l 533 879 l 486 879 l 453 879 l 408 881 l 381 883 l 344 885 l 317 885 l 301 888 l 283 888 z "},"G":{"ha":1139,"x_min":33,"x_max":1000,"o":"m 907 215 l 903 229 l 903 225 l 907 215 m 660 140 l 658 139 l 660 140 m 761 814 l 750 822 l 735 832 l 721 839 l 706 846 l 685 854 l 663 860 l 636 864 l 611 869 l 582 875 l 556 875 l 525 875 l 492 875 l 458 875 l 426 864 l 392 856 l 363 842 l 333 825 l 304 801 l 276 775 l 242 742 l 213 711 l 186 681 l 165 649 l 144 611 l 129 576 l 118 539 l 108 501 l 103 464 l 100 435 l 100 401 l 104 365 l 114 336 l 126 306 l 143 278 l 164 251 l 172 240 l 169 249 l 157 283 l 149 324 l 142 367 l 142 407 l 142 450 l 146 493 l 154 539 l 164 581 l 185 629 l 208 674 l 233 717 l 268 757 l 300 789 l 333 813 l 371 832 l 406 849 l 449 861 l 479 868 l 521 868 l 553 868 l 582 868 l 617 863 l 643 857 l 669 846 l 697 838 l 721 826 l 742 813 l 760 796 l 775 778 l 774 790 l 768 803 l 761 814 m 717 165 l 739 183 l 754 203 l 764 219 l 771 239 l 776 254 l 796 246 l 794 251 l 794 254 l 788 254 l 763 265 l 757 268 l 750 253 l 749 250 l 749 246 l 739 225 l 736 210 l 726 186 l 717 165 m 783 199 l 803 190 l 801 207 l 797 232 l 796 231 l 789 208 l 783 199 m 507 6 l 514 6 l 554 10 l 592 17 l 628 31 l 663 46 l 692 63 l 718 79 l 738 100 l 753 118 l 764 139 l 771 154 l 774 167 l 774 183 l 758 164 l 733 142 l 707 119 l 678 99 l 642 76 l 607 53 l 567 29 l 531 14 l 507 6 m 696 913 l 703 908 l 728 889 l 751 865 l 768 850 l 782 833 l 785 831 l 776 844 l 765 865 l 754 879 l 738 890 l 728 897 l 713 906 l 696 913 m 694 914 l 676 929 l 661 940 l 642 956 l 631 963 l 613 974 l 583 983 l 567 988 l 556 989 l 535 989 l 514 989 l 494 989 l 472 989 l 453 985 l 422 983 l 399 979 l 364 971 l 340 960 l 311 942 l 283 922 l 249 899 l 218 868 l 181 835 l 154 801 l 165 814 l 204 850 l 242 875 l 275 896 l 308 914 l 347 929 l 386 942 l 425 957 l 463 965 l 489 972 l 521 976 l 551 976 l 579 974 l 610 961 l 644 944 l 672 929 l 694 914 m 75 600 l 74 574 l 74 515 l 76 474 l 81 507 l 90 547 l 104 588 l 119 622 l 140 663 l 164 697 l 193 731 l 222 761 l 257 794 l 285 824 l 317 847 l 349 867 l 383 881 l 418 892 l 453 903 l 492 903 l 525 903 l 556 903 l 585 903 l 617 897 l 642 892 l 668 888 l 693 879 l 694 879 l 686 886 l 658 904 l 631 919 l 599 936 l 574 946 l 549 949 l 524 949 l 494 944 l 468 938 l 433 929 l 394 917 l 356 904 l 319 889 l 289 871 l 256 853 l 221 828 l 185 794 l 158 763 l 129 726 l 111 696 l 94 653 l 76 607 l 75 600 m 101 229 l 96 249 l 92 260 l 94 246 l 101 229 m 344 17 l 368 14 l 396 14 l 425 17 l 453 21 l 483 28 l 519 39 l 549 51 l 540 50 l 515 46 l 481 46 l 456 47 l 428 50 l 397 51 l 368 58 l 338 67 l 313 78 l 285 92 l 257 111 l 229 128 l 207 151 l 182 176 l 163 206 l 142 235 l 121 261 l 119 264 l 121 257 l 138 210 l 156 176 l 175 136 l 201 103 l 231 71 l 235 68 l 239 65 l 264 54 l 293 38 l 319 24 l 342 17 l 344 17 m 829 714 l 801 719 l 804 736 l 804 756 l 803 760 l 803 754 l 803 740 l 792 740 l 794 721 l 794 699 l 797 679 l 769 676 l 767 696 l 767 718 l 764 746 l 753 761 l 740 776 l 725 790 l 707 801 l 686 813 l 661 821 l 635 829 l 611 835 l 579 840 l 553 840 l 521 840 l 482 840 l 454 833 l 417 824 l 382 807 l 347 790 l 319 767 l 288 738 l 256 700 l 233 660 l 210 618 l 192 572 l 182 533 l 174 490 l 169 450 l 169 407 l 169 369 l 176 329 l 185 292 l 194 257 l 206 229 l 219 207 l 239 181 l 250 163 l 267 151 l 290 139 l 313 126 l 342 114 l 368 108 l 399 97 l 424 94 l 453 90 l 476 90 l 501 90 l 528 97 l 553 103 l 582 117 l 607 129 l 629 149 l 651 169 l 674 190 l 692 211 l 708 238 l 718 250 l 722 260 l 725 276 l 728 290 l 732 289 l 732 294 l 732 308 l 732 335 l 747 335 l 753 350 l 772 344 l 793 342 l 811 342 l 832 342 l 856 351 l 879 363 l 904 372 l 919 375 l 933 382 l 944 357 l 928 350 l 913 344 l 890 338 l 867 326 l 838 314 l 811 314 l 790 314 l 767 317 l 760 319 l 760 308 l 760 297 l 774 290 l 796 282 l 810 279 l 811 279 l 817 279 l 817 276 l 824 275 l 840 275 l 851 276 l 851 278 l 857 278 l 860 278 l 874 281 l 890 289 l 906 296 l 929 306 l 946 313 l 957 288 l 940 281 l 917 271 l 901 264 l 882 256 l 878 254 l 901 254 l 901 240 l 926 247 l 938 211 l 944 183 l 951 154 l 960 125 l 964 100 l 974 83 l 981 71 l 988 60 l 1000 51 l 986 29 l 968 40 l 958 57 l 950 67 l 951 61 l 958 46 l 969 28 l 978 10 l 992 -11 l 969 -28 l 953 -4 l 944 14 l 933 35 l 926 53 l 918 82 l 910 115 l 901 146 l 892 181 l 889 185 l 890 175 l 896 142 l 901 110 l 907 78 l 914 49 l 918 32 l 919 19 l 926 11 l 904 -6 l 894 8 l 890 26 l 886 43 l 879 72 l 874 104 l 868 136 l 863 172 l 858 208 l 849 244 l 849 249 l 843 247 l 824 247 l 825 236 l 829 210 l 832 169 l 836 126 l 838 82 l 840 50 l 842 28 l 844 14 l 817 8 l 814 25 l 813 47 l 810 79 l 808 124 l 804 167 l 803 182 l 801 178 l 801 164 l 796 146 l 789 128 l 775 104 l 760 81 l 735 57 l 706 38 l 674 21 l 639 6 l 600 -11 l 557 -18 l 514 -22 l 476 -22 l 436 -22 l 394 -22 l 357 -15 l 339 -11 l 338 -11 l 336 -10 l 318 -7 l 286 6 l 250 21 l 221 43 l 203 53 l 181 64 l 158 76 l 136 103 l 115 131 l 100 164 l 85 197 l 69 238 l 53 290 l 42 343 l 35 396 l 33 439 l 33 476 l 33 517 l 35 561 l 47 604 l 49 629 l 57 682 l 78 732 l 103 771 l 129 814 l 161 854 l 199 888 l 232 921 l 267 944 l 294 964 l 326 985 l 356 996 l 393 1007 l 419 1011 l 450 1013 l 469 1017 l 494 1017 l 514 1017 l 535 1017 l 556 1017 l 572 1015 l 592 1011 l 624 999 l 644 988 l 658 978 l 678 963 l 693 951 l 710 936 l 724 931 l 742 922 l 754 913 l 774 899 l 788 882 l 801 858 l 813 839 l 821 826 l 832 800 l 839 781 l 847 767 l 832 758 l 832 733 l 829 714 m 664 590 l 672 618 l 689 613 l 713 599 l 729 593 l 751 578 l 769 565 l 785 556 l 807 543 l 825 532 l 840 524 l 856 513 l 871 510 l 865 482 l 844 488 l 826 499 l 811 507 l 793 518 l 771 531 l 753 543 l 735 556 l 715 568 l 701 574 l 678 588 l 664 590 m 551 540 l 576 529 l 603 522 l 633 514 l 664 506 l 697 499 l 733 492 l 760 488 l 790 483 l 797 482 l 793 485 l 764 496 l 740 507 l 714 517 l 681 525 l 654 533 l 628 536 l 601 540 l 581 540 l 565 540 l 551 540 m 550 540 l 550 568 l 565 568 l 581 568 l 604 568 l 631 564 l 660 561 l 689 553 l 722 544 l 751 532 l 775 521 l 804 510 l 825 499 l 842 488 l 858 476 l 874 488 l 883 497 l 903 475 l 890 465 l 883 461 l 889 458 l 888 454 l 900 446 l 888 426 l 896 433 l 908 443 l 925 421 l 913 411 l 901 401 l 885 389 l 864 375 l 835 361 l 814 356 l 794 351 l 775 351 l 756 354 l 758 382 l 778 379 l 792 379 l 808 383 l 826 386 l 850 400 l 868 411 l 885 424 l 865 436 l 861 439 l 860 440 l 854 436 l 854 432 l 850 432 l 839 424 l 821 411 l 806 396 l 775 389 l 771 413 l 769 413 l 735 408 l 694 406 l 649 406 l 604 406 l 568 406 l 535 406 l 514 406 l 492 406 l 476 406 l 476 433 l 492 433 l 514 433 l 535 433 l 568 433 l 604 433 l 649 433 l 694 433 l 732 436 l 761 439 l 756 440 l 724 443 l 693 443 l 649 449 l 618 451 l 586 453 l 560 456 l 536 458 l 519 460 l 500 463 l 506 490 l 522 488 l 539 486 l 563 483 l 589 481 l 621 479 l 651 476 l 690 471 l 658 478 l 625 486 l 594 494 l 568 504 l 546 513 l 529 514 l 511 514 l 511 542 l 529 542 l 550 540 z "},"H":{"ha":1011,"x_min":46,"x_max":872,"o":"m 281 460 l 303 457 l 335 456 l 375 453 l 414 453 l 457 453 l 496 457 l 539 468 l 581 476 l 607 483 l 576 482 l 533 482 l 494 482 l 451 482 l 417 482 l 371 482 l 333 482 l 303 482 l 278 482 l 257 482 l 244 481 l 246 475 l 265 467 l 281 460 m 528 436 l 544 436 l 576 436 l 607 438 l 631 444 l 647 449 l 665 451 l 679 457 l 694 461 l 700 440 l 724 438 l 742 438 l 758 436 l 760 460 l 740 463 l 724 463 l 706 464 l 690 468 l 692 474 l 681 472 l 657 468 l 624 458 l 586 449 l 544 440 l 528 436 m 794 257 l 794 276 l 789 318 l 790 285 l 794 257 m 204 996 l 229 985 l 224 968 l 217 940 l 211 914 l 204 875 l 197 835 l 193 788 l 192 739 l 189 692 l 185 649 l 181 614 l 176 588 l 174 575 l 178 575 l 190 576 l 203 583 l 217 558 l 199 549 l 178 547 l 172 547 l 172 543 l 144 543 l 144 547 l 119 549 l 101 553 l 88 556 l 69 557 l 72 585 l 90 583 l 101 581 l 99 597 l 92 622 l 85 664 l 76 722 l 69 783 l 61 843 l 56 897 l 50 936 l 46 971 l 74 974 l 78 939 l 83 900 l 89 846 l 97 786 l 104 725 l 110 686 l 110 706 l 110 754 l 110 804 l 110 854 l 110 899 l 110 940 l 110 964 l 110 983 l 138 983 l 138 964 l 138 940 l 138 899 l 138 854 l 138 804 l 138 754 l 138 706 l 138 665 l 138 635 l 138 615 l 138 601 l 126 601 l 131 581 l 132 576 l 144 575 l 144 586 l 144 611 l 146 635 l 146 665 l 146 706 l 146 751 l 146 799 l 144 844 l 142 889 l 142 929 l 142 960 l 142 982 l 142 999 l 169 999 l 169 982 l 169 960 l 169 929 l 169 889 l 172 851 l 176 881 l 183 919 l 189 946 l 196 976 l 204 996 m 785 1018 l 813 1010 l 806 986 l 806 957 l 801 917 l 801 882 l 801 842 l 794 800 l 790 757 l 788 714 l 779 675 l 775 647 l 771 622 l 771 604 l 771 586 l 782 590 l 801 599 l 813 574 l 793 565 l 778 558 l 749 546 l 728 536 l 708 533 l 690 533 l 671 536 l 674 561 l 672 560 l 636 549 l 597 542 l 560 540 l 518 540 l 476 540 l 433 540 l 396 540 l 351 540 l 317 540 l 289 538 l 257 536 l 239 536 l 244 526 l 232 521 l 239 514 l 232 507 l 254 510 l 278 510 l 303 510 l 333 510 l 371 510 l 417 510 l 451 510 l 494 510 l 533 510 l 576 510 l 606 511 l 636 515 l 661 522 l 678 528 l 689 503 l 685 501 l 693 501 l 696 526 l 714 525 l 739 525 l 767 526 l 782 531 l 799 533 l 815 539 l 832 544 l 847 546 l 867 550 l 872 522 l 853 518 l 838 517 l 824 514 l 807 506 l 788 503 l 769 499 l 739 497 l 733 497 l 733 490 l 743 490 l 763 488 l 790 483 l 804 483 l 817 483 l 838 490 l 846 463 l 819 456 l 804 456 l 788 456 l 786 436 l 799 436 l 811 438 l 824 444 l 838 419 l 819 410 l 814 410 l 813 392 l 813 361 l 817 321 l 822 279 l 822 233 l 825 190 l 829 154 l 833 128 l 833 101 l 840 78 l 842 57 l 844 46 l 850 26 l 825 18 l 817 38 l 814 54 l 813 72 l 806 99 l 806 125 l 801 151 l 801 139 l 801 100 l 801 75 l 801 50 l 801 33 l 774 33 l 774 50 l 774 75 l 774 100 l 774 139 l 774 188 l 769 236 l 763 282 l 760 244 l 756 194 l 753 149 l 749 108 l 749 81 l 749 50 l 747 22 l 747 3 l 719 3 l 719 22 l 721 50 l 721 81 l 721 111 l 725 151 l 728 197 l 732 247 l 735 294 l 740 340 l 743 376 l 743 407 l 758 407 l 758 408 l 742 410 l 721 410 l 722 404 l 722 376 l 721 356 l 717 331 l 714 311 l 710 282 l 708 253 l 701 211 l 694 176 l 686 142 l 682 106 l 679 68 l 675 40 l 675 18 l 675 0 l 675 -25 l 647 -25 l 647 0 l 647 18 l 647 43 l 651 71 l 654 108 l 658 147 l 667 182 l 674 217 l 681 256 l 682 285 l 686 314 l 689 336 l 693 358 l 694 376 l 694 401 l 690 413 l 694 414 l 692 414 l 678 417 l 679 426 l 671 424 l 653 421 l 639 417 l 613 410 l 576 408 l 544 408 l 507 408 l 472 408 l 431 408 l 396 410 l 363 410 l 326 418 l 299 425 l 274 433 l 272 433 l 269 433 l 242 443 l 228 444 l 217 444 l 207 433 l 200 428 l 200 422 l 200 390 l 204 353 l 213 311 l 224 267 l 235 210 l 242 165 l 247 124 l 251 90 l 258 68 l 264 46 l 271 31 l 283 21 l 267 -1 l 249 14 l 239 38 l 231 60 l 228 72 l 228 67 l 231 43 l 232 26 l 204 24 l 203 40 l 200 64 l 199 94 l 194 136 l 189 178 l 183 217 l 172 254 l 161 294 l 150 335 l 150 329 l 153 297 l 158 251 l 161 204 l 165 151 l 169 101 l 174 61 l 176 31 l 178 4 l 181 -10 l 153 -15 l 150 1 l 149 28 l 146 58 l 142 99 l 138 149 l 133 201 l 131 249 l 125 294 l 122 326 l 119 363 l 119 381 l 117 378 l 106 376 l 107 363 l 108 329 l 111 290 l 113 249 l 115 204 l 118 160 l 118 118 l 118 86 l 115 60 l 115 40 l 113 21 l 85 24 l 88 43 l 88 63 l 90 89 l 90 118 l 90 160 l 88 201 l 85 249 l 83 288 l 81 326 l 79 360 l 78 374 l 65 371 l 60 399 l 76 401 l 108 406 l 128 415 l 151 425 l 169 439 l 188 453 l 199 467 l 203 471 l 203 472 l 204 472 l 211 478 l 221 493 l 229 496 l 228 504 l 225 501 l 213 490 l 194 475 l 174 463 l 154 449 l 129 439 l 111 432 l 90 432 l 67 428 l 61 456 l 88 460 l 106 460 l 118 464 l 140 474 l 160 485 l 174 494 l 154 488 l 132 488 l 111 488 l 94 490 l 71 494 l 76 522 l 100 518 l 114 515 l 132 515 l 149 515 l 167 522 l 186 526 l 201 532 l 214 542 l 218 544 l 218 564 l 238 564 l 257 564 l 286 565 l 317 568 l 351 568 l 396 568 l 433 568 l 476 568 l 518 568 l 560 568 l 594 569 l 631 576 l 664 588 l 689 594 l 689 597 l 689 624 l 689 654 l 689 688 l 682 728 l 681 778 l 678 838 l 675 886 l 674 928 l 669 963 l 667 989 l 694 992 l 697 965 l 701 931 l 703 886 l 706 840 l 708 778 l 710 731 l 717 690 l 717 654 l 717 624 l 717 597 l 717 583 l 719 578 l 699 569 l 681 563 l 693 561 l 706 561 l 719 564 l 738 571 l 721 571 l 721 593 l 721 613 l 721 646 l 721 675 l 721 719 l 724 771 l 728 821 l 732 863 l 732 899 l 732 925 l 732 944 l 732 958 l 760 958 l 760 944 l 760 925 l 760 899 l 760 863 l 756 818 l 751 768 l 749 719 l 749 675 l 749 660 l 751 681 l 760 717 l 763 760 l 767 803 l 774 844 l 774 882 l 774 919 l 778 960 l 778 989 l 785 1018 m 833 982 l 861 976 l 856 946 l 853 908 l 844 867 l 842 824 l 833 779 l 825 735 l 822 689 l 817 649 l 814 622 l 814 604 l 786 604 l 786 625 l 789 651 l 794 692 l 797 738 l 806 785 l 814 826 l 817 869 l 825 911 l 828 949 l 833 982 z "},"I":{"ha":418,"x_min":72,"x_max":281,"o":"m 100 464 l 111 489 l 126 482 l 143 476 l 168 472 l 182 472 l 190 478 l 210 492 l 222 501 l 242 510 l 253 485 l 236 476 l 226 469 l 207 456 l 190 444 l 165 444 l 138 449 l 115 457 l 100 464 m 92 354 l 97 382 l 110 379 l 132 379 l 151 379 l 174 382 l 190 390 l 210 403 l 219 413 l 207 407 l 179 399 l 158 399 l 142 399 l 113 407 l 97 415 l 111 440 l 124 432 l 144 426 l 158 426 l 176 426 l 196 432 l 218 443 l 236 457 l 251 468 l 263 476 l 279 454 l 268 446 l 253 435 l 250 432 l 267 414 l 251 400 l 238 392 l 226 381 l 213 371 l 232 376 l 236 360 l 236 333 l 236 310 l 242 281 l 246 250 l 250 217 l 251 182 l 258 147 l 265 110 l 269 79 l 274 58 l 276 38 l 281 25 l 253 17 l 254 8 l 226 3 l 224 19 l 224 43 l 218 75 l 215 106 l 211 143 l 207 182 l 204 225 l 199 268 l 194 300 l 189 326 l 188 349 l 186 357 l 182 354 l 165 353 l 176 353 l 176 333 l 176 315 l 178 288 l 178 249 l 178 203 l 178 153 l 178 107 l 178 79 l 178 57 l 178 42 l 178 26 l 150 26 l 150 42 l 150 57 l 150 79 l 150 107 l 150 153 l 150 203 l 150 249 l 150 288 l 149 315 l 149 333 l 149 351 l 147 351 l 147 328 l 147 306 l 143 267 l 138 222 l 135 168 l 131 121 l 128 79 l 128 53 l 126 33 l 126 15 l 99 15 l 99 33 l 100 53 l 100 79 l 103 124 l 107 171 l 110 225 l 115 269 l 119 308 l 119 328 l 119 351 l 107 351 l 92 354 m 119 968 l 147 968 l 147 943 l 147 918 l 147 874 l 147 825 l 147 775 l 150 722 l 153 669 l 154 625 l 154 596 l 154 571 l 154 550 l 136 550 l 135 539 l 107 544 l 110 560 l 110 579 l 107 603 l 100 646 l 99 693 l 92 743 l 85 788 l 81 824 l 79 853 l 76 878 l 75 900 l 72 915 l 100 921 l 103 903 l 104 881 l 107 856 l 108 826 l 113 790 l 119 746 l 122 728 l 119 775 l 119 825 l 119 874 l 119 918 l 119 943 l 119 968 m 233 974 l 261 971 l 258 950 l 257 943 l 271 932 l 264 924 l 263 906 l 254 882 l 250 860 l 243 824 l 239 778 l 231 718 l 222 660 l 215 618 l 211 579 l 207 542 l 193 543 l 192 525 l 204 532 l 215 542 l 235 522 l 221 510 l 203 500 l 188 494 l 181 479 l 156 490 l 138 490 l 107 496 l 89 510 l 106 532 l 118 521 l 140 518 l 158 518 l 164 518 l 164 521 l 165 539 l 161 539 l 161 561 l 161 590 l 161 624 l 161 667 l 161 724 l 164 790 l 169 860 l 172 910 l 172 950 l 165 981 l 193 986 l 200 953 l 200 910 l 197 857 l 192 788 l 189 724 l 189 701 l 194 726 l 203 774 l 208 815 l 215 858 l 222 899 l 226 936 l 231 956 l 233 974 z "},"J":{"ha":771,"x_min":-37,"x_max":633,"o":"m 456 142 l 453 142 l 451 140 l 456 136 l 456 142 m 475 339 l 471 339 l 471 318 l 474 331 l 475 339 m 501 332 l 508 353 l 511 382 l 515 413 l 519 449 l 521 490 l 526 536 l 529 569 l 525 542 l 519 485 l 514 440 l 508 396 l 506 360 l 501 332 m 496 304 l 500 313 l 501 325 l 496 304 m 285 93 l 304 93 l 336 99 l 364 111 l 389 129 l 396 136 l 393 142 l 392 140 l 363 118 l 325 97 l 285 93 m 447 185 l 447 188 l 453 192 l 446 189 l 447 194 l 432 193 l 429 192 l 425 188 l 421 181 l 429 179 l 433 189 l 447 185 m 54 -3 l 63 25 l 83 19 l 101 13 l 128 4 l 151 -6 l 179 -7 l 208 -10 l 236 -10 l 275 -3 l 281 -1 l 263 -3 l 221 -3 l 185 -3 l 153 4 l 125 13 l 94 25 l 65 44 l 44 65 l 29 78 l 10 97 l 29 117 l 49 97 l 64 85 l 82 67 l 108 50 l 133 38 l 158 32 l 188 25 l 221 25 l 263 25 l 303 28 l 336 42 l 369 58 l 400 76 l 426 96 l 442 113 l 432 119 l 426 115 l 396 93 l 361 72 l 319 58 l 272 54 l 229 54 l 185 58 l 149 67 l 108 79 l 72 94 l 42 114 l 13 133 l -11 156 l -31 172 l -37 189 l -12 200 l -8 189 l 8 175 l 29 156 l 56 136 l 86 119 l 117 104 l 136 99 l 125 106 l 96 124 l 71 151 l 49 179 l 32 206 l 17 228 l 10 250 l 38 258 l 42 239 l 54 222 l 71 196 l 93 168 l 113 146 l 133 133 l 121 146 l 101 174 l 90 204 l 83 242 l 81 272 l 81 300 l 83 325 l 111 322 l 108 297 l 108 272 l 111 244 l 118 213 l 126 188 l 143 163 l 161 144 l 185 131 l 208 121 l 244 121 l 282 121 l 317 125 l 349 140 l 372 160 l 390 185 l 403 201 l 404 207 l 403 214 l 426 221 l 460 222 l 475 222 l 494 221 l 515 215 l 536 204 l 549 200 l 571 192 l 560 167 l 540 175 l 525 179 l 504 190 l 489 193 l 475 194 l 475 182 l 469 165 l 483 161 l 503 156 l 521 150 l 542 136 l 525 114 l 510 125 l 494 128 l 482 133 l 481 125 l 476 115 l 486 106 l 489 104 l 489 103 l 492 100 l 500 82 l 475 71 l 472 75 l 465 67 l 453 57 l 432 43 l 413 32 l 383 14 l 350 -1 l 318 -17 l 283 -31 l 239 -37 l 208 -37 l 176 -35 l 146 -33 l 119 -21 l 93 -15 l 75 -8 l 54 -3 m 606 910 l 633 907 l 632 893 l 632 868 l 629 835 l 624 792 l 617 733 l 613 676 l 608 615 l 601 563 l 593 521 l 583 478 l 575 436 l 564 394 l 558 358 l 554 335 l 547 318 l 539 301 l 536 289 l 521 293 l 515 281 l 514 279 l 535 279 l 557 278 l 554 250 l 535 251 l 510 251 l 506 251 l 506 235 l 478 235 l 478 249 l 476 247 l 446 240 l 425 228 l 415 218 l 396 240 l 408 250 l 435 265 l 460 272 l 465 282 l 467 285 l 439 290 l 443 313 l 443 347 l 443 382 l 443 424 l 442 472 l 439 519 l 438 581 l 438 646 l 435 704 l 432 761 l 428 819 l 426 867 l 424 908 l 424 936 l 424 953 l 451 953 l 451 936 l 451 908 l 454 867 l 456 822 l 460 764 l 463 704 l 465 649 l 467 668 l 472 731 l 474 793 l 478 856 l 478 906 l 478 943 l 478 978 l 506 978 l 506 943 l 506 906 l 506 856 l 501 793 l 500 728 l 494 665 l 489 601 l 489 550 l 489 496 l 486 446 l 492 488 l 497 544 l 508 614 l 515 692 l 521 765 l 526 831 l 531 881 l 536 926 l 542 968 l 546 999 l 574 996 l 569 965 l 564 924 l 558 878 l 554 828 l 549 763 l 543 689 l 540 654 l 547 711 l 556 779 l 561 838 l 569 894 l 574 935 l 574 958 l 601 958 l 601 932 l 597 892 l 589 835 l 583 776 l 575 708 l 567 644 l 558 581 l 554 533 l 549 488 l 547 446 l 547 442 l 556 483 l 565 526 l 574 568 l 581 618 l 585 679 l 589 736 l 596 794 l 601 838 l 604 868 l 604 893 l 606 910 z "},"K":{"ha":883,"x_min":22,"x_max":746,"o":"m 185 533 l 185 532 l 192 528 l 185 533 m 181 326 l 183 332 l 181 333 l 181 331 l 181 326 m 183 319 l 188 324 l 182 326 l 183 319 m 158 289 l 161 275 l 158 297 l 158 289 m 74 432 l 54 451 l 71 468 l 94 479 l 113 479 l 129 479 l 149 479 l 169 476 l 189 469 l 206 460 l 222 451 l 238 449 l 229 421 l 214 426 l 192 435 l 178 444 l 164 449 l 146 451 l 129 451 l 113 451 l 100 451 l 88 446 l 74 432 m 203 347 l 208 375 l 226 371 l 235 365 l 247 389 l 261 381 l 278 374 l 310 358 l 340 340 l 386 315 l 429 285 l 468 263 l 510 238 l 549 211 l 585 183 l 615 161 l 643 144 l 661 129 l 692 114 l 710 99 l 722 88 l 740 78 l 726 53 l 706 65 l 690 76 l 675 92 l 647 107 l 626 122 l 599 139 l 568 161 l 532 189 l 496 215 l 454 238 l 415 263 l 372 290 l 326 315 l 296 333 l 267 349 l 250 356 l 246 357 l 253 353 l 281 333 l 315 311 l 356 283 l 392 254 l 426 226 l 460 203 l 488 181 l 514 161 l 542 147 l 568 135 l 596 115 l 624 96 l 642 81 l 625 58 l 607 74 l 579 93 l 554 110 l 528 122 l 500 139 l 471 158 l 443 181 l 410 204 l 375 232 l 339 261 l 299 289 l 264 311 l 236 331 l 215 346 l 203 347 m 229 965 l 257 960 l 251 926 l 247 892 l 239 853 l 224 801 l 211 742 l 197 679 l 189 635 l 185 599 l 185 574 l 185 550 l 185 538 l 201 558 l 222 582 l 246 614 l 279 658 l 311 701 l 347 744 l 389 785 l 428 826 l 461 865 l 497 904 l 519 931 l 539 947 l 551 961 l 571 942 l 558 928 l 539 911 l 517 885 l 481 846 l 447 807 l 408 765 l 367 725 l 333 685 l 301 642 l 268 597 l 244 565 l 224 542 l 206 519 l 217 513 l 219 511 l 211 525 l 225 532 l 242 551 l 274 581 l 307 615 l 346 656 l 386 696 l 431 739 l 476 788 l 517 829 l 560 865 l 592 893 l 621 913 l 638 925 l 654 903 l 638 890 l 608 871 l 576 843 l 536 810 l 496 768 l 450 719 l 406 676 l 365 636 l 326 596 l 293 561 l 261 532 l 242 510 l 229 503 l 238 496 l 235 499 l 247 510 l 268 529 l 293 553 l 326 581 l 361 614 l 401 656 l 447 699 l 500 749 l 551 800 l 601 843 l 642 871 l 672 890 l 688 900 l 701 878 l 686 868 l 658 849 l 618 821 l 571 781 l 519 729 l 467 679 l 421 636 l 388 601 l 417 624 l 467 663 l 522 701 l 581 733 l 633 763 l 681 779 l 717 792 l 740 796 l 746 768 l 722 764 l 689 754 l 644 738 l 594 708 l 536 676 l 483 640 l 433 601 l 388 567 l 353 536 l 314 508 l 288 485 l 249 457 l 233 451 l 229 467 l 226 464 l 218 476 l 200 490 l 183 500 l 168 508 l 161 513 l 157 513 l 157 515 l 153 517 l 150 517 l 138 517 l 138 504 l 114 504 l 115 494 l 88 492 l 86 504 l 71 496 l 57 521 l 79 533 l 83 535 l 83 544 l 79 585 l 76 646 l 72 718 l 65 788 l 60 850 l 56 911 l 53 951 l 53 979 l 81 979 l 81 951 l 83 914 l 88 853 l 93 794 l 94 822 l 99 868 l 100 910 l 103 940 l 103 964 l 103 994 l 131 994 l 131 964 l 131 940 l 128 907 l 126 865 l 122 819 l 119 778 l 118 736 l 118 710 l 119 731 l 126 794 l 133 856 l 142 911 l 149 957 l 150 979 l 150 993 l 178 993 l 178 979 l 176 954 l 169 908 l 161 853 l 154 792 l 147 728 l 143 669 l 139 622 l 138 582 l 138 550 l 138 544 l 150 544 l 150 556 l 150 582 l 150 615 l 150 660 l 153 710 l 160 764 l 165 817 l 179 874 l 185 919 l 192 954 l 194 975 l 199 993 l 226 988 l 222 969 l 219 949 l 213 914 l 207 868 l 193 811 l 189 769 l 196 807 l 211 858 l 219 897 l 224 929 l 229 965 m 50 0 l 22 6 l 26 28 l 35 54 l 46 89 l 57 122 l 68 161 l 72 160 l 72 165 l 76 221 l 79 276 l 81 322 l 81 357 l 81 358 l 75 376 l 81 378 l 81 379 l 82 385 l 65 379 l 54 404 l 78 414 l 97 417 l 117 417 l 132 417 l 154 417 l 175 410 l 201 399 l 214 386 l 192 367 l 185 376 l 167 385 l 151 389 l 132 389 l 117 389 l 111 389 l 110 383 l 131 383 l 133 382 l 136 383 l 138 382 l 147 379 l 169 374 l 183 364 l 197 354 l 194 350 l 219 340 l 247 319 l 281 286 l 313 251 l 350 213 l 388 181 l 415 160 l 444 140 l 475 121 l 506 101 l 526 89 l 549 81 l 540 56 l 515 64 l 492 79 l 461 99 l 431 118 l 399 138 l 371 158 l 331 193 l 303 221 l 326 194 l 350 171 l 371 149 l 388 133 l 410 118 l 426 106 l 439 94 l 451 85 l 465 69 l 446 50 l 432 65 l 422 72 l 410 83 l 393 96 l 371 111 l 351 129 l 331 151 l 307 175 l 276 210 l 250 243 l 224 267 l 199 289 l 186 303 l 189 278 l 193 240 l 200 197 l 204 150 l 208 106 l 211 75 l 211 51 l 215 33 l 217 17 l 189 14 l 188 28 l 183 49 l 183 75 l 181 103 l 176 147 l 172 194 l 167 225 l 169 203 l 169 157 l 172 115 l 174 86 l 176 57 l 178 38 l 178 22 l 150 22 l 150 38 l 149 54 l 146 83 l 144 113 l 142 157 l 142 203 l 138 244 l 131 286 l 131 300 l 119 300 l 119 315 l 118 329 l 128 331 l 124 346 l 118 356 l 108 356 l 108 322 l 107 276 l 106 261 l 124 261 l 124 224 l 122 185 l 119 139 l 118 97 l 115 67 l 111 39 l 104 17 l 104 3 l 76 3 l 76 19 l 83 44 l 88 69 l 90 93 l 85 69 l 71 72 l 63 46 l 54 21 l 50 0 m 238 496 l 244 488 l 246 488 l 238 496 z "},"L":{"ha":786,"x_min":60,"x_max":649,"o":"m 157 93 l 154 92 l 136 86 l 135 71 l 149 82 l 157 93 m 476 13 l 501 11 l 454 15 l 410 19 l 365 21 l 329 26 l 292 32 l 264 40 l 247 46 l 242 35 l 249 35 l 269 32 l 293 28 l 324 25 l 361 21 l 397 19 l 435 14 l 476 13 m 225 -6 l 200 6 l 210 31 l 217 46 l 222 60 l 224 72 l 224 94 l 224 108 l 218 94 l 210 69 l 196 49 l 182 25 l 164 7 l 131 -8 l 113 -8 l 113 19 l 125 19 l 147 29 l 160 42 l 171 63 l 185 83 l 168 63 l 149 46 l 131 33 l 110 21 l 93 17 l 74 13 l 68 40 l 88 44 l 99 46 l 117 56 l 132 68 l 107 71 l 108 85 l 104 85 l 86 85 l 86 113 l 103 113 l 99 147 l 94 207 l 88 279 l 85 356 l 79 438 l 75 529 l 68 622 l 64 717 l 61 797 l 60 868 l 60 928 l 60 963 l 88 963 l 88 928 l 88 868 l 89 797 l 92 717 l 96 625 l 103 532 l 107 440 l 110 403 l 110 501 l 110 604 l 110 701 l 114 788 l 118 856 l 118 917 l 118 947 l 115 960 l 143 965 l 146 950 l 146 917 l 146 856 l 142 785 l 138 701 l 138 604 l 138 542 l 142 607 l 150 707 l 161 794 l 164 864 l 169 918 l 169 958 l 197 958 l 197 918 l 192 861 l 189 792 l 178 704 l 169 604 l 163 496 l 158 393 l 154 301 l 150 232 l 147 172 l 146 128 l 144 118 l 154 126 l 157 150 l 160 192 l 160 238 l 164 297 l 169 358 l 179 425 l 188 510 l 196 599 l 204 686 l 214 764 l 219 838 l 224 904 l 229 944 l 229 971 l 257 971 l 257 942 l 251 901 l 247 835 l 242 761 l 232 683 l 224 596 l 215 507 l 207 422 l 197 356 l 192 294 l 188 238 l 188 192 l 186 158 l 204 147 l 204 149 l 207 164 l 224 161 l 224 169 l 224 183 l 251 183 l 251 169 l 251 158 l 263 158 l 292 156 l 333 156 l 369 156 l 410 160 l 456 163 l 499 164 l 533 164 l 567 168 l 569 140 l 536 136 l 499 136 l 456 135 l 413 132 l 372 128 l 333 128 l 292 128 l 263 131 l 251 131 l 251 129 l 251 114 l 251 94 l 251 85 l 272 83 l 307 78 l 346 74 l 390 71 l 436 69 l 481 69 l 533 69 l 578 69 l 615 74 l 643 79 l 649 51 l 621 46 l 581 42 l 533 42 l 481 42 l 472 42 l 504 39 l 546 36 l 583 35 l 615 35 l 642 35 l 642 7 l 640 7 l 643 -1 l 619 -11 l 589 -18 l 549 -19 l 513 -18 l 474 -15 l 432 -14 l 394 -8 l 358 -7 l 321 -3 l 290 0 l 264 4 l 246 7 l 231 7 l 225 -6 m 281 89 l 283 117 l 306 114 l 328 110 l 368 106 l 407 106 l 453 106 l 501 110 l 550 118 l 589 124 l 592 96 l 556 90 l 504 82 l 453 78 l 407 78 l 365 78 l 325 82 l 300 86 l 281 89 z "},"M":{"ha":1251,"x_min":29,"x_max":1114,"o":"m 211 769 l 210 771 l 210 769 l 211 769 m 376 490 l 374 499 l 356 529 l 332 571 l 310 618 l 289 672 l 265 722 l 243 768 l 239 778 l 236 775 l 235 771 l 242 757 l 253 731 l 272 688 l 294 642 l 319 593 l 346 546 l 368 503 l 376 490 m 592 483 l 583 488 l 588 481 l 589 479 l 592 483 m 399 511 l 389 539 l 378 579 l 369 619 l 354 665 l 342 715 l 325 763 l 310 807 l 290 850 l 285 867 l 272 842 l 264 819 l 257 806 l 268 779 l 290 733 l 314 683 l 335 629 l 357 585 l 381 543 l 399 511 m 421 460 l 422 458 l 407 450 l 410 447 l 426 426 l 442 415 l 443 414 l 442 442 l 439 465 l 421 460 m 292 890 l 289 894 l 289 893 l 288 889 l 292 890 m 122 817 l 132 817 l 132 818 l 122 833 l 122 821 l 122 817 m 893 736 l 921 736 l 921 693 l 921 632 l 921 561 l 921 486 l 925 411 l 926 342 l 929 278 l 929 218 l 931 160 l 931 114 l 931 72 l 931 44 l 929 11 l 921 -4 l 896 10 l 901 19 l 903 44 l 903 72 l 903 114 l 903 160 l 901 218 l 901 278 l 899 342 l 897 411 l 893 486 l 893 561 l 893 632 l 893 693 l 893 736 m 956 794 l 983 794 l 983 778 l 992 778 l 992 749 l 996 710 l 1006 642 l 1014 578 l 1025 506 l 1035 429 l 1044 360 l 1056 290 l 1061 231 l 1068 175 l 1076 133 l 1096 85 l 1103 47 l 1114 10 l 1086 1 l 1075 42 l 1068 76 l 1049 125 l 1040 169 l 1033 228 l 1028 288 l 1017 357 l 1007 426 l 997 503 l 989 558 l 992 501 l 996 425 l 1000 363 l 1006 304 l 1014 244 l 1018 190 l 1021 144 l 1022 104 l 1025 76 l 1029 46 l 1031 24 l 1033 8 l 1006 3 l 1003 21 l 1001 43 l 997 74 l 994 101 l 993 144 l 990 188 l 986 242 l 978 301 l 972 360 l 968 422 l 964 499 l 960 578 l 961 501 l 965 424 l 968 358 l 971 301 l 979 247 l 981 204 l 986 151 l 988 100 l 992 56 l 992 22 l 992 -8 l 992 -28 l 964 -28 l 964 -8 l 964 22 l 964 56 l 960 97 l 958 149 l 953 201 l 951 244 l 943 299 l 940 358 l 938 424 l 933 501 l 932 578 l 932 646 l 932 706 l 932 743 l 956 743 l 956 769 l 956 794 m 83 847 l 111 847 l 111 840 l 118 840 l 106 858 l 90 881 l 79 899 l 67 907 l 54 917 l 74 939 l 83 929 l 99 918 l 113 897 l 128 875 l 143 851 l 157 829 l 164 811 l 161 824 l 160 844 l 151 871 l 143 892 l 128 914 l 121 933 l 107 951 l 129 968 l 146 947 l 153 928 l 168 906 l 176 879 l 188 850 l 189 826 l 193 806 l 193 799 l 196 808 l 204 835 l 208 861 l 208 889 l 208 917 l 203 949 l 196 969 l 221 981 l 231 957 l 236 919 l 236 889 l 236 858 l 232 829 l 225 807 l 226 808 l 239 831 l 247 853 l 257 875 l 261 896 l 261 917 l 258 940 l 251 953 l 276 967 l 286 949 l 289 919 l 289 917 l 304 925 l 311 913 l 325 889 l 342 850 l 361 804 l 379 757 l 399 710 l 417 663 l 425 626 l 432 592 l 439 558 l 443 532 l 443 521 l 458 524 l 461 507 l 461 533 l 476 532 l 476 533 l 493 533 l 511 529 l 525 521 l 525 526 l 544 526 l 569 511 l 579 494 l 586 508 l 599 531 l 617 565 l 638 600 l 667 653 l 692 700 l 718 749 l 740 796 l 761 846 l 774 875 l 779 901 l 796 899 l 793 919 l 790 943 l 790 963 l 818 963 l 818 946 l 821 922 l 825 897 l 833 871 l 840 849 l 850 829 l 856 815 l 863 807 l 863 817 l 863 839 l 863 863 l 863 881 l 858 908 l 856 931 l 856 949 l 849 960 l 874 974 l 883 954 l 883 933 l 886 911 l 890 883 l 890 863 l 890 839 l 890 819 l 894 829 l 901 849 l 906 875 l 908 896 l 908 917 l 908 932 l 901 954 l 929 963 l 936 935 l 936 917 l 936 893 l 933 872 l 931 854 l 933 861 l 944 882 l 947 901 l 953 925 l 953 953 l 953 967 l 981 967 l 981 953 l 981 922 l 975 896 l 969 874 l 958 850 l 950 829 l 951 829 l 965 844 l 976 863 l 988 883 l 1000 915 l 1008 932 l 1033 918 l 1025 904 l 1013 872 l 1001 849 l 988 828 l 971 810 l 953 794 l 944 783 l 922 769 l 918 778 l 915 774 l 903 761 l 883 781 l 890 788 l 879 790 l 881 793 l 863 793 l 863 806 l 842 788 l 831 801 l 825 818 l 815 838 l 806 863 l 803 875 l 801 867 l 786 835 l 765 785 l 743 738 l 717 686 l 692 639 l 671 603 l 692 632 l 724 674 l 757 715 l 779 758 l 800 793 l 825 779 l 804 744 l 779 701 l 746 657 l 714 615 l 685 575 l 661 536 l 640 504 l 625 482 l 629 486 l 651 507 l 676 536 l 704 569 l 738 610 l 754 631 l 758 636 l 789 679 l 794 685 l 815 717 l 829 735 l 832 754 l 856 750 l 864 756 l 881 733 l 871 726 l 857 710 l 838 692 l 817 668 l 815 667 l 792 632 l 776 614 l 750 575 l 722 531 l 694 493 l 672 465 l 657 446 l 638 418 l 615 435 l 618 439 l 604 454 l 610 435 l 613 413 l 613 392 l 614 376 l 614 361 l 613 344 l 585 347 l 586 361 l 586 376 l 585 392 l 585 410 l 582 429 l 578 446 l 565 467 l 556 479 l 550 492 l 547 493 l 550 486 l 556 458 l 558 433 l 558 408 l 558 376 l 556 351 l 549 329 l 544 314 l 517 322 l 521 338 l 528 357 l 531 379 l 531 408 l 531 431 l 528 456 l 525 478 l 518 489 l 510 497 l 500 504 l 494 506 l 496 501 l 504 482 l 510 461 l 514 442 l 517 421 l 519 399 l 519 378 l 519 360 l 513 338 l 503 322 l 494 311 l 472 328 l 481 339 l 488 349 l 492 363 l 492 378 l 492 396 l 489 418 l 486 436 l 482 456 l 479 474 l 471 490 l 467 508 l 461 506 l 463 500 l 467 474 l 469 444 l 471 417 l 474 388 l 474 367 l 471 350 l 443 356 l 446 369 l 446 383 l 443 381 l 425 393 l 407 407 l 388 431 l 365 457 l 343 489 l 321 532 l 294 579 l 269 631 l 247 676 l 228 719 l 217 746 l 207 764 l 182 778 l 186 785 l 165 785 l 165 797 l 149 785 l 139 785 l 139 744 l 142 697 l 143 646 l 147 583 l 154 518 l 158 453 l 163 394 l 169 349 l 174 301 l 178 258 l 182 219 l 189 182 l 192 146 l 197 113 l 201 88 l 207 68 l 208 50 l 211 32 l 211 11 l 183 11 l 183 29 l 181 47 l 179 63 l 174 82 l 169 107 l 164 143 l 161 179 l 154 217 l 150 256 l 146 299 l 142 346 l 135 392 l 131 450 l 126 515 l 122 556 l 122 526 l 126 465 l 126 417 l 126 365 l 128 315 l 128 268 l 131 226 l 131 196 l 132 161 l 135 128 l 138 96 l 138 76 l 142 54 l 143 35 l 115 32 l 114 51 l 110 74 l 110 96 l 107 125 l 104 158 l 103 196 l 103 226 l 100 268 l 100 315 l 99 365 l 99 417 l 99 465 l 97 450 l 96 388 l 92 325 l 88 264 l 85 222 l 83 183 l 76 147 l 72 114 l 68 88 l 61 67 l 51 51 l 29 68 l 36 78 l 40 93 l 44 117 l 49 153 l 56 186 l 57 225 l 60 267 l 64 328 l 68 388 l 69 450 l 72 508 l 75 571 l 76 635 l 76 700 l 79 753 l 83 794 l 83 825 l 83 847 m 144 771 l 172 771 l 172 739 l 172 697 l 174 656 l 178 606 l 185 544 l 189 488 l 193 428 l 201 372 l 213 315 l 224 261 l 235 210 l 246 157 l 251 121 l 258 82 l 261 57 l 263 40 l 263 25 l 235 25 l 235 40 l 233 54 l 231 79 l 224 115 l 218 151 l 207 204 l 196 256 l 185 310 l 174 367 l 165 425 l 161 485 l 157 542 l 150 603 l 146 653 l 144 697 l 144 739 l 144 771 z "},"N":{"ha":1046,"x_min":-8,"x_max":907,"o":"m 790 124 l 794 114 l 790 124 m 538 397 l 533 407 l 510 456 l 479 506 l 451 556 l 421 608 l 393 656 l 365 701 l 336 743 l 307 786 l 286 818 l 271 849 l 267 844 l 263 836 l 264 835 l 272 810 l 297 769 l 324 726 l 353 681 l 388 626 l 425 571 l 463 515 l 496 461 l 526 411 l 538 397 m 608 231 l 592 261 l 567 304 l 542 350 l 504 394 l 471 447 l 440 501 l 403 554 l 365 613 l 331 667 l 301 713 l 275 756 l 247 799 l 243 811 l 232 800 l 242 776 l 264 736 l 294 685 l 324 635 l 358 586 l 394 539 l 429 485 l 463 436 l 494 389 l 532 338 l 558 290 l 588 246 l 606 217 l 621 199 l 608 231 m 878 961 l 906 964 l 907 947 l 907 921 l 907 879 l 907 840 l 907 796 l 896 736 l 883 671 l 867 606 l 853 536 l 842 474 l 832 421 l 822 371 l 817 329 l 813 286 l 810 250 l 810 219 l 810 189 l 810 164 l 808 150 l 811 146 l 822 122 l 825 100 l 826 88 l 832 69 l 811 63 l 813 58 l 814 43 l 818 25 l 790 19 l 786 38 l 785 53 l 778 71 l 774 90 l 765 113 l 757 133 l 751 142 l 757 129 l 763 100 l 764 78 l 767 57 l 767 33 l 767 11 l 758 -7 l 733 4 l 739 17 l 739 33 l 739 54 l 736 75 l 735 97 l 729 121 l 722 143 l 711 161 l 701 176 l 701 150 l 701 118 l 701 88 l 701 58 l 697 29 l 697 7 l 689 -8 l 664 6 l 669 15 l 669 32 l 674 61 l 674 88 l 674 117 l 660 108 l 651 122 l 649 129 l 643 124 l 622 146 l 604 175 l 583 200 l 565 232 l 533 276 l 510 324 l 472 372 l 446 410 l 474 364 l 504 314 l 531 260 l 554 211 l 576 175 l 593 142 l 610 115 l 625 96 l 635 85 l 615 65 l 603 79 l 588 99 l 568 128 l 551 161 l 529 197 l 506 249 l 479 300 l 449 350 l 417 406 l 379 469 l 342 529 l 310 583 l 275 636 l 243 686 l 219 725 l 206 757 l 218 763 l 217 765 l 208 783 l 199 769 l 196 772 l 194 771 l 188 776 l 176 774 l 176 771 l 176 751 l 200 751 l 200 719 l 200 674 l 204 606 l 211 547 l 215 486 l 219 418 l 222 353 l 224 300 l 226 250 l 228 204 l 228 164 l 228 133 l 228 103 l 228 76 l 228 60 l 228 44 l 200 44 l 200 60 l 200 76 l 200 103 l 200 133 l 200 164 l 200 204 l 199 250 l 196 300 l 194 353 l 192 415 l 188 483 l 183 544 l 178 592 l 178 531 l 178 465 l 178 396 l 178 331 l 178 268 l 178 219 l 178 172 l 178 142 l 178 110 l 178 83 l 178 56 l 178 35 l 150 35 l 150 56 l 150 83 l 150 110 l 150 142 l 150 172 l 150 219 l 150 268 l 150 331 l 150 396 l 150 465 l 150 531 l 150 593 l 150 660 l 149 725 l 149 771 l 146 803 l 151 804 l 138 825 l 138 821 l 136 801 l 138 779 l 138 719 l 138 654 l 138 578 l 138 500 l 138 426 l 138 353 l 138 292 l 135 244 l 132 203 l 131 158 l 128 118 l 126 88 l 126 56 l 124 35 l 118 14 l 90 22 l 96 40 l 99 58 l 99 88 l 100 121 l 103 161 l 104 203 l 107 247 l 110 292 l 110 353 l 110 426 l 110 500 l 110 578 l 110 601 l 104 550 l 97 492 l 93 433 l 85 375 l 81 318 l 72 265 l 63 215 l 54 176 l 49 139 l 42 107 l 35 81 l 31 54 l 24 35 l 22 21 l 19 1 l -8 4 l -6 24 l -4 40 l 3 60 l 7 86 l 14 113 l 21 144 l 26 182 l 35 221 l 44 271 l 53 321 l 57 378 l 65 436 l 69 494 l 76 553 l 83 617 l 90 675 l 99 732 l 107 783 l 108 801 l 107 825 l 107 868 l 107 872 l 100 883 l 85 911 l 71 940 l 50 963 l 69 982 l 93 957 l 110 925 l 117 913 l 132 915 l 135 900 l 135 881 l 140 869 l 158 843 l 161 840 l 157 864 l 150 886 l 139 921 l 132 947 l 122 968 l 118 994 l 146 1000 l 150 976 l 157 956 l 167 929 l 178 894 l 185 869 l 189 842 l 190 836 l 192 843 l 194 868 l 194 894 l 192 922 l 189 940 l 183 958 l 178 979 l 203 988 l 211 967 l 217 946 l 219 925 l 222 894 l 222 872 l 229 890 l 233 911 l 233 929 l 233 944 l 231 972 l 226 990 l 254 996 l 258 978 l 261 944 l 261 929 l 261 908 l 257 882 l 250 868 l 256 875 l 269 904 l 278 924 l 303 913 l 294 893 l 288 879 l 296 860 l 311 832 l 329 800 l 358 760 l 388 715 l 418 669 l 446 622 l 476 569 l 504 519 l 535 469 l 558 418 l 581 374 l 600 325 l 617 282 l 632 247 l 633 243 l 642 229 l 661 192 l 674 171 l 674 176 l 671 206 l 693 208 l 710 219 l 718 207 l 719 210 l 717 211 l 731 236 l 733 233 l 736 249 l 738 257 l 721 260 l 722 267 l 715 264 l 710 286 l 710 308 l 710 342 l 708 388 l 706 435 l 704 497 l 700 569 l 700 650 l 700 732 l 700 808 l 700 878 l 700 918 l 697 951 l 725 954 l 728 918 l 728 878 l 728 808 l 728 732 l 728 650 l 728 569 l 732 497 l 733 435 l 735 403 l 740 444 l 743 489 l 744 547 l 751 613 l 756 686 l 764 756 l 771 818 l 775 881 l 785 926 l 786 954 l 789 969 l 817 964 l 814 951 l 813 924 l 803 878 l 799 815 l 792 753 l 783 683 l 779 610 l 772 544 l 771 489 l 778 518 l 785 583 l 794 656 l 804 729 l 813 794 l 817 857 l 828 914 l 829 950 l 838 968 l 863 957 l 857 944 l 856 911 l 844 854 l 840 792 l 832 726 l 822 653 l 813 581 l 806 513 l 792 457 l 790 411 l 782 363 l 775 315 l 768 275 l 764 243 l 760 221 l 751 222 l 757 219 l 775 204 l 782 193 l 782 219 l 782 250 l 785 289 l 789 332 l 794 376 l 804 426 l 814 479 l 825 542 l 839 611 l 856 676 l 868 742 l 879 799 l 879 840 l 879 879 l 879 921 l 879 947 l 878 961 z "},"O":{"ha":1132,"x_min":0,"x_max":993,"o":"m 46 547 l 42 547 l 46 544 l 46 547 m 336 960 l 349 965 l 371 969 l 389 976 l 410 978 l 432 982 l 453 982 l 472 982 l 492 982 l 518 982 l 538 981 l 568 972 l 585 965 l 608 958 l 625 953 l 649 939 l 669 925 l 692 910 l 710 897 l 733 882 l 763 865 l 782 846 l 803 824 l 818 808 l 833 790 l 850 771 l 865 747 l 878 725 l 886 704 l 892 683 l 896 657 l 899 636 l 903 610 l 906 583 l 906 561 l 914 564 l 929 574 l 942 578 l 943 600 l 943 626 l 936 653 l 932 678 l 925 701 l 915 726 l 904 747 l 889 769 l 869 797 l 857 821 l 840 839 l 821 861 l 799 881 l 778 899 l 756 918 l 735 931 l 713 943 l 693 956 l 674 967 l 649 978 l 625 986 l 600 993 l 579 1000 l 561 1000 l 531 1000 l 510 1000 l 488 1000 l 465 1000 l 447 999 l 428 992 l 401 988 l 379 981 l 351 969 l 336 960 m 53 583 l 58 597 l 67 621 l 76 646 l 89 679 l 101 714 l 115 746 l 110 739 l 94 717 l 82 692 l 68 661 l 57 631 l 53 604 l 53 586 l 53 583 m 185 807 l 203 824 l 226 847 l 250 865 l 269 889 l 294 904 l 310 917 l 319 922 l 304 915 l 283 903 l 264 888 l 247 872 l 228 850 l 207 831 l 185 807 m 722 783 l 738 774 l 769 747 l 799 722 l 822 699 l 846 676 l 863 653 l 871 635 l 868 654 l 864 678 l 858 696 l 853 714 l 840 733 l 828 754 l 811 774 l 799 789 l 783 804 l 763 826 l 746 843 l 719 860 l 696 875 l 675 888 l 653 903 l 635 917 l 614 928 l 600 931 l 574 940 l 560 947 l 532 953 l 518 954 l 492 954 l 472 954 l 453 954 l 435 954 l 413 950 l 394 949 l 385 944 l 393 946 l 411 947 l 429 947 l 451 947 l 476 947 l 499 942 l 519 931 l 544 925 l 574 911 l 597 901 l 622 885 l 647 867 l 664 849 l 689 824 l 711 799 l 722 783 m 825 656 l 832 639 l 838 625 l 844 604 l 847 574 l 847 564 l 854 561 l 854 571 l 851 599 l 849 619 l 838 639 l 825 656 m 246 825 l 263 836 l 289 856 l 315 872 l 340 883 l 374 892 l 399 893 l 422 893 l 451 893 l 481 892 l 513 889 l 549 881 l 581 868 l 607 853 l 635 838 l 628 844 l 606 863 l 583 876 l 563 886 l 536 900 l 511 906 l 490 917 l 474 919 l 451 919 l 429 919 l 411 919 l 396 918 l 378 915 l 360 910 l 346 906 l 326 894 l 311 882 l 289 867 l 269 846 l 246 825 m 229 226 l 217 251 l 200 283 l 189 313 l 182 328 l 182 315 l 190 299 l 207 268 l 229 226 m 604 63 l 572 61 l 531 61 l 489 63 l 446 69 l 438 72 l 411 76 l 383 82 l 354 92 l 328 106 l 326 106 l 326 107 l 325 107 l 294 128 l 258 150 l 229 175 l 204 213 l 182 254 l 165 285 l 154 310 l 154 325 l 147 319 l 135 310 l 126 301 l 131 288 l 136 269 l 151 238 l 171 203 l 190 168 l 219 135 l 256 107 l 293 85 l 325 69 l 363 60 l 407 54 l 447 49 l 492 47 l 536 47 l 581 54 l 604 63 m 453 21 l 481 17 l 529 14 l 582 14 l 624 35 l 644 49 l 636 44 l 586 26 l 539 19 l 492 19 l 453 21 m 892 358 l 874 356 l 857 356 l 839 358 l 824 361 l 822 351 l 817 315 l 801 285 l 779 253 l 761 229 l 728 193 l 700 169 l 660 143 l 629 124 l 589 99 l 565 89 l 572 89 l 608 90 l 646 104 l 689 119 l 724 139 l 760 164 l 790 190 l 817 214 l 839 242 l 861 268 l 875 299 l 890 335 l 890 338 l 890 351 l 892 358 m 667 22 l 701 39 l 736 57 l 769 76 l 797 92 l 822 110 l 840 128 l 861 147 l 872 167 l 890 200 l 900 231 l 910 261 l 893 242 l 876 219 l 861 189 l 832 151 l 800 122 l 767 96 l 728 69 l 683 42 l 667 22 m 24 410 l 24 438 l 39 438 l 54 438 l 83 438 l 101 438 l 114 438 l 125 446 l 143 461 l 154 469 l 165 478 l 182 456 l 171 447 l 160 439 l 142 424 l 122 410 l 101 410 l 83 410 l 54 410 l 39 410 l 24 410 m 833 400 l 844 425 l 865 415 l 879 406 l 897 403 l 897 408 l 900 429 l 892 429 l 858 436 l 842 440 l 832 444 l 832 443 l 832 422 l 829 406 l 828 389 l 844 386 l 860 383 l 864 383 l 851 390 l 833 400 m 142 557 l 122 538 l 106 556 l 103 572 l 100 597 l 103 608 l 103 631 l 103 639 l 101 635 l 92 610 l 83 589 l 76 565 l 74 554 l 74 542 l 54 542 l 68 538 l 85 533 l 113 533 l 133 533 l 153 533 l 164 539 l 175 547 l 192 525 l 183 519 l 196 507 l 183 494 l 168 481 l 143 465 l 114 463 l 94 463 l 72 463 l 56 467 l 38 474 l 11 485 l 22 510 l 49 499 l 64 494 l 75 490 l 94 490 l 114 490 l 135 490 l 151 503 l 154 506 l 133 506 l 113 506 l 82 506 l 60 510 l 38 518 l 21 526 l 0 538 l 11 563 l 25 556 l 25 563 l 25 586 l 25 607 l 29 639 l 43 672 l 57 703 l 69 731 l 88 756 l 106 779 l 122 807 l 144 833 l 167 863 l 193 892 l 224 919 l 251 940 l 283 961 l 311 976 l 338 994 l 371 1006 l 396 1015 l 422 1019 l 442 1026 l 465 1028 l 488 1028 l 510 1028 l 531 1028 l 561 1028 l 582 1028 l 608 1021 l 633 1011 l 660 1003 l 685 992 l 707 981 l 726 968 l 749 956 l 772 940 l 797 921 l 818 900 l 840 881 l 860 858 l 879 838 l 894 811 l 911 786 l 929 761 l 940 738 l 950 710 l 960 683 l 964 658 l 971 629 l 971 600 l 968 568 l 967 565 l 969 557 l 964 556 l 958 542 l 940 547 l 925 539 l 907 532 l 897 532 l 894 525 l 878 532 l 860 532 l 840 536 l 844 558 l 819 558 l 819 574 l 817 599 l 810 617 l 807 631 l 800 644 l 789 658 l 776 678 l 761 694 l 746 711 l 728 735 l 707 758 l 703 763 l 692 771 l 657 796 l 625 813 l 593 828 l 569 843 l 540 853 l 507 861 l 478 864 l 451 865 l 422 865 l 399 865 l 376 864 l 349 858 l 329 847 l 306 833 l 279 814 l 256 797 l 232 776 l 210 753 l 189 726 l 168 697 l 153 665 l 140 635 l 132 608 l 131 606 l 131 600 l 131 578 l 131 567 l 142 557 m 63 224 l 88 238 l 88 236 l 111 240 l 114 218 l 125 196 l 154 163 l 183 129 l 194 122 l 168 151 l 146 189 l 126 224 l 111 258 l 103 279 l 103 283 l 78 274 l 58 274 l 58 301 l 72 301 l 92 308 l 100 315 l 115 329 l 131 342 l 149 354 l 161 361 l 165 365 l 165 367 l 164 383 l 151 374 l 138 365 l 119 350 l 100 344 l 82 336 l 58 336 l 35 336 l 35 364 l 58 364 l 76 364 l 89 369 l 106 375 l 121 388 l 135 396 l 150 407 l 165 421 l 176 433 l 196 414 l 185 401 l 189 403 l 192 386 l 192 382 l 206 357 l 200 354 l 214 324 l 225 294 l 242 265 l 257 233 l 278 204 l 297 176 l 317 149 l 340 131 l 372 118 l 411 108 l 444 99 l 446 99 l 476 99 l 511 99 l 540 108 l 578 124 l 615 146 l 646 165 l 683 192 l 708 213 l 739 246 l 757 269 l 776 299 l 789 324 l 794 357 l 797 372 l 797 374 l 799 383 l 801 408 l 804 425 l 804 443 l 804 463 l 804 478 l 799 492 l 824 503 l 825 499 l 828 522 l 844 521 l 871 511 l 882 511 l 900 510 l 917 510 l 926 511 l 940 517 l 961 524 l 969 499 l 951 492 l 935 483 l 917 482 l 900 482 l 882 483 l 865 483 l 839 493 l 828 494 l 832 483 l 832 472 l 833 474 l 850 468 l 864 464 l 894 457 l 901 457 l 903 467 l 917 465 l 924 478 l 942 465 l 943 458 l 949 460 l 965 464 l 985 469 l 993 444 l 974 436 l 954 432 l 949 432 l 949 421 l 956 414 l 949 406 l 947 401 l 965 401 l 981 403 l 983 375 l 965 374 l 946 374 l 946 365 l 946 343 l 944 318 l 944 297 l 942 275 l 938 253 l 925 222 l 915 189 l 897 153 l 883 131 l 860 108 l 839 88 l 811 69 l 783 51 l 750 32 l 713 14 l 678 -3 l 635 -21 l 592 -33 l 549 -33 l 506 -33 l 460 -31 l 417 -26 l 374 -22 l 338 -10 l 292 6 l 250 25 l 213 50 l 175 76 l 142 108 l 107 151 l 82 192 l 63 224 m 182 328 l 176 339 l 175 339 l 163 332 l 158 328 l 182 328 z "},"P":{"ha":979,"x_min":71,"x_max":842,"o":"m 215 446 l 218 449 l 213 446 l 215 446 m 124 826 l 115 829 l 115 813 l 115 782 l 115 744 l 119 699 l 122 643 l 124 593 l 125 568 l 133 568 l 147 565 l 146 576 l 144 604 l 142 649 l 139 693 l 135 739 l 131 778 l 126 813 l 124 826 m 442 899 l 465 889 l 504 881 l 540 867 l 575 849 l 607 828 l 635 804 l 651 782 l 663 757 l 671 729 l 671 699 l 663 661 l 640 625 l 600 590 l 556 561 l 504 542 l 454 525 l 407 517 l 357 514 l 319 510 l 288 507 l 279 507 l 288 496 l 268 482 l 256 471 l 264 464 l 254 449 l 271 449 l 310 456 l 361 464 l 418 472 l 469 481 l 522 490 l 571 499 l 604 519 l 642 542 l 671 571 l 704 600 l 721 624 l 735 651 l 740 682 l 739 707 l 733 732 l 721 757 l 703 779 l 682 803 l 653 825 l 624 843 l 590 863 l 556 875 l 517 885 l 478 896 l 444 899 l 442 899 m 406 926 l 357 926 l 315 922 l 274 918 l 236 911 l 239 906 l 246 907 l 269 911 l 289 913 l 324 922 l 365 924 l 406 926 m 444 926 l 446 926 l 447 926 l 444 926 m 765 661 l 771 681 l 771 718 l 764 744 l 760 774 l 746 796 l 724 818 l 694 840 l 661 861 l 621 878 l 638 868 l 669 847 l 701 822 l 725 799 l 746 771 l 758 740 l 767 713 l 768 679 l 765 661 m 592 479 l 613 489 l 651 511 l 658 519 l 618 494 l 592 479 m 508 460 l 526 461 l 557 468 l 528 463 l 508 460 m 263 875 l 257 842 l 251 803 l 243 761 l 236 715 l 232 664 l 228 604 l 226 572 l 240 582 l 257 560 l 246 551 l 257 535 l 271 535 l 288 535 l 317 538 l 354 542 l 404 544 l 449 553 l 496 567 l 542 586 l 583 613 l 618 644 l 638 672 l 643 701 l 643 726 l 638 746 l 626 768 l 615 785 l 590 806 l 561 824 l 529 842 l 496 853 l 457 861 l 425 875 l 390 881 l 350 885 l 322 885 l 294 885 l 264 875 l 263 875 m 736 844 l 732 849 l 694 878 l 657 907 l 619 931 l 575 954 l 539 965 l 501 972 l 468 974 l 426 974 l 396 972 l 358 965 l 325 958 l 294 949 l 313 950 l 357 954 l 406 954 l 453 954 l 496 946 l 538 932 l 585 922 l 631 903 l 675 886 l 711 863 l 736 844 m 694 518 l 714 531 l 756 561 l 779 583 l 800 607 l 810 629 l 814 664 l 814 696 l 810 725 l 800 757 l 786 786 l 774 803 l 785 785 l 792 750 l 799 721 l 799 675 l 786 638 l 761 596 l 733 557 l 699 522 l 694 518 m 169 651 l 172 608 l 172 658 l 169 710 l 169 758 l 169 801 l 169 825 l 169 828 l 165 826 l 153 826 l 154 815 l 158 781 l 163 742 l 167 696 l 169 651 m 200 608 l 204 667 l 208 718 l 215 767 l 224 808 l 229 847 l 232 861 l 229 867 l 219 864 l 219 865 l 218 865 l 225 854 l 204 842 l 199 839 l 197 825 l 197 801 l 197 758 l 197 710 l 200 658 l 200 608 m 164 886 l 153 911 l 163 915 l 161 917 l 146 924 l 133 932 l 118 942 l 104 951 l 121 974 l 132 964 l 147 957 l 160 949 l 175 939 l 185 933 l 190 935 l 189 939 l 182 956 l 168 979 l 190 993 l 207 969 l 214 950 l 215 947 l 219 949 l 250 961 l 282 972 l 317 986 l 353 993 l 393 1000 l 426 1001 l 468 1001 l 504 1000 l 544 993 l 586 979 l 633 956 l 674 929 l 711 900 l 751 868 l 783 838 l 811 800 l 825 768 l 838 731 l 842 699 l 842 661 l 838 621 l 822 593 l 799 564 l 772 539 l 731 508 l 688 479 l 636 454 l 581 432 l 526 421 l 465 418 l 401 417 l 333 417 l 303 417 l 261 410 l 228 410 l 219 410 l 215 406 l 203 394 l 224 397 l 228 363 l 232 326 l 242 281 l 250 226 l 261 172 l 265 131 l 274 89 l 276 61 l 281 40 l 283 28 l 292 14 l 267 0 l 258 17 l 253 35 l 249 58 l 246 86 l 238 128 l 233 167 l 222 221 l 222 217 l 228 169 l 232 119 l 235 78 l 239 46 l 243 17 l 246 1 l 218 -4 l 215 11 l 211 43 l 207 75 l 204 117 l 200 167 l 194 214 l 189 263 l 183 307 l 181 344 l 179 378 l 158 368 l 149 365 l 167 367 l 169 319 l 176 278 l 181 231 l 182 181 l 185 131 l 188 81 l 189 40 l 189 13 l 192 -7 l 193 -22 l 165 -25 l 164 -10 l 161 10 l 161 40 l 160 81 l 157 128 l 154 181 l 153 228 l 149 275 l 142 317 l 139 363 l 135 361 l 135 358 l 138 315 l 138 265 l 139 203 l 139 142 l 139 96 l 138 54 l 132 22 l 126 0 l 124 -15 l 96 -10 l 99 6 l 104 28 l 110 57 l 111 96 l 111 142 l 111 203 l 110 265 l 110 315 l 107 356 l 107 358 l 101 358 l 82 360 l 85 388 l 101 386 l 110 386 l 131 389 l 147 393 l 172 404 l 185 415 l 185 421 l 182 422 l 169 431 l 165 429 l 136 429 l 114 429 l 99 429 l 78 429 l 78 457 l 99 457 l 114 457 l 136 457 l 163 457 l 169 458 l 172 463 l 175 460 l 185 463 l 214 478 l 232 488 l 251 504 l 257 508 l 257 528 l 244 521 l 226 508 l 226 485 l 199 485 l 199 493 l 178 485 l 149 478 l 113 478 l 96 479 l 99 507 l 113 506 l 146 506 l 169 510 l 186 518 l 179 518 l 176 536 l 157 536 l 131 540 l 128 540 l 131 529 l 103 524 l 100 546 l 83 553 l 94 578 l 97 576 l 96 593 l 94 643 l 92 696 l 88 744 l 88 782 l 88 813 l 88 829 l 113 829 l 86 831 l 71 835 l 79 863 l 92 858 l 115 857 l 128 854 l 107 865 l 88 876 l 71 886 l 85 911 l 101 901 l 121 890 l 138 881 l 161 878 l 178 874 l 194 872 l 194 868 l 203 874 l 197 886 l 201 888 l 189 897 l 181 893 l 164 886 z "},"Q":{"ha":1121,"x_min":1,"x_max":982,"o":"m 599 940 l 582 950 l 546 961 l 510 969 l 482 969 l 443 965 l 410 958 l 374 947 l 340 931 l 310 913 l 271 890 l 239 864 l 208 829 l 178 793 l 150 753 l 126 710 l 106 669 l 96 628 l 85 583 l 85 556 l 85 542 l 88 542 l 113 540 l 124 540 l 119 553 l 119 571 l 119 597 l 122 624 l 132 651 l 143 683 l 156 711 l 171 742 l 188 771 l 210 803 l 232 831 l 254 854 l 279 874 l 304 893 l 329 910 l 350 918 l 375 929 l 404 938 l 432 942 l 460 943 l 479 946 l 507 946 l 536 946 l 563 943 l 594 942 l 599 940 m 864 539 l 864 538 l 867 538 l 871 539 l 864 539 m 801 844 l 796 856 l 788 872 l 774 890 l 758 908 l 746 922 l 732 939 l 714 953 l 697 969 l 686 979 l 669 990 l 657 999 l 639 1008 l 624 1017 l 606 1022 l 588 1028 l 564 1033 l 544 1035 l 521 1035 l 500 1035 l 479 1035 l 460 1033 l 442 1033 l 421 1031 l 400 1022 l 381 1019 l 363 1008 l 339 994 l 310 983 l 286 961 l 257 942 l 228 918 l 197 888 l 219 908 l 254 939 l 292 964 l 321 976 l 356 992 l 383 997 l 415 1007 l 440 1008 l 471 1008 l 492 1008 l 526 1007 l 561 1000 l 593 988 l 625 975 l 653 961 l 686 944 l 715 924 l 746 904 l 774 881 l 796 853 l 801 844 m 872 606 l 876 572 l 876 540 l 885 544 l 889 544 l 886 553 l 882 571 l 879 586 l 875 600 l 872 606 m 833 694 l 818 724 l 806 753 l 808 746 l 821 706 l 832 674 l 840 650 l 839 660 l 833 694 m 718 889 l 753 861 l 760 853 l 754 861 l 729 882 l 718 889 m 864 699 l 857 717 l 860 704 l 864 699 m 664 100 l 660 108 l 658 110 l 646 101 l 610 83 l 571 71 l 535 67 l 500 63 l 468 63 l 450 63 l 481 60 l 511 60 l 543 63 l 574 69 l 606 78 l 632 88 l 660 97 l 664 100 m 885 307 l 886 315 l 894 343 l 899 360 l 901 374 l 901 385 l 893 385 l 890 364 l 886 325 l 885 307 m 642 46 l 633 58 l 614 50 l 579 42 l 549 35 l 511 32 l 481 32 l 447 35 l 415 39 l 383 46 l 349 54 l 317 67 l 286 79 l 257 94 l 226 107 l 200 128 l 188 138 l 196 128 l 222 106 l 249 86 l 278 69 l 301 57 l 328 43 l 357 35 l 390 25 l 414 17 l 443 8 l 469 6 l 496 4 l 525 4 l 560 13 l 594 22 l 624 35 l 642 46 m 683 69 l 679 76 l 671 72 l 660 68 l 665 60 l 682 69 l 683 69 m 721 92 l 715 96 l 717 97 l 710 93 l 714 88 l 721 92 m 757 119 l 761 125 l 756 122 l 740 113 l 744 110 l 757 119 m 697 43 l 696 44 l 681 36 l 681 35 l 697 43 m 744 69 l 742 74 l 732 67 l 735 63 l 744 69 m 776 90 l 771 94 l 764 89 l 768 85 l 776 90 m 799 110 l 810 119 l 833 144 l 857 169 l 876 197 l 897 225 l 911 253 l 922 274 l 928 299 l 932 314 l 933 340 l 936 363 l 938 385 l 929 385 l 929 371 l 926 354 l 922 335 l 914 307 l 906 282 l 894 258 l 882 231 l 868 207 l 849 183 l 831 153 l 808 125 l 793 113 l 796 111 l 799 110 m 685 119 l 692 122 l 694 117 l 717 131 l 742 144 l 765 161 l 788 182 l 807 211 l 824 235 l 838 253 l 849 275 l 856 299 l 858 328 l 860 343 l 840 311 l 825 281 l 799 242 l 776 211 l 751 182 l 717 153 l 682 124 l 685 119 m 1 458 l 1 486 l 28 486 l 44 486 l 64 486 l 85 488 l 106 490 l 121 496 l 135 499 l 157 510 l 168 485 l 146 474 l 129 468 l 111 463 l 88 460 l 64 458 l 44 458 l 28 458 l 1 458 m 825 506 l 822 533 l 836 535 l 836 539 l 836 554 l 832 579 l 825 601 l 817 632 l 807 665 l 796 697 l 783 735 l 765 767 l 750 796 l 733 815 l 713 835 l 689 856 l 665 875 l 642 892 l 621 904 l 589 914 l 560 915 l 533 918 l 507 918 l 482 918 l 463 915 l 435 914 l 410 910 l 383 904 l 361 893 l 343 885 l 321 871 l 296 851 l 274 835 l 254 811 l 232 786 l 210 757 l 196 728 l 181 700 l 168 672 l 157 643 l 150 618 l 147 594 l 147 571 l 147 558 l 153 540 l 154 540 l 172 544 l 178 517 l 157 513 l 139 513 l 113 513 l 85 514 l 57 518 l 33 525 l 7 529 l 13 557 l 39 553 l 57 547 l 57 556 l 57 571 l 35 571 l 35 597 l 35 625 l 44 668 l 57 713 l 78 758 l 100 800 l 122 838 l 151 875 l 178 907 l 208 938 l 240 964 l 269 983 l 296 1006 l 325 1019 l 349 1033 l 372 1044 l 392 1050 l 415 1058 l 439 1061 l 460 1061 l 479 1063 l 500 1063 l 521 1063 l 544 1063 l 567 1061 l 593 1056 l 614 1050 l 635 1042 l 653 1033 l 671 1021 l 683 1013 l 703 1001 l 717 989 l 733 975 l 751 958 l 768 942 l 781 925 l 796 907 l 810 886 l 821 869 l 832 846 l 843 822 l 854 799 l 863 776 l 874 753 l 882 729 l 892 704 l 897 682 l 907 660 l 911 640 l 918 619 l 922 600 l 926 578 l 926 554 l 926 553 l 942 553 l 942 525 l 926 525 l 926 513 l 899 513 l 899 518 l 893 517 l 872 510 l 843 507 l 825 506 m 839 393 l 844 421 l 860 417 l 867 417 l 869 426 l 864 429 l 850 432 l 831 438 l 839 464 l 831 464 l 831 492 l 850 492 l 869 492 l 904 490 l 924 490 l 942 490 l 957 494 l 974 499 l 982 474 l 965 467 l 944 463 l 924 463 l 904 463 l 869 464 l 850 464 l 842 464 l 858 460 l 875 454 l 889 447 l 903 440 l 914 438 l 936 432 l 943 429 l 943 433 l 943 446 l 971 446 l 971 431 l 968 410 l 965 390 l 964 360 l 961 338 l 960 311 l 956 293 l 947 265 l 936 239 l 919 211 l 899 181 l 879 153 l 853 125 l 829 100 l 825 96 l 839 89 l 864 78 l 889 68 l 911 53 l 929 40 l 939 36 l 957 36 l 957 8 l 931 8 l 915 18 l 897 31 l 875 43 l 853 53 l 828 64 l 803 75 l 801 74 l 786 63 l 801 47 l 819 33 l 836 24 l 858 19 l 876 11 l 900 6 l 918 4 l 943 -3 l 935 -31 l 913 -24 l 894 -22 l 868 -14 l 850 -8 l 825 -1 l 803 11 l 782 28 l 764 46 l 763 47 l 754 42 l 775 21 l 797 0 l 815 -17 l 831 -22 l 849 -26 l 865 -26 l 865 -54 l 846 -54 l 822 -50 l 801 -39 l 778 -19 l 756 1 l 729 28 l 708 18 l 696 13 l 699 8 l 714 -12 l 731 -31 l 749 -53 l 764 -68 l 774 -78 l 788 -86 l 801 -93 l 790 -118 l 774 -111 l 757 -100 l 744 -87 l 729 -72 l 708 -50 l 692 -29 l 676 -8 l 671 0 l 642 -10 l 603 -22 l 569 -28 l 531 -28 l 499 -28 l 465 -28 l 424 -26 l 393 -22 l 356 -11 l 322 -3 l 286 10 l 256 28 l 225 46 l 193 68 l 165 89 l 142 113 l 122 138 l 106 168 l 92 199 l 78 228 l 65 258 l 50 286 l 42 310 l 39 325 l 22 343 l 39 358 l 60 374 l 82 385 l 103 396 l 111 401 l 104 399 l 75 397 l 56 397 l 35 397 l 10 401 l 15 429 l 38 425 l 56 425 l 75 425 l 99 426 l 111 429 l 128 439 l 147 454 l 164 432 l 144 417 l 158 422 l 176 426 l 196 429 l 218 429 l 218 401 l 199 401 l 182 399 l 167 394 l 144 388 l 132 381 l 136 361 l 144 344 l 153 321 l 161 301 l 171 281 l 182 260 l 197 236 l 214 211 l 235 189 l 257 164 l 279 146 l 306 129 l 329 113 l 353 101 l 378 97 l 408 93 l 440 90 l 468 90 l 497 90 l 532 94 l 565 99 l 599 108 l 632 126 l 657 140 l 657 142 l 658 142 l 665 146 l 700 175 l 732 201 l 754 228 l 776 258 l 800 294 l 815 325 l 835 357 l 849 385 l 853 390 l 839 393 m 79 335 l 107 340 l 110 317 l 125 293 l 136 260 l 151 229 l 171 197 l 192 169 l 217 150 l 240 132 l 268 119 l 263 124 l 238 144 l 215 169 l 192 194 l 175 222 l 160 246 l 146 267 l 136 290 l 128 310 l 119 333 l 111 353 l 107 367 l 96 360 l 74 349 l 61 340 l 65 342 l 69 315 l 71 311 l 76 314 l 86 292 l 101 271 l 106 264 l 100 282 l 85 308 l 79 335 m 782 139 l 767 129 l 768 128 l 782 139 m 782 139 l 789 144 l 782 139 z "},"R":{"ha":1025,"x_min":68,"x_max":888,"o":"m 214 892 l 213 890 l 214 888 l 215 889 l 214 892 m 408 514 l 442 521 l 504 533 l 561 549 l 613 568 l 657 593 l 692 617 l 721 646 l 747 674 l 758 704 l 758 728 l 754 754 l 744 775 l 729 796 l 706 818 l 676 836 l 643 856 l 613 876 l 578 889 l 540 904 l 510 914 l 478 922 l 444 926 l 410 926 l 368 926 l 339 924 l 306 918 l 272 910 l 242 899 l 242 896 l 267 897 l 296 903 l 326 903 l 361 903 l 397 896 l 439 892 l 475 881 l 518 869 l 551 857 l 590 840 l 624 825 l 660 807 l 692 786 l 714 763 l 728 739 l 728 710 l 724 676 l 700 646 l 674 614 l 633 589 l 594 574 l 542 556 l 485 538 l 433 521 l 408 514 m 218 442 l 221 439 l 225 436 l 238 440 l 243 444 l 231 443 l 218 442 m 797 821 l 768 853 l 744 872 l 707 896 l 667 915 l 631 928 l 590 942 l 564 949 l 524 950 l 486 953 l 458 953 l 483 950 l 518 942 l 551 929 l 589 914 l 624 901 l 657 881 l 690 861 l 722 840 l 749 815 l 769 789 l 782 763 l 786 731 l 786 699 l 769 660 l 740 626 l 708 594 l 671 568 l 624 543 l 569 521 l 510 506 l 447 493 l 379 479 l 322 463 l 269 449 l 251 446 l 260 433 l 307 433 l 354 438 l 417 444 l 476 453 l 538 464 l 594 478 l 644 499 l 696 525 l 742 554 l 782 583 l 815 619 l 829 643 l 839 665 l 839 689 l 836 718 l 833 742 l 825 769 l 810 797 l 797 821 m 253 939 l 233 935 l 235 926 l 254 933 l 253 939 m 303 404 l 324 399 l 367 399 l 415 401 l 454 407 l 503 422 l 557 438 l 614 456 l 668 471 l 719 482 l 761 504 l 794 528 l 817 551 l 836 575 l 850 599 l 860 626 l 860 644 l 854 629 l 838 603 l 801 564 l 758 532 l 710 500 l 656 474 l 603 453 l 543 436 l 482 425 l 419 417 l 357 410 l 307 406 l 303 404 m 150 844 l 178 844 l 178 825 l 178 801 l 178 763 l 181 724 l 181 681 l 182 636 l 182 600 l 182 574 l 181 554 l 179 550 l 186 550 l 207 550 l 228 557 l 233 536 l 243 543 l 268 550 l 274 522 l 254 518 l 240 507 l 222 499 l 208 493 l 221 494 l 257 500 l 308 514 l 367 531 l 425 549 l 476 565 l 533 583 l 586 599 l 619 614 l 654 636 l 678 663 l 699 688 l 700 710 l 700 731 l 692 746 l 675 764 l 646 782 l 613 800 l 579 815 l 540 832 l 510 842 l 467 853 l 433 864 l 394 868 l 358 875 l 326 875 l 299 875 l 269 869 l 247 868 l 242 867 l 242 836 l 242 804 l 242 764 l 239 726 l 232 686 l 226 649 l 224 618 l 217 593 l 215 579 l 211 556 l 183 561 l 188 582 l 189 599 l 196 624 l 199 651 l 204 692 l 211 729 l 214 764 l 214 804 l 214 836 l 214 843 l 207 844 l 182 850 l 157 861 l 136 869 l 128 875 l 128 854 l 131 825 l 138 783 l 139 740 l 143 690 l 146 640 l 147 597 l 147 565 l 147 550 l 151 550 l 153 557 l 154 574 l 154 600 l 154 636 l 153 681 l 153 724 l 150 763 l 150 801 l 150 825 l 150 844 m 68 821 l 96 821 l 96 790 l 96 756 l 96 713 l 96 667 l 96 628 l 97 599 l 103 572 l 106 553 l 119 551 l 119 565 l 119 597 l 118 640 l 115 688 l 111 738 l 110 781 l 103 822 l 100 854 l 100 878 l 124 878 l 115 883 l 101 894 l 83 907 l 97 929 l 118 917 l 132 906 l 150 894 l 168 886 l 165 889 l 150 904 l 138 918 l 125 932 l 115 946 l 100 978 l 125 989 l 140 960 l 147 949 l 157 938 l 165 929 l 161 939 l 154 954 l 146 979 l 171 988 l 179 965 l 186 950 l 194 929 l 200 915 l 208 919 l 204 936 l 204 953 l 203 971 l 200 988 l 228 993 l 231 974 l 231 963 l 249 967 l 283 974 l 325 981 l 371 985 l 422 986 l 471 986 l 524 986 l 571 981 l 618 967 l 658 953 l 706 933 l 742 914 l 771 890 l 797 865 l 818 839 l 844 813 l 865 778 l 882 744 l 886 714 l 888 682 l 888 654 l 888 621 l 875 588 l 858 558 l 839 532 l 814 506 l 775 479 l 728 457 l 676 443 l 622 428 l 565 410 l 511 394 l 471 383 l 476 381 l 499 369 l 529 354 l 556 339 l 586 321 l 617 303 l 649 281 l 676 253 l 706 213 l 722 185 l 744 154 l 763 125 l 778 99 l 789 75 l 797 49 l 804 31 l 811 8 l 819 -6 l 822 -22 l 794 -25 l 794 -14 l 786 -3 l 779 22 l 772 40 l 764 64 l 753 85 l 738 111 l 722 138 l 700 168 l 683 196 l 654 233 l 629 258 l 603 281 l 572 296 l 557 306 l 582 278 l 614 243 l 649 208 l 675 168 l 696 139 l 718 108 l 735 83 l 756 53 l 767 28 l 776 3 l 782 -12 l 754 -21 l 751 -6 l 742 17 l 731 39 l 713 67 l 696 92 l 674 122 l 653 151 l 626 192 l 594 224 l 563 258 l 535 289 l 507 308 l 482 328 l 465 339 l 482 321 l 510 286 l 540 251 l 567 217 l 596 175 l 617 133 l 638 101 l 647 68 l 661 35 l 675 3 l 679 -17 l 683 -33 l 656 -39 l 651 -22 l 647 -6 l 636 24 l 622 60 l 613 90 l 592 119 l 571 161 l 544 200 l 518 235 l 488 269 l 460 304 l 440 326 l 415 338 l 426 363 l 424 364 l 425 369 l 421 369 l 413 343 l 399 347 l 407 374 l 367 371 l 360 371 l 381 357 l 397 338 l 417 318 l 438 292 l 467 250 l 483 221 l 514 181 l 536 146 l 560 111 l 585 75 l 597 43 l 611 15 l 619 -3 l 594 -14 l 586 4 l 572 32 l 560 61 l 538 94 l 514 129 l 492 164 l 461 207 l 444 236 l 415 275 l 394 299 l 378 318 l 361 335 l 339 351 l 326 361 l 306 372 l 293 378 l 278 382 l 250 392 l 224 404 l 215 399 l 204 393 l 232 393 l 232 363 l 242 326 l 251 288 l 261 246 l 271 206 l 278 164 l 285 133 l 293 107 l 300 79 l 306 56 l 313 28 l 319 3 l 326 -17 l 333 -26 l 311 -43 l 301 -31 l 292 -6 l 285 22 l 278 50 l 272 74 l 265 99 l 257 125 l 250 158 l 243 200 l 233 240 l 224 282 l 214 321 l 204 360 l 204 393 l 199 390 l 179 382 l 165 379 l 165 376 l 165 357 l 165 333 l 165 299 l 167 256 l 169 214 l 169 169 l 172 129 l 174 86 l 176 50 l 178 22 l 178 3 l 150 3 l 150 22 l 149 47 l 146 83 l 144 128 l 142 169 l 142 214 l 139 253 l 138 235 l 135 186 l 128 138 l 126 101 l 124 76 l 119 60 l 119 44 l 92 44 l 92 63 l 96 82 l 99 104 l 100 140 l 107 189 l 110 235 l 111 283 l 111 326 l 111 354 l 111 363 l 97 360 l 92 388 l 111 392 l 114 392 l 114 393 l 117 393 l 126 394 l 138 394 l 138 396 l 140 396 l 154 404 l 171 410 l 188 415 l 182 418 l 186 432 l 182 436 l 168 433 l 151 426 l 136 421 l 118 414 l 100 410 l 82 410 l 82 438 l 97 438 l 110 440 l 128 449 l 143 451 l 160 458 l 178 464 l 188 468 l 176 474 l 182 482 l 163 478 l 142 475 l 125 475 l 101 475 l 82 475 l 82 503 l 101 503 l 125 503 l 139 503 l 157 506 l 174 510 l 189 514 l 208 522 l 186 522 l 167 522 l 147 522 l 147 517 l 119 517 l 119 524 l 110 524 l 114 513 l 89 504 l 81 525 l 79 544 l 75 567 l 69 596 l 68 628 l 68 667 l 68 713 l 68 756 l 68 790 l 68 821 m 168 371 l 196 374 l 197 351 l 200 319 l 204 282 l 211 246 l 217 204 l 222 156 l 226 108 l 231 69 l 232 39 l 236 13 l 242 -15 l 243 -31 l 215 -33 l 214 -18 l 208 7 l 204 36 l 203 67 l 199 106 l 194 153 l 189 201 l 183 240 l 176 279 l 172 317 l 169 349 l 168 371 z "},"S":{"ha":958,"x_min":7,"x_max":821,"o":"m 581 443 l 576 443 l 569 435 l 575 429 l 594 413 l 601 406 l 599 411 l 590 428 l 581 443 m 319 19 l 335 17 l 382 17 l 428 17 l 472 24 l 510 33 l 547 56 l 576 88 l 597 121 l 582 106 l 547 81 l 511 60 l 476 44 l 429 24 l 388 19 l 342 19 l 319 19 m 674 182 l 681 199 l 689 250 l 689 293 l 686 332 l 676 367 l 660 397 l 642 426 l 628 447 l 626 447 l 632 433 l 650 397 l 663 361 l 675 325 l 678 292 l 678 257 l 675 226 l 675 188 l 674 182 m 172 681 l 181 663 l 197 633 l 224 597 l 246 572 l 279 543 l 308 524 l 338 508 l 340 508 l 326 519 l 306 531 l 282 547 l 257 572 l 229 603 l 207 631 l 186 658 l 172 681 m 65 854 l 61 764 l 76 690 l 113 632 l 153 596 l 193 571 l 226 551 l 228 551 l 226 553 l 201 581 l 175 617 l 156 649 l 140 685 l 128 721 l 118 749 l 114 781 l 114 814 l 114 853 l 118 883 l 129 910 l 126 907 l 97 888 l 74 865 l 65 854 m 83 626 l 51 679 l 39 736 l 42 717 l 46 689 l 56 665 l 69 644 l 83 626 m 385 460 l 390 432 l 365 428 l 344 428 l 318 429 l 296 442 l 269 454 l 240 469 l 211 485 l 189 500 l 165 517 l 144 531 l 119 551 l 96 572 l 81 590 l 64 607 l 47 628 l 31 651 l 18 681 l 14 714 l 10 743 l 10 786 l 15 825 l 33 856 l 39 865 l 92 963 l 117 949 l 103 925 l 110 929 l 143 954 l 175 975 l 208 988 l 214 990 l 228 996 l 231 997 l 239 1000 l 268 1008 l 297 1015 l 328 1017 l 357 1019 l 390 1019 l 422 1019 l 456 1015 l 461 1014 l 474 1013 l 497 1003 l 519 994 l 549 979 l 579 961 l 610 942 l 644 925 l 678 901 l 707 878 l 732 856 l 760 836 l 783 811 l 807 786 l 821 763 l 796 749 l 785 769 l 764 792 l 740 814 l 715 833 l 690 856 l 661 879 l 642 892 l 663 869 l 686 846 l 707 828 l 724 814 l 739 799 l 751 785 l 732 765 l 719 779 l 704 794 l 690 806 l 667 826 l 643 850 l 618 878 l 597 904 l 574 926 l 549 946 l 519 960 l 486 978 l 476 981 l 454 986 l 435 989 l 403 989 l 367 989 l 335 988 l 294 983 l 267 976 l 239 971 l 224 964 l 213 958 l 188 942 l 171 925 l 157 903 l 146 875 l 142 850 l 142 833 l 150 863 l 172 888 l 196 906 l 228 922 l 263 935 l 299 946 l 338 954 l 367 957 l 406 961 l 433 961 l 461 961 l 490 954 l 517 944 l 549 928 l 574 906 l 600 885 l 635 854 l 657 825 l 676 794 l 697 767 l 708 742 l 710 718 l 682 715 l 681 736 l 672 753 l 654 778 l 635 808 l 615 835 l 583 863 l 557 883 l 532 906 l 506 919 l 482 926 l 458 933 l 433 933 l 408 933 l 369 929 l 343 926 l 307 918 l 271 907 l 239 897 l 210 883 l 192 868 l 175 849 l 169 831 l 169 804 l 169 775 l 174 749 l 183 721 l 196 696 l 208 675 l 229 647 l 251 619 l 276 592 l 301 569 l 319 553 l 340 542 l 354 532 l 381 525 l 401 525 l 401 503 l 415 506 l 415 510 l 413 526 l 413 533 l 394 528 l 363 538 l 344 550 l 324 563 l 296 586 l 274 610 l 251 633 l 229 661 l 213 688 l 201 715 l 194 738 l 194 765 l 200 799 l 218 824 l 244 850 l 276 868 l 315 886 l 357 900 l 401 904 l 442 904 l 482 903 l 521 886 l 561 854 l 594 824 l 629 788 l 657 753 l 676 725 l 654 708 l 635 736 l 607 768 l 575 804 l 544 832 l 507 861 l 476 875 l 442 876 l 401 876 l 363 872 l 326 861 l 290 843 l 261 828 l 240 804 l 225 788 l 222 763 l 222 740 l 226 724 l 238 701 l 251 678 l 274 653 l 293 629 l 315 606 l 340 585 l 358 572 l 374 563 l 394 556 l 406 560 l 407 557 l 429 567 l 439 544 l 440 529 l 443 513 l 444 492 l 444 474 l 444 454 l 440 444 l 456 456 l 463 467 l 467 479 l 467 493 l 467 510 l 463 525 l 460 543 l 449 550 l 465 572 l 482 557 l 490 531 l 494 513 l 494 493 l 494 474 l 488 456 l 475 436 l 450 417 l 439 408 l 446 410 l 456 418 l 468 428 l 482 440 l 492 454 l 507 471 l 514 482 l 517 499 l 517 517 l 517 531 l 515 549 l 543 551 l 544 531 l 544 517 l 544 496 l 539 474 l 529 454 l 514 438 l 501 421 l 489 410 l 507 417 l 521 426 l 531 433 l 524 440 l 543 460 l 550 454 l 554 460 l 563 471 l 558 476 l 547 485 l 564 507 l 567 504 l 568 510 l 576 508 l 576 510 l 604 507 l 603 496 l 621 489 l 647 467 l 664 443 l 685 411 l 701 378 l 714 338 l 717 293 l 717 247 l 708 190 l 686 143 l 661 99 l 626 56 l 586 13 l 576 22 l 569 15 l 531 -10 l 482 -22 l 438 -22 l 393 -19 l 343 -14 l 293 -11 l 249 -4 l 210 4 l 169 14 l 138 32 l 115 46 l 96 61 l 107 76 l 101 81 l 68 110 l 39 153 l 22 186 l 10 214 l 7 238 l 35 240 l 38 222 l 47 197 l 64 167 l 90 129 l 118 103 l 139 89 l 121 106 l 100 135 l 85 167 l 83 204 l 83 235 l 88 260 l 90 279 l 96 301 l 124 296 l 118 274 l 115 254 l 111 232 l 111 204 l 113 172 l 125 149 l 143 125 l 164 103 l 193 85 l 224 68 l 261 58 l 300 47 l 342 47 l 385 47 l 421 51 l 465 69 l 500 85 l 533 103 l 563 125 l 583 147 l 603 176 l 617 204 l 625 233 l 628 265 l 628 308 l 625 344 l 617 368 l 613 378 l 617 354 l 617 311 l 614 265 l 603 225 l 583 186 l 556 156 l 522 126 l 476 103 l 428 85 l 382 85 l 332 86 l 292 93 l 254 106 l 221 126 l 193 150 l 171 176 l 158 210 l 146 247 l 142 275 l 142 300 l 142 318 l 169 318 l 169 300 l 169 278 l 174 253 l 183 218 l 196 190 l 213 169 l 238 149 l 265 131 l 297 121 l 335 114 l 382 113 l 422 113 l 465 128 l 506 149 l 536 175 l 561 203 l 578 236 l 586 271 l 589 311 l 589 351 l 585 374 l 582 385 l 575 393 l 556 410 l 551 414 l 551 413 l 538 404 l 521 392 l 497 383 l 485 376 l 467 371 l 442 368 l 440 381 l 436 379 l 431 407 l 433 407 l 425 418 l 422 414 l 400 431 l 413 449 l 417 460 l 417 474 l 417 476 l 403 475 l 392 475 l 389 463 l 369 467 l 354 467 l 328 474 l 306 485 l 278 499 l 247 514 l 215 526 l 179 546 l 136 574 l 161 553 l 182 539 l 206 522 l 225 510 l 254 494 l 281 479 l 310 467 l 326 457 l 344 456 l 363 456 l 385 460 z "},"T":{"ha":943,"x_min":-62,"x_max":806,"o":"m 318 926 l 319 921 l 319 926 l 318 926 m 372 975 l 400 969 l 396 951 l 396 935 l 390 908 l 390 893 l 390 871 l 390 857 l 393 844 l 401 842 l 399 836 l 404 836 l 404 817 l 404 810 l 410 810 l 410 794 l 410 779 l 435 786 l 443 751 l 444 700 l 447 636 l 451 572 l 463 501 l 471 428 l 482 353 l 494 279 l 506 217 l 521 153 l 535 97 l 544 57 l 554 21 l 564 7 l 542 -10 l 529 10 l 517 49 l 507 92 l 493 147 l 478 211 l 467 274 l 454 347 l 443 425 l 435 499 l 424 569 l 419 633 l 417 700 l 415 749 l 410 769 l 410 750 l 417 672 l 419 592 l 425 510 l 432 424 l 444 333 l 458 250 l 465 182 l 471 131 l 474 89 l 475 54 l 478 28 l 479 13 l 483 1 l 458 -10 l 451 7 l 450 25 l 447 51 l 446 86 l 443 128 l 438 179 l 431 247 l 417 328 l 411 372 l 413 326 l 415 254 l 417 192 l 419 142 l 419 99 l 421 69 l 421 49 l 393 49 l 393 69 l 392 99 l 392 142 l 389 192 l 388 254 l 385 326 l 382 403 l 382 481 l 381 507 l 381 424 l 381 344 l 371 268 l 369 203 l 369 139 l 367 92 l 365 56 l 363 28 l 335 31 l 338 58 l 339 92 l 342 139 l 342 203 l 343 271 l 353 347 l 353 424 l 353 508 l 353 585 l 347 654 l 343 725 l 342 775 l 342 807 l 340 814 l 328 807 l 319 824 l 315 843 l 315 878 l 308 876 l 293 876 l 297 857 l 282 854 l 258 849 l 226 840 l 190 831 l 147 815 l 101 800 l 65 786 l 33 774 l 11 765 l 0 790 l 22 799 l 54 811 l 93 825 l 139 840 l 182 858 l 218 868 l 243 874 l 224 872 l 183 865 l 135 861 l 85 853 l 42 842 l -1 833 l -40 826 l -57 822 l -62 850 l -46 854 l -7 861 l 36 869 l 79 881 l 132 889 l 181 893 l 221 900 l 258 903 l 290 904 l 306 904 l 318 906 l 318 915 l 304 911 l 272 911 l 243 911 l 203 910 l 160 910 l 113 910 l 60 910 l 15 907 l -22 903 l -44 896 l -53 924 l -28 931 l 13 935 l 60 938 l 113 938 l 160 938 l 203 938 l 214 938 l 169 944 l 124 949 l 78 949 l 39 949 l 13 949 l 13 976 l 39 976 l 78 976 l 124 976 l 172 972 l 219 965 l 261 961 l 299 957 l 318 954 l 321 954 l 328 969 l 353 958 l 347 946 l 347 929 l 346 900 l 343 876 l 343 846 l 344 832 l 351 824 l 367 826 l 369 810 l 369 775 l 371 725 l 375 657 l 376 639 l 376 706 l 376 774 l 376 817 l 376 825 l 371 828 l 363 854 l 363 871 l 363 893 l 363 911 l 368 938 l 368 954 l 372 975 m 422 972 l 444 956 l 433 944 l 435 929 l 435 908 l 435 879 l 435 858 l 436 846 l 440 851 l 449 867 l 463 893 l 463 907 l 458 935 l 457 949 l 451 968 l 475 975 l 475 976 l 478 975 l 479 976 l 479 975 l 489 974 l 503 974 l 531 974 l 568 974 l 599 976 l 638 976 l 668 981 l 701 982 l 733 986 l 753 989 l 756 961 l 736 958 l 704 954 l 671 953 l 640 949 l 599 949 l 568 946 l 531 946 l 503 946 l 486 946 l 485 946 l 486 938 l 490 910 l 490 907 l 501 904 l 531 903 l 557 903 l 589 900 l 619 897 l 657 897 l 699 897 l 742 897 l 771 897 l 800 903 l 806 875 l 774 869 l 742 869 l 699 869 l 657 869 l 619 869 l 586 872 l 557 875 l 531 875 l 496 876 l 486 879 l 483 875 l 493 874 l 522 872 l 546 869 l 578 868 l 610 861 l 636 858 l 664 857 l 688 850 l 703 846 l 697 818 l 679 822 l 658 829 l 633 831 l 604 833 l 575 840 l 543 842 l 519 844 l 490 846 l 471 847 l 463 835 l 453 824 l 442 808 l 419 824 l 411 822 l 408 842 l 407 858 l 407 879 l 407 908 l 407 929 l 408 953 l 422 972 m 490 911 l 493 939 l 515 938 l 535 935 l 567 932 l 599 931 l 639 931 l 682 931 l 721 938 l 751 943 l 757 915 l 726 910 l 685 903 l 639 903 l 599 903 l 564 904 l 532 907 l 513 910 l 490 911 z "},"U":{"ha":1011,"x_min":57,"x_max":872,"o":"m 636 111 l 633 108 l 636 110 l 636 111 m 726 183 l 735 224 l 736 258 l 729 229 l 718 190 l 708 156 l 690 129 l 671 108 l 653 88 l 638 78 l 603 63 l 579 58 l 579 53 l 579 44 l 603 44 l 622 50 l 636 63 l 657 86 l 678 111 l 697 139 l 718 167 l 726 183 m 200 919 l 197 903 l 192 879 l 189 857 l 188 824 l 181 781 l 178 724 l 178 675 l 178 631 l 178 593 l 178 561 l 181 519 l 182 475 l 189 438 l 197 406 l 201 375 l 208 349 l 215 322 l 222 297 l 231 274 l 242 249 l 250 229 l 254 221 l 246 244 l 233 283 l 218 336 l 211 378 l 204 421 l 204 465 l 203 511 l 203 556 l 203 606 l 203 656 l 203 700 l 203 743 l 203 786 l 203 829 l 203 868 l 203 897 l 200 919 m 85 563 l 85 539 l 85 508 l 85 474 l 88 439 l 88 410 l 96 379 l 100 350 l 107 326 l 117 296 l 131 260 l 146 229 l 165 203 l 146 250 l 131 300 l 114 357 l 100 414 l 96 461 l 90 506 l 88 544 l 85 563 m 503 81 l 528 89 l 535 72 l 536 57 l 539 32 l 539 11 l 539 -8 l 528 -28 l 515 -21 l 517 -25 l 489 -31 l 482 0 l 478 19 l 474 40 l 464 58 l 456 78 l 447 92 l 447 115 l 475 115 l 475 100 l 481 89 l 489 69 l 499 51 l 506 25 l 510 6 l 511 0 l 511 11 l 511 29 l 508 54 l 507 67 l 503 81 m 542 114 l 569 122 l 574 108 l 593 115 l 608 122 l 619 132 l 633 153 l 644 171 l 657 193 l 665 219 l 674 253 l 678 282 l 682 321 l 685 361 l 686 404 l 689 442 l 689 474 l 690 508 l 693 547 l 697 588 l 700 631 l 700 675 l 701 717 l 701 750 l 701 785 l 701 814 l 701 843 l 701 867 l 700 890 l 700 910 l 700 928 l 728 928 l 728 910 l 728 890 l 729 867 l 729 843 l 729 814 l 729 785 l 729 750 l 729 717 l 728 675 l 728 631 l 725 585 l 721 544 l 718 506 l 717 474 l 717 442 l 714 401 l 713 361 l 710 318 l 706 279 l 701 247 l 693 211 l 682 182 l 669 157 l 656 136 l 643 118 l 651 128 l 668 146 l 683 167 l 690 199 l 701 238 l 713 275 l 721 314 l 729 357 l 739 396 l 743 436 l 747 479 l 751 525 l 754 571 l 756 617 l 760 660 l 763 703 l 767 746 l 774 788 l 774 817 l 774 849 l 774 876 l 771 901 l 771 925 l 771 940 l 771 956 l 799 956 l 799 940 l 799 925 l 799 904 l 801 879 l 801 849 l 801 817 l 801 785 l 794 743 l 790 700 l 788 657 l 783 614 l 782 571 l 779 522 l 775 476 l 771 435 l 778 433 l 769 325 l 778 364 l 786 406 l 794 447 l 797 497 l 801 567 l 806 638 l 813 694 l 817 726 l 817 751 l 817 779 l 817 824 l 819 885 l 825 926 l 828 946 l 828 960 l 856 960 l 856 947 l 872 947 l 872 918 l 872 879 l 872 849 l 872 824 l 872 801 l 871 776 l 864 738 l 857 696 l 851 653 l 847 614 l 842 576 l 838 546 l 833 517 l 826 479 l 822 436 l 817 401 l 813 363 l 806 336 l 801 300 l 790 261 l 782 217 l 769 174 l 751 139 l 740 122 l 736 106 l 721 74 l 703 47 l 682 25 l 664 10 l 632 -4 l 631 -4 l 626 -7 l 607 -7 l 590 -7 l 579 -4 l 579 -6 l 579 -7 l 575 -26 l 547 -21 l 551 -4 l 551 14 l 551 35 l 551 53 l 551 71 l 547 97 l 542 114 m 399 78 l 399 50 l 371 50 l 351 51 l 329 64 l 308 81 l 282 101 l 264 132 l 244 158 l 231 190 l 217 218 l 204 249 l 190 275 l 178 306 l 165 342 l 154 372 l 146 404 l 139 432 l 131 469 l 122 506 l 118 550 l 111 599 l 107 638 l 104 669 l 104 636 l 108 590 l 115 547 l 118 508 l 124 464 l 128 419 l 142 365 l 158 308 l 171 258 l 190 214 l 210 179 l 229 147 l 258 108 l 289 69 l 311 44 l 329 36 l 351 36 l 365 39 l 393 47 l 406 49 l 404 53 l 400 82 l 392 81 l 376 81 l 368 81 l 368 78 l 371 78 l 399 78 m 390 14 l 390 -14 l 376 -14 l 361 -14 l 343 -14 l 324 -11 l 296 -1 l 269 21 l 246 46 l 222 74 l 199 99 l 179 126 l 161 154 l 144 185 l 121 215 l 106 249 l 92 288 l 79 318 l 72 344 l 68 374 l 60 407 l 60 439 l 57 474 l 57 508 l 57 539 l 57 571 l 57 615 l 60 656 l 61 692 l 64 726 l 68 765 l 68 776 l 65 799 l 57 835 l 57 875 l 57 906 l 57 940 l 67 967 l 85 961 l 89 968 l 114 957 l 107 940 l 104 928 l 104 925 l 104 924 l 129 913 l 122 896 l 122 883 l 122 867 l 122 840 l 122 793 l 124 746 l 126 710 l 132 672 l 135 640 l 139 601 l 146 553 l 150 511 l 154 494 l 153 519 l 150 561 l 150 593 l 150 631 l 150 675 l 150 724 l 153 783 l 160 826 l 161 860 l 164 885 l 169 908 l 174 933 l 189 968 l 204 1000 l 229 989 l 214 957 l 214 956 l 226 956 l 226 940 l 228 922 l 231 900 l 231 868 l 231 829 l 231 786 l 231 743 l 231 700 l 231 656 l 231 606 l 231 556 l 231 511 l 232 465 l 232 424 l 239 383 l 246 342 l 261 292 l 274 253 l 283 218 l 296 186 l 314 157 l 333 128 l 347 115 l 363 108 l 376 108 l 392 108 l 396 108 l 394 113 l 419 124 l 421 121 l 424 124 l 443 104 l 428 89 l 428 85 l 432 58 l 439 33 l 443 13 l 444 -7 l 447 -21 l 419 -26 l 417 -10 l 415 10 l 413 21 l 399 19 l 379 14 l 390 14 z "},"V":{"ha":1049,"x_min":-56,"x_max":910,"o":"m 365 199 l 363 206 l 344 236 l 321 290 l 293 344 l 265 410 l 231 486 l 196 565 l 165 646 l 135 724 l 108 797 l 89 860 l 69 913 l 57 951 l 47 979 l 72 988 l 82 960 l 94 921 l 114 868 l 133 806 l 160 735 l 190 657 l 221 576 l 253 504 l 247 522 l 219 600 l 194 685 l 172 760 l 149 832 l 131 894 l 115 939 l 104 967 l 129 978 l 140 950 l 158 903 l 176 840 l 200 768 l 222 693 l 247 608 l 272 531 l 300 451 l 325 388 l 350 328 l 369 275 l 389 232 l 400 204 l 408 185 l 406 183 l 410 181 l 400 168 l 410 165 l 404 149 l 404 133 l 401 108 l 400 79 l 400 50 l 400 31 l 401 14 l 407 1 l 382 -10 l 374 8 l 372 31 l 372 50 l 372 79 l 374 103 l 365 76 l 358 53 l 356 36 l 354 22 l 354 3 l 326 3 l 326 22 l 328 39 l 331 58 l 338 85 l 346 111 l 354 133 l 365 164 l 356 158 l 340 185 l 321 217 l 290 265 l 258 321 l 225 390 l 190 461 l 154 540 l 121 611 l 93 679 l 69 738 l 47 788 l 32 826 l 17 858 l 4 883 l 29 894 l 42 869 l 57 838 l 72 799 l 94 749 l 118 690 l 146 622 l 179 551 l 215 472 l 250 401 l 283 335 l 315 279 l 346 231 l 365 199 m 425 186 l 450 175 l 444 161 l 457 169 l 464 182 l 474 201 l 483 231 l 497 268 l 514 319 l 533 376 l 560 443 l 586 515 l 617 594 l 644 678 l 671 758 l 701 838 l 729 899 l 746 946 l 760 972 l 765 986 l 790 978 l 785 961 l 771 935 l 754 888 l 726 826 l 696 750 l 669 669 l 642 586 l 611 507 l 585 432 l 558 368 l 539 311 l 522 260 l 508 222 l 499 190 l 489 171 l 481 154 l 474 157 l 478 144 l 481 147 l 490 167 l 506 201 l 521 240 l 543 297 l 567 356 l 594 418 l 625 490 l 653 564 l 688 638 l 722 710 l 756 779 l 781 842 l 803 892 l 821 933 l 833 965 l 858 954 l 846 922 l 828 881 l 806 831 l 781 768 l 747 699 l 713 626 l 678 553 l 650 479 l 619 407 l 592 344 l 568 286 l 546 229 l 531 190 l 515 156 l 503 131 l 490 118 l 488 122 l 493 103 l 501 117 l 514 138 l 532 168 l 549 204 l 572 250 l 597 300 l 626 356 l 657 422 l 690 497 l 722 571 l 760 644 l 792 715 l 821 779 l 846 831 l 868 876 l 885 915 l 910 904 l 893 865 l 871 819 l 846 768 l 817 704 l 785 633 l 747 560 l 715 486 l 682 411 l 651 344 l 622 286 l 597 236 l 574 193 l 557 154 l 539 124 l 526 103 l 515 85 l 494 97 l 494 82 l 500 64 l 504 42 l 506 25 l 506 13 l 508 -7 l 481 -10 l 478 10 l 478 25 l 476 39 l 472 58 l 467 79 l 467 96 l 460 117 l 449 143 l 443 153 l 443 135 l 443 107 l 443 78 l 447 58 l 451 36 l 456 13 l 428 7 l 424 31 l 419 53 l 415 75 l 415 107 l 415 135 l 415 163 l 425 186 m 336 174 l 314 157 l 303 174 l 286 201 l 269 235 l 239 281 l 210 335 l 174 397 l 140 471 l 104 540 l 69 611 l 36 681 l 7 738 l -14 788 l -29 824 l -47 857 l -56 878 l -31 889 l -22 868 l -4 835 l 11 799 l 32 749 l 61 692 l 94 622 l 129 554 l 165 482 l 199 411 l 235 349 l 264 294 l 294 249 l 311 215 l 325 188 l 336 174 z "},"W":{"ha":1421,"x_min":-58,"x_max":1283,"o":"m 983 350 l 983 346 l 993 396 l 983 350 m 553 860 l 554 860 l 554 861 l 553 860 m 385 307 l 396 301 l 379 271 l 369 246 l 369 224 l 354 224 l 376 201 l 393 181 l 393 185 l 393 207 l 393 247 l 400 303 l 415 364 l 426 429 l 442 500 l 453 565 l 442 535 l 421 463 l 410 394 l 393 335 l 385 307 m 471 157 l 474 172 l 482 226 l 492 286 l 496 351 l 501 421 l 511 493 l 517 563 l 526 631 l 539 696 l 547 754 l 556 804 l 561 835 l 556 850 l 549 825 l 546 813 l 554 810 l 549 789 l 539 760 l 532 721 l 524 682 l 514 626 l 506 560 l 497 492 l 489 425 l 478 361 l 474 306 l 471 243 l 471 196 l 471 157 m 686 750 l 685 756 l 681 778 l 674 761 l 669 750 l 686 750 m 715 825 l 708 843 l 707 851 l 706 842 l 700 824 l 700 819 l 715 825 m 772 686 l 764 707 l 749 736 l 756 718 l 772 686 m 700 972 l 728 964 l 721 940 l 718 922 l 714 894 l 710 868 l 708 861 l 732 867 l 736 851 l 746 818 l 763 769 l 789 718 l 811 661 l 835 607 l 857 546 l 874 485 l 894 429 l 919 372 l 936 317 l 950 274 l 958 253 l 963 269 l 969 292 l 947 294 l 956 356 l 971 426 l 988 500 l 1010 588 l 1033 679 l 1060 768 l 1082 847 l 1101 910 l 1129 901 l 1110 839 l 1088 760 l 1061 671 l 1038 582 l 1025 535 l 1050 597 l 1067 660 l 1085 719 l 1104 768 l 1118 808 l 1129 847 l 1138 881 l 1144 908 l 1172 903 l 1165 875 l 1157 839 l 1143 800 l 1129 760 l 1110 711 l 1094 651 l 1075 589 l 1053 526 l 1035 463 l 1022 400 l 1011 340 l 1000 299 l 990 261 l 981 228 l 981 214 l 976 214 l 979 199 l 992 172 l 999 140 l 1003 113 l 1007 85 l 1010 61 l 1011 42 l 1011 21 l 1006 -8 l 979 -3 l 953 -8 l 947 19 l 943 35 l 940 53 l 933 78 l 932 97 l 925 124 l 921 147 l 921 139 l 921 118 l 921 96 l 921 76 l 921 56 l 921 33 l 921 3 l 893 3 l 893 33 l 893 56 l 893 76 l 893 96 l 893 118 l 893 139 l 894 169 l 890 150 l 883 126 l 876 93 l 871 63 l 867 38 l 864 18 l 861 4 l 833 10 l 836 24 l 839 43 l 843 68 l 849 99 l 856 132 l 860 147 l 849 171 l 836 211 l 828 253 l 810 307 l 794 371 l 779 432 l 764 493 l 743 563 l 724 631 l 706 682 l 700 681 l 703 663 l 721 608 l 738 535 l 753 453 l 771 371 l 794 288 l 813 207 l 822 142 l 833 101 l 840 71 l 813 65 l 806 96 l 794 136 l 785 201 l 767 282 l 743 365 l 725 447 l 710 529 l 693 600 l 675 657 l 671 699 l 669 719 l 667 735 l 667 744 l 657 724 l 632 735 l 642 756 l 649 772 l 657 796 l 671 825 l 671 826 l 669 838 l 675 838 l 678 847 l 682 874 l 686 900 l 690 925 l 693 946 l 700 972 m 910 196 l 938 204 l 946 175 l 949 151 l 953 129 l 960 103 l 961 83 l 968 58 l 971 40 l 975 25 l 979 3 l 983 24 l 983 42 l 982 58 l 979 82 l 975 107 l 971 135 l 964 164 l 956 186 l 954 186 l 946 206 l 938 231 l 925 265 l 908 308 l 894 364 l 869 418 l 849 476 l 829 538 l 810 596 l 800 615 l 821 558 l 838 501 l 851 450 l 867 397 l 882 343 l 897 294 l 913 260 l 928 229 l 936 208 l 911 197 l 903 218 l 888 249 l 872 283 l 854 335 l 839 389 l 824 442 l 810 493 l 793 550 l 775 607 l 756 657 l 731 707 l 719 736 l 729 701 l 751 639 l 771 571 l 792 501 l 807 438 l 822 376 l 838 315 l 856 261 l 864 217 l 872 186 l 893 206 l 913 183 l 894 169 l 918 169 l 910 196 m 1025 235 l 997 243 l 1001 257 l 1006 281 l 1018 313 l 1032 361 l 1049 417 l 1069 478 l 1093 546 l 1115 615 l 1139 679 l 1161 740 l 1178 794 l 1196 839 l 1206 868 l 1211 888 l 1239 879 l 1233 860 l 1221 828 l 1203 786 l 1186 732 l 1164 671 l 1140 607 l 1118 538 l 1094 469 l 1076 408 l 1060 353 l 1043 304 l 1033 272 l 1029 251 l 1025 235 m 1032 157 l 1007 165 l 1018 199 l 1029 235 l 1044 288 l 1064 343 l 1085 407 l 1113 472 l 1142 542 l 1169 610 l 1196 676 l 1217 735 l 1239 781 l 1249 814 l 1256 840 l 1283 832 l 1276 806 l 1264 769 l 1242 724 l 1221 665 l 1194 599 l 1167 531 l 1138 461 l 1110 399 l 1092 335 l 1072 279 l 1057 226 l 1043 190 l 1032 157 m 494 103 l 467 103 l 467 106 l 467 107 l 443 107 l 443 129 l 443 157 l 443 196 l 443 243 l 446 308 l 450 364 l 461 428 l 469 494 l 454 424 l 443 358 l 428 297 l 421 244 l 421 207 l 421 185 l 419 168 l 399 169 l 407 157 l 419 131 l 431 103 l 439 74 l 444 50 l 450 28 l 464 0 l 439 -11 l 425 17 l 417 42 l 411 65 l 403 94 l 394 119 l 382 143 l 371 164 l 357 182 l 347 192 l 347 186 l 351 163 l 358 131 l 358 104 l 361 78 l 363 58 l 365 44 l 369 28 l 369 11 l 342 11 l 342 25 l 338 39 l 335 56 l 335 40 l 335 25 l 307 25 l 307 40 l 307 56 l 307 69 l 307 90 l 307 118 l 307 146 l 308 172 l 308 175 l 301 151 l 293 113 l 285 74 l 282 43 l 281 21 l 278 1 l 250 4 l 253 24 l 254 46 l 257 76 l 265 118 l 268 129 l 257 126 l 254 139 l 244 153 l 232 174 l 215 214 l 190 267 l 163 322 l 135 388 l 108 460 l 78 533 l 50 611 l 26 682 l 6 747 l -12 806 l -25 860 l -44 906 l -58 944 l -31 953 l -19 914 l 0 868 l 15 814 l 33 756 l 54 690 l 75 619 l 103 544 l 133 471 l 160 399 l 188 333 l 215 278 l 240 225 l 257 188 l 269 167 l 274 158 l 278 172 l 269 201 l 256 233 l 231 279 l 208 336 l 174 397 l 146 464 l 121 535 l 93 606 l 69 671 l 50 731 l 38 778 l 26 818 l 11 850 l 36 861 l 51 829 l 65 786 l 78 739 l 94 679 l 118 617 l 146 543 l 171 475 l 199 408 l 215 379 l 190 446 l 164 524 l 139 601 l 118 682 l 99 757 l 83 825 l 72 879 l 61 918 l 57 950 l 85 953 l 89 924 l 100 885 l 111 831 l 126 763 l 146 690 l 167 610 l 192 532 l 215 454 l 242 388 l 267 331 l 258 361 l 235 431 l 204 517 l 174 615 l 149 718 l 125 821 l 111 901 l 107 967 l 104 1004 l 132 1007 l 135 969 l 139 904 l 153 826 l 176 724 l 201 624 l 232 525 l 260 439 l 286 369 l 301 308 l 313 269 l 321 238 l 325 222 l 342 226 l 342 251 l 354 282 l 363 297 l 354 299 l 365 343 l 382 400 l 393 468 l 417 543 l 442 617 l 463 694 l 490 771 l 514 838 l 538 894 l 543 908 l 539 938 l 532 968 l 560 974 l 567 943 l 569 921 l 576 918 l 575 915 l 589 914 l 586 921 l 585 939 l 581 960 l 576 981 l 604 986 l 608 965 l 613 942 l 614 926 l 621 901 l 624 879 l 624 856 l 625 838 l 626 831 l 636 856 l 643 881 l 647 908 l 651 933 l 651 958 l 651 974 l 647 986 l 675 994 l 679 976 l 679 958 l 679 931 l 675 903 l 671 875 l 661 847 l 651 821 l 647 806 l 643 790 l 629 794 l 601 792 l 600 815 l 597 835 l 596 856 l 596 874 l 590 840 l 589 836 l 590 835 l 593 817 l 586 815 l 583 799 l 575 749 l 567 690 l 554 625 l 544 560 l 539 490 l 529 418 l 524 349 l 519 283 l 510 221 l 501 167 l 494 132 l 494 103 m 354 224 l 343 224 l 344 214 l 354 224 z "},"X":{"ha":989,"x_min":24,"x_max":850,"o":"m 467 393 l 474 403 l 478 419 l 485 442 l 492 464 l 492 490 l 489 514 l 489 539 l 489 554 l 479 588 l 472 597 l 464 607 l 467 601 l 471 585 l 475 565 l 478 544 l 479 517 l 479 486 l 479 460 l 475 429 l 469 404 l 467 393 m 350 418 l 354 422 l 354 424 l 350 418 m 354 383 l 363 379 l 358 389 l 354 383 m 278 211 l 263 183 l 278 211 m 571 344 l 576 335 l 607 296 l 640 254 l 668 215 l 696 178 l 714 146 l 735 115 l 757 92 l 769 72 l 783 54 l 796 44 l 811 32 l 794 10 l 779 22 l 764 35 l 747 56 l 735 75 l 713 99 l 692 132 l 674 161 l 646 199 l 618 238 l 603 257 l 622 228 l 650 192 l 669 160 l 688 129 l 707 101 l 718 81 l 733 64 l 742 49 l 750 40 l 761 35 l 747 10 l 733 18 l 719 32 l 711 47 l 696 64 l 682 88 l 665 115 l 644 146 l 628 175 l 600 211 l 574 250 l 544 292 l 522 319 l 501 347 l 513 331 l 533 294 l 554 253 l 578 211 l 604 167 l 631 117 l 647 83 l 665 51 l 678 29 l 686 14 l 661 0 l 653 15 l 640 38 l 622 69 l 606 103 l 579 153 l 553 197 l 529 239 l 508 281 l 488 317 l 468 349 l 465 358 l 456 367 l 454 363 l 429 376 l 439 392 l 442 410 l 447 435 l 451 463 l 451 486 l 451 517 l 450 542 l 450 511 l 447 485 l 443 456 l 439 432 l 435 410 l 431 394 l 431 382 l 403 382 l 403 397 l 407 415 l 411 438 l 415 461 l 419 488 l 422 514 l 422 542 l 422 561 l 424 582 l 426 607 l 435 606 l 433 610 l 458 621 l 460 617 l 479 632 l 494 614 l 504 600 l 515 613 l 521 619 l 504 632 l 506 633 l 492 643 l 503 658 l 519 678 l 533 707 l 561 746 l 588 790 l 618 833 l 646 876 l 676 918 l 703 953 l 725 981 l 739 993 l 746 1004 l 771 990 l 761 974 l 744 961 l 725 936 l 699 901 l 668 860 l 640 817 l 610 774 l 586 735 l 596 747 l 626 783 l 657 822 l 692 867 l 726 907 l 754 940 l 772 964 l 788 982 l 797 1001 l 810 1014 l 829 992 l 819 985 l 810 968 l 794 947 l 776 924 l 749 890 l 714 850 l 679 806 l 657 776 l 682 804 l 714 842 l 749 876 l 774 899 l 792 922 l 807 940 l 819 960 l 828 971 l 850 954 l 842 943 l 829 924 l 814 906 l 793 879 l 768 857 l 733 822 l 701 785 l 669 750 l 640 714 l 610 679 l 578 644 l 556 619 l 538 596 l 518 572 l 510 579 l 517 557 l 517 539 l 517 517 l 519 493 l 519 461 l 513 433 l 506 411 l 499 392 l 489 376 l 493 360 l 501 347 l 493 371 l 514 379 l 511 383 l 503 394 l 525 411 l 536 422 l 554 403 l 575 379 l 608 344 l 640 308 l 675 271 l 710 232 l 735 196 l 757 161 l 779 133 l 796 103 l 814 78 l 829 61 l 839 46 l 849 35 l 829 15 l 817 29 l 807 44 l 792 61 l 774 89 l 757 117 l 735 144 l 713 179 l 688 215 l 656 251 l 621 289 l 589 325 l 571 344 m 369 625 l 371 622 l 382 608 l 382 610 l 372 622 l 369 625 m 415 629 l 421 601 l 414 601 l 417 593 l 401 589 l 396 579 l 390 560 l 389 531 l 389 529 l 397 517 l 386 508 l 385 490 l 382 454 l 382 422 l 382 403 l 386 393 l 400 390 l 392 363 l 389 364 l 386 353 l 379 336 l 361 306 l 346 276 l 326 242 l 303 197 l 281 158 l 264 122 l 242 89 l 225 58 l 210 33 l 197 15 l 186 -3 l 164 14 l 175 29 l 185 47 l 200 72 l 217 103 l 239 136 l 256 172 l 239 144 l 208 107 l 189 76 l 167 47 l 153 26 l 146 11 l 136 -1 l 114 15 l 121 25 l 128 40 l 144 64 l 167 93 l 186 124 l 217 161 l 235 192 l 258 233 l 281 268 l 303 304 l 322 331 l 336 356 l 340 365 l 328 350 l 303 322 l 275 288 l 247 250 l 217 215 l 186 174 l 164 132 l 136 92 l 117 60 l 97 33 l 86 11 l 75 -4 l 53 10 l 61 25 l 75 47 l 94 76 l 114 106 l 139 146 l 164 188 l 185 218 l 172 204 l 143 172 l 119 142 l 93 111 l 74 83 l 61 63 l 49 42 l 24 56 l 36 76 l 51 100 l 71 128 l 97 158 l 121 189 l 153 224 l 183 258 l 217 296 l 244 335 l 276 375 l 301 401 l 325 432 l 340 451 l 356 472 l 357 493 l 360 522 l 336 554 l 315 581 l 294 608 l 268 647 l 238 686 l 207 721 l 186 756 l 168 790 l 144 821 l 122 849 l 99 874 l 78 894 l 58 907 l 46 918 l 33 925 l 47 950 l 63 940 l 75 929 l 94 917 l 118 893 l 144 868 l 167 838 l 190 804 l 211 769 l 229 738 l 260 703 l 290 664 l 317 625 l 338 597 l 358 571 l 363 565 l 367 579 l 363 578 l 358 594 l 349 608 l 333 636 l 307 669 l 281 708 l 249 746 l 218 782 l 199 811 l 179 836 l 163 860 l 142 885 l 122 910 l 101 940 l 89 960 l 79 975 l 101 992 l 114 974 l 124 954 l 144 926 l 164 901 l 185 876 l 201 853 l 221 828 l 240 799 l 271 763 l 303 725 l 322 696 l 301 732 l 271 778 l 244 829 l 217 867 l 197 894 l 178 925 l 163 956 l 149 975 l 136 996 l 158 1010 l 171 992 l 188 969 l 203 939 l 219 911 l 239 883 l 267 843 l 296 792 l 326 746 l 353 697 l 375 667 l 394 639 l 403 626 l 415 629 m 504 661 l 479 672 l 494 704 l 517 746 l 546 793 l 576 840 l 607 886 l 638 922 l 661 953 l 672 974 l 682 990 l 707 976 l 697 960 l 683 936 l 660 906 l 629 869 l 599 824 l 568 779 l 542 732 l 519 690 l 504 661 z "},"Y":{"ha":985,"x_min":13,"x_max":846,"o":"m 496 367 l 493 381 l 492 401 l 489 425 l 486 442 l 479 460 l 471 478 l 469 479 l 471 465 l 471 446 l 471 424 l 471 403 l 471 381 l 468 364 l 475 364 l 496 365 l 496 367 m 413 371 l 413 367 l 414 367 l 432 364 l 440 364 l 443 383 l 443 403 l 443 424 l 443 446 l 443 465 l 442 485 l 442 492 l 436 478 l 432 458 l 424 433 l 417 410 l 415 390 l 413 371 m 522 479 l 500 493 l 511 514 l 503 519 l 500 515 l 475 526 l 482 542 l 490 564 l 513 610 l 532 660 l 560 715 l 597 769 l 626 831 l 657 885 l 679 931 l 703 968 l 724 994 l 746 978 l 725 951 l 704 917 l 682 871 l 651 817 l 622 756 l 585 701 l 557 649 l 543 613 l 571 658 l 597 707 l 629 758 l 663 811 l 693 860 l 724 903 l 746 933 l 767 960 l 782 981 l 792 993 l 814 974 l 804 964 l 789 943 l 768 917 l 746 886 l 715 843 l 685 797 l 654 744 l 622 693 l 611 674 l 618 683 l 650 732 l 685 783 l 722 833 l 757 876 l 782 917 l 800 942 l 815 960 l 824 972 l 846 956 l 838 943 l 822 925 l 821 924 l 836 908 l 815 885 l 788 846 l 753 797 l 715 743 l 681 692 l 649 646 l 621 603 l 592 563 l 575 535 l 556 511 l 547 500 l 538 479 l 526 485 l 522 479 m 376 349 l 382 376 l 385 375 l 388 393 l 389 415 l 396 442 l 404 467 l 408 486 l 411 493 l 400 472 l 392 447 l 381 418 l 378 397 l 374 379 l 371 360 l 343 363 l 346 385 l 350 403 l 353 426 l 367 456 l 375 483 l 383 501 l 381 504 l 375 518 l 358 532 l 339 551 l 353 536 l 363 519 l 378 500 l 356 483 l 340 503 l 331 519 l 314 536 l 294 561 l 275 585 l 249 622 l 222 658 l 197 696 l 164 731 l 133 771 l 106 808 l 78 843 l 49 881 l 28 906 l 13 931 l 35 944 l 50 922 l 71 897 l 100 860 l 128 825 l 156 788 l 186 749 l 219 713 l 244 675 l 271 639 l 297 601 l 317 578 l 324 571 l 314 582 l 292 611 l 268 651 l 238 697 l 206 747 l 172 796 l 142 840 l 113 883 l 100 915 l 82 946 l 107 960 l 125 926 l 138 897 l 164 857 l 194 813 l 228 761 l 260 711 l 290 665 l 314 628 l 336 599 l 357 572 l 372 557 l 371 561 l 354 590 l 335 628 l 317 665 l 314 671 l 283 717 l 253 763 l 217 811 l 186 856 l 156 901 l 133 932 l 117 957 l 104 976 l 129 990 l 139 971 l 156 949 l 178 918 l 208 872 l 239 828 l 249 814 l 243 828 l 221 867 l 206 900 l 189 935 l 174 964 l 163 983 l 154 999 l 179 1013 l 188 997 l 199 978 l 214 946 l 231 911 l 246 881 l 268 839 l 288 796 l 311 744 l 335 690 l 340 679 l 356 656 l 378 622 l 396 593 l 407 576 l 415 556 l 406 551 l 408 544 l 393 538 l 397 535 l 399 531 l 401 535 l 425 522 l 428 535 l 444 531 l 460 532 l 461 533 l 463 532 l 465 532 l 465 529 l 476 517 l 496 492 l 504 471 l 514 450 l 517 428 l 519 404 l 521 383 l 524 367 l 525 340 l 497 338 l 497 339 l 478 336 l 475 336 l 478 308 l 482 279 l 485 238 l 485 194 l 485 146 l 485 96 l 485 49 l 485 14 l 485 -10 l 485 -29 l 457 -29 l 457 -10 l 457 14 l 457 49 l 457 96 l 457 146 l 457 194 l 457 238 l 454 276 l 450 306 l 447 333 l 475 336 l 453 336 l 429 336 l 410 339 l 410 319 l 410 283 l 410 239 l 410 192 l 410 146 l 410 107 l 408 69 l 408 43 l 406 21 l 378 24 l 381 46 l 381 69 l 382 107 l 382 146 l 382 192 l 382 239 l 382 283 l 382 319 l 382 347 l 376 349 m 417 328 l 444 328 l 444 307 l 444 276 l 444 238 l 444 192 l 444 142 l 444 96 l 443 50 l 443 11 l 443 -12 l 415 -12 l 415 11 l 415 50 l 417 96 l 417 142 l 417 192 l 417 238 l 417 276 l 417 307 l 417 328 m 485 333 l 513 336 l 514 310 l 517 286 l 521 258 l 524 225 l 525 185 l 528 146 l 528 107 l 529 78 l 532 51 l 538 29 l 543 17 l 550 0 l 525 -11 l 518 6 l 513 21 l 504 46 l 501 75 l 500 107 l 500 146 l 497 182 l 496 222 l 493 256 l 489 283 l 486 307 l 485 333 z "},"Z":{"ha":910,"x_min":-3,"x_max":772,"o":"m 611 838 l 611 844 l 603 842 l 603 844 l 597 839 l 601 839 l 611 838 m 203 86 l 203 100 l 201 99 l 193 86 l 203 86 m 529 597 l 556 629 l 588 663 l 611 694 l 628 721 l 650 749 l 671 772 l 683 786 l 693 799 l 701 808 l 693 807 l 676 807 l 689 794 l 671 776 l 653 753 l 631 731 l 606 696 l 575 654 l 536 607 l 529 597 m 96 -18 l 85 7 l 103 14 l 121 32 l 133 50 l 151 72 l 158 83 l 138 68 l 113 46 l 88 29 l 64 11 l 46 0 l 29 -10 l 11 -14 l 6 14 l 21 15 l 32 22 l 47 33 l 71 51 l 96 68 l 121 90 l 103 82 l 72 68 l 49 57 l 29 51 l 3 54 l 6 82 l 26 79 l 40 82 l 61 93 l 92 107 l 118 119 l 138 131 l 153 140 l 128 132 l 99 125 l 72 117 l 44 113 l 15 113 l -3 117 l 3 144 l 18 140 l 42 140 l 47 142 l 63 163 l 79 179 l 101 207 l 122 238 l 153 274 l 186 315 l 218 358 l 257 408 l 299 463 l 340 517 l 385 569 l 429 624 l 465 671 l 500 715 l 533 749 l 554 779 l 576 806 l 599 789 l 576 763 l 556 732 l 522 696 l 488 654 l 451 607 l 407 553 l 363 500 l 321 446 l 279 392 l 240 342 l 208 299 l 175 257 l 144 221 l 124 190 l 101 160 l 93 153 l 119 160 l 144 168 l 163 174 l 171 146 l 157 142 l 165 128 l 181 143 l 192 154 l 200 146 l 206 157 l 231 143 l 217 122 l 210 110 l 217 110 l 243 110 l 268 110 l 297 110 l 336 110 l 382 110 l 428 113 l 490 118 l 547 121 l 608 128 l 660 133 l 703 136 l 732 143 l 738 115 l 706 108 l 663 106 l 611 100 l 550 93 l 507 90 l 557 90 l 610 90 l 661 90 l 700 90 l 728 93 l 747 94 l 750 67 l 731 65 l 700 63 l 661 63 l 610 63 l 557 63 l 507 63 l 444 63 l 394 63 l 333 61 l 283 61 l 240 58 l 208 58 l 181 58 l 176 58 l 174 56 l 182 54 l 199 54 l 228 54 l 269 51 l 314 49 l 368 47 l 422 47 l 492 44 l 556 40 l 607 39 l 656 36 l 696 32 l 717 29 l 735 28 l 732 0 l 714 1 l 694 4 l 694 -22 l 678 -22 l 656 -19 l 628 -15 l 586 -11 l 535 -8 l 475 -7 l 418 -4 l 351 -3 l 297 -3 l 247 0 l 207 1 l 179 4 l 161 8 l 165 29 l 167 47 l 156 33 l 143 13 l 117 -8 l 96 -18 m 207 158 l 188 178 l 207 200 l 226 228 l 256 271 l 283 315 l 318 369 l 357 417 l 396 467 l 438 517 l 475 569 l 514 624 l 553 671 l 583 711 l 576 704 l 544 667 l 507 622 l 471 569 l 436 519 l 393 468 l 353 419 l 318 372 l 283 321 l 254 272 l 228 235 l 199 200 l 179 171 l 157 188 l 176 217 l 206 251 l 232 289 l 261 335 l 296 389 l 331 436 l 371 485 l 414 536 l 449 586 l 485 639 l 522 683 l 554 721 l 585 757 l 607 779 l 626 807 l 624 807 l 596 811 l 578 814 l 583 842 l 588 840 l 574 854 l 585 865 l 606 882 l 611 888 l 600 885 l 581 885 l 561 882 l 561 861 l 535 860 l 500 853 l 453 850 l 389 846 l 324 842 l 264 838 l 203 833 l 144 831 l 100 825 l 61 815 l 32 810 l 26 838 l 56 843 l 94 853 l 142 858 l 200 861 l 190 861 l 135 860 l 96 854 l 60 853 l 22 849 l 19 876 l 57 881 l 93 882 l 132 888 l 190 889 l 257 892 l 322 892 l 386 893 l 450 900 l 501 904 l 547 908 l 578 913 l 597 913 l 613 917 l 618 893 l 625 900 l 651 919 l 678 939 l 699 961 l 700 963 l 689 958 l 660 950 l 644 940 l 642 939 l 647 928 l 628 919 l 613 918 l 596 915 l 569 914 l 535 910 l 493 904 l 444 903 l 383 900 l 322 899 l 256 896 l 194 896 l 144 896 l 99 896 l 60 894 l 60 922 l 99 924 l 144 924 l 194 924 l 256 924 l 322 926 l 383 928 l 444 931 l 490 932 l 501 933 l 440 933 l 371 938 l 293 939 l 217 946 l 151 949 l 104 949 l 71 949 l 71 976 l 104 976 l 151 976 l 219 974 l 296 967 l 371 965 l 440 961 l 507 961 l 556 961 l 590 961 l 618 961 l 633 965 l 649 975 l 681 986 l 699 992 l 706 968 l 724 983 l 731 999 l 756 988 l 746 967 l 718 942 l 697 919 l 668 897 l 661 892 l 676 901 l 696 911 l 714 924 l 725 935 l 739 953 l 761 936 l 744 915 l 731 901 l 710 886 l 690 876 l 663 861 l 656 858 l 669 861 l 694 868 l 714 876 l 732 886 l 742 894 l 756 904 l 772 882 l 758 872 l 746 864 l 725 851 l 703 843 l 679 835 l 690 835 l 713 838 l 732 839 l 749 842 l 763 843 l 765 815 l 751 814 l 735 811 l 732 811 l 738 803 l 724 792 l 715 782 l 706 769 l 690 753 l 672 732 l 650 704 l 633 678 l 610 646 l 575 610 l 544 572 l 514 531 l 482 489 l 449 449 l 413 407 l 379 364 l 344 319 l 314 279 l 290 246 l 278 256 l 249 211 l 229 183 l 207 158 m 626 807 l 647 792 l 651 796 l 663 807 l 642 807 l 626 807 z "},"a":{"ha":1017,"x_min":-22,"x_max":879,"o":"m 619 404 l 604 393 l 611 394 l 619 404 m 576 431 l 576 432 l 560 424 l 574 429 l 576 431 m 624 429 l 610 421 l 611 419 l 621 406 l 632 417 l 624 417 l 624 429 m 160 269 l 181 274 l 169 276 l 161 282 l 160 269 m 704 338 l 706 340 l 701 338 l 704 338 m 453 347 l 485 344 l 525 342 l 560 342 l 575 344 l 572 347 l 556 347 l 525 347 l 492 347 l 453 347 m 326 351 l 300 354 l 288 354 l 286 353 l 288 353 l 306 353 l 326 351 m 479 317 l 447 319 l 407 321 l 368 321 l 335 324 l 306 325 l 285 325 l 263 329 l 257 317 l 265 314 l 282 314 l 307 313 l 340 313 l 372 313 l 407 313 l 447 313 l 479 317 m 282 286 l 285 282 l 314 279 l 346 278 l 375 275 l 408 275 l 436 279 l 464 282 l 493 288 l 521 292 l 528 294 l 489 290 l 450 285 l 407 285 l 372 285 l 340 285 l 307 285 l 282 286 m 374 831 l 401 825 l 397 797 l 381 765 l 365 731 l 339 679 l 310 628 l 283 571 l 256 522 l 240 488 l 239 486 l 236 472 l 228 446 l 219 449 l 215 440 l 190 451 l 200 472 l 214 496 l 218 513 l 226 550 l 243 600 l 261 658 l 281 719 l 300 774 l 319 824 l 331 863 l 339 899 l 347 922 l 356 939 l 381 925 l 372 911 l 367 890 l 358 854 l 344 815 l 325 765 l 308 711 l 289 650 l 286 643 l 314 693 l 340 742 l 356 776 l 369 806 l 374 831 m 404 744 l 429 736 l 425 721 l 418 694 l 392 651 l 364 604 l 332 554 l 303 514 l 282 479 l 263 450 l 250 429 l 242 407 l 235 393 l 210 407 l 217 418 l 225 440 l 240 464 l 260 493 l 281 528 l 310 571 l 339 618 l 367 665 l 393 706 l 397 729 l 404 744 m 96 256 l 124 250 l 121 239 l 125 253 l 131 269 l 135 290 l 156 286 l 147 292 l 133 304 l 115 335 l 114 351 l 142 354 l 143 343 l 156 321 l 164 314 l 181 301 l 199 299 l 201 299 l 208 311 l 218 306 l 218 307 l 231 325 l 232 328 l 222 328 l 201 329 l 185 338 l 167 347 l 153 360 l 140 372 l 132 385 l 154 401 l 163 389 l 172 379 l 183 369 l 196 363 l 210 357 l 222 356 l 239 356 l 222 364 l 201 374 l 183 390 l 167 408 l 158 435 l 183 443 l 192 422 l 203 410 l 218 396 l 233 389 l 236 388 l 242 392 l 249 404 l 267 424 l 279 446 l 299 474 l 321 504 l 344 535 l 365 560 l 383 588 l 396 610 l 414 632 l 426 647 l 440 668 l 463 651 l 449 631 l 436 615 l 418 593 l 408 574 l 388 543 l 367 518 l 343 488 l 321 457 l 301 432 l 289 407 l 271 388 l 268 383 l 303 382 l 333 379 l 374 375 l 414 375 l 453 375 l 492 375 l 525 375 l 556 375 l 576 375 l 578 375 l 582 394 l 594 392 l 596 392 l 588 404 l 561 396 l 553 421 l 544 440 l 536 461 l 525 493 l 510 535 l 493 586 l 478 642 l 458 690 l 443 743 l 428 793 l 413 842 l 397 879 l 389 907 l 385 926 l 413 932 l 417 913 l 422 888 l 438 853 l 456 801 l 471 751 l 483 699 l 503 650 l 521 594 l 535 543 l 550 501 l 561 472 l 569 451 l 575 440 l 569 458 l 563 493 l 551 532 l 542 579 l 531 632 l 515 686 l 500 739 l 482 790 l 467 843 l 451 894 l 447 928 l 446 950 l 474 953 l 475 931 l 479 900 l 494 851 l 510 799 l 528 747 l 543 694 l 558 638 l 563 617 l 563 635 l 551 686 l 542 738 l 535 782 l 521 828 l 508 879 l 501 917 l 500 953 l 528 953 l 529 919 l 536 885 l 549 836 l 563 788 l 569 743 l 579 692 l 590 638 l 590 593 l 594 551 l 599 514 l 601 481 l 610 457 l 610 454 l 617 458 l 625 465 l 625 486 l 625 519 l 625 550 l 621 592 l 615 632 l 606 679 l 597 721 l 585 772 l 574 818 l 565 864 l 556 908 l 554 931 l 547 951 l 575 960 l 582 936 l 583 911 l 593 869 l 601 824 l 613 778 l 625 726 l 633 685 l 643 638 l 649 594 l 653 550 l 653 519 l 653 486 l 653 483 l 656 485 l 674 490 l 685 497 l 699 472 l 685 465 l 667 460 l 653 450 l 651 435 l 651 433 l 653 435 l 669 444 l 685 453 l 699 431 l 683 419 l 669 413 l 656 401 l 640 386 l 625 369 l 638 378 l 643 368 l 647 371 l 663 388 l 685 413 l 704 432 l 724 413 l 704 393 l 682 368 l 667 351 l 644 333 l 629 329 l 639 317 l 646 322 l 663 338 l 683 360 l 697 376 l 714 394 l 724 404 l 728 413 l 729 424 l 757 421 l 756 404 l 746 388 l 733 375 l 719 360 l 715 354 l 733 353 l 732 329 l 736 307 l 754 271 l 771 240 l 789 207 l 806 171 l 821 139 l 835 111 l 846 90 l 856 65 l 867 46 l 876 25 l 879 10 l 851 4 l 849 17 l 842 35 l 831 54 l 821 79 l 810 97 l 796 128 l 781 160 l 764 193 l 756 210 l 765 181 l 778 143 l 785 111 l 796 85 l 806 57 l 813 38 l 817 17 l 822 -1 l 794 -10 l 789 11 l 785 29 l 778 49 l 771 76 l 760 103 l 750 135 l 740 172 l 726 210 l 714 246 l 701 281 l 690 308 l 689 325 l 682 318 l 683 318 l 683 304 l 686 283 l 696 254 l 708 222 l 717 186 l 722 151 l 729 117 l 738 92 l 743 68 l 749 44 l 754 28 l 761 13 l 736 1 l 729 17 l 721 36 l 715 63 l 710 83 l 701 111 l 694 146 l 689 181 l 681 214 l 671 246 l 658 278 l 657 296 l 643 286 l 640 286 l 644 274 l 653 246 l 658 211 l 664 183 l 671 149 l 675 113 l 682 88 l 683 65 l 688 47 l 660 42 l 656 63 l 654 82 l 647 107 l 643 143 l 636 178 l 631 206 l 625 240 l 617 265 l 610 290 l 603 294 l 593 288 l 572 282 l 554 275 l 529 264 l 499 260 l 467 254 l 439 251 l 411 247 l 375 247 l 343 250 l 311 251 l 279 254 l 258 258 l 232 268 l 222 272 l 213 272 l 213 264 l 213 242 l 213 203 l 208 158 l 200 111 l 192 72 l 185 35 l 182 14 l 182 -4 l 185 -21 l 157 -26 l 154 -7 l 154 17 l 157 40 l 164 78 l 172 117 l 181 161 l 185 203 l 178 197 l 167 146 l 153 100 l 136 51 l 121 17 l 107 -12 l 101 -33 l 94 -47 l 69 -33 l 76 -22 l 82 -4 l 96 28 l 111 63 l 125 108 l 139 154 l 150 203 l 157 238 l 160 258 l 158 261 l 153 244 l 143 211 l 129 175 l 114 125 l 92 79 l 72 35 l 60 1 l 51 -25 l 39 -44 l 17 -28 l 26 -14 l 35 10 l 47 46 l 67 90 l 89 136 l 104 183 l 114 214 l 92 174 l 72 133 l 51 93 l 33 60 l 18 25 l 3 -4 l -22 10 l -7 36 l 8 71 l 26 107 l 47 144 l 67 188 l 89 225 l 96 256 m 625 369 l 596 364 l 601 360 l 607 358 l 613 361 l 625 369 z "},"b":{"ha":943,"x_min":46,"x_max":806,"o":"m 190 911 l 179 907 l 174 928 l 172 908 l 169 863 l 165 813 l 158 753 l 157 714 l 161 731 l 169 776 l 176 819 l 183 860 l 188 892 l 190 911 m 413 939 l 399 944 l 369 949 l 351 950 l 321 950 l 294 949 l 274 949 l 250 946 l 233 944 l 225 943 l 224 939 l 236 942 l 260 942 l 279 942 l 294 942 l 318 942 l 340 942 l 367 942 l 393 942 l 413 939 m 628 628 l 646 649 l 668 674 l 683 694 l 686 711 l 686 728 l 682 740 l 681 756 l 675 769 l 668 782 l 657 796 l 643 813 l 633 828 l 619 846 l 606 861 l 590 875 l 574 885 l 560 893 l 538 899 l 514 908 l 493 914 l 499 911 l 528 899 l 549 885 l 568 867 l 589 850 l 607 829 l 617 811 l 631 788 l 638 768 l 643 749 l 651 732 l 653 697 l 647 663 l 631 632 l 628 628 m 693 663 l 699 667 l 721 688 l 743 713 l 753 729 l 756 749 l 756 763 l 754 779 l 754 790 l 746 806 l 739 821 l 728 835 l 714 850 l 696 864 l 679 878 l 658 897 l 639 906 l 608 921 l 582 936 l 551 949 l 524 954 l 490 958 l 456 961 l 431 963 l 453 958 l 475 950 l 496 942 l 522 933 l 546 926 l 571 918 l 588 910 l 607 897 l 625 881 l 642 863 l 656 844 l 665 829 l 679 813 l 690 799 l 700 781 l 708 761 l 710 746 l 714 731 l 714 708 l 708 683 l 693 663 m 356 89 l 358 89 l 406 90 l 450 93 l 488 101 l 531 113 l 574 128 l 615 150 l 651 172 l 678 203 l 696 232 l 696 233 l 682 222 l 661 208 l 626 188 l 599 168 l 561 153 l 525 138 l 483 125 l 433 113 l 388 97 l 356 89 m 528 463 l 492 463 l 446 463 l 418 460 l 443 460 l 478 456 l 517 446 l 553 438 l 586 425 l 615 413 l 642 401 l 660 390 l 679 379 l 689 372 l 685 379 l 674 394 l 653 413 l 626 429 l 593 444 l 561 456 l 528 463 m 271 431 l 265 429 l 235 414 l 231 424 l 226 407 l 214 389 l 203 375 l 188 363 l 181 357 l 189 357 l 189 333 l 189 308 l 192 275 l 197 239 l 201 206 l 208 169 l 211 132 l 219 99 l 219 94 l 232 96 l 231 82 l 236 86 l 254 89 l 278 94 l 308 104 l 340 114 l 379 125 l 425 140 l 475 153 l 517 163 l 550 178 l 585 193 l 613 210 l 646 231 l 665 244 l 683 258 l 689 272 l 689 289 l 689 311 l 689 325 l 683 336 l 675 349 l 665 357 l 646 365 l 628 376 l 604 388 l 575 400 l 544 410 l 511 418 l 472 428 l 440 432 l 407 432 l 367 432 l 333 432 l 301 432 l 278 418 l 271 431 m 771 208 l 778 231 l 778 271 l 774 308 l 769 322 l 771 308 l 772 265 l 772 233 l 771 208 m 525 39 l 567 47 l 615 58 l 656 65 l 685 81 l 717 106 l 746 142 l 757 168 l 731 139 l 696 117 l 647 94 l 601 72 l 556 53 l 525 39 m 417 18 l 451 35 l 500 57 l 544 78 l 590 97 l 636 119 l 682 142 l 714 161 l 735 183 l 743 207 l 744 233 l 744 265 l 743 306 l 740 336 l 733 360 l 719 383 l 701 407 l 694 413 l 707 396 l 719 376 l 729 354 l 732 329 l 733 299 l 733 263 l 721 221 l 700 186 l 668 150 l 629 125 l 585 103 l 539 85 l 493 74 l 453 65 l 406 63 l 361 61 l 322 58 l 293 56 l 271 54 l 249 54 l 228 54 l 233 39 l 242 21 l 238 19 l 249 17 l 263 17 l 286 17 l 313 17 l 351 17 l 390 17 l 417 18 m 58 356 l 67 381 l 86 375 l 103 369 l 114 364 l 124 364 l 138 364 l 140 365 l 142 371 l 149 369 l 158 374 l 171 385 l 183 394 l 192 406 l 201 418 l 203 428 l 203 431 l 196 424 l 179 411 l 158 399 l 135 389 l 114 389 l 89 389 l 71 393 l 79 421 l 92 417 l 114 417 l 129 417 l 147 424 l 149 425 l 147 425 l 131 428 l 97 432 l 79 442 l 53 457 l 46 475 l 71 486 l 75 476 l 93 467 l 106 460 l 133 456 l 150 453 l 169 453 l 178 458 l 190 469 l 204 481 l 210 474 l 210 492 l 225 492 l 251 492 l 278 492 l 315 494 l 342 500 l 375 510 l 413 521 l 444 533 l 447 533 l 467 543 l 510 556 l 526 563 l 536 567 l 558 588 l 588 613 l 606 646 l 622 671 l 625 697 l 624 726 l 618 740 l 613 760 l 606 776 l 592 797 l 585 813 l 569 831 l 551 844 l 532 863 l 514 874 l 485 886 l 465 900 l 439 907 l 417 911 l 390 914 l 367 914 l 340 914 l 318 914 l 294 914 l 279 914 l 260 914 l 239 914 l 224 911 l 218 911 l 215 889 l 211 857 l 204 814 l 197 771 l 189 725 l 178 679 l 172 643 l 167 619 l 167 596 l 165 571 l 165 551 l 167 540 l 172 526 l 163 522 l 182 522 l 193 521 l 201 529 l 206 540 l 231 532 l 224 513 l 201 496 l 182 494 l 163 494 l 138 494 l 118 497 l 94 503 l 79 506 l 61 510 l 67 538 l 75 535 l 75 556 l 75 590 l 75 636 l 75 685 l 75 740 l 75 804 l 75 854 l 76 897 l 76 928 l 76 951 l 104 951 l 104 928 l 104 897 l 103 854 l 103 804 l 103 740 l 103 685 l 103 636 l 103 590 l 103 556 l 103 529 l 119 525 l 119 542 l 119 571 l 119 606 l 122 653 l 129 699 l 131 756 l 138 815 l 142 865 l 144 911 l 146 938 l 150 965 l 178 960 l 174 935 l 189 939 l 196 939 l 199 954 l 200 954 l 193 975 l 211 982 l 231 985 l 256 989 l 286 992 l 317 992 l 351 992 l 388 992 l 422 992 l 458 989 l 493 986 l 529 982 l 560 976 l 593 961 l 622 946 l 650 931 l 672 919 l 699 900 l 713 886 l 733 869 l 750 851 l 761 835 l 771 819 l 782 796 l 782 779 l 783 763 l 783 746 l 778 721 l 765 696 l 740 668 l 718 644 l 689 624 l 661 601 l 628 579 l 596 558 l 588 556 l 581 550 l 551 528 l 519 511 l 503 500 l 550 500 l 596 500 l 642 496 l 686 478 l 724 447 l 750 421 l 771 389 l 789 353 l 801 314 l 806 274 l 806 228 l 789 175 l 771 128 l 736 86 l 699 58 l 664 40 l 621 31 l 572 19 l 518 8 l 475 1 l 431 -8 l 424 -8 l 415 -12 l 365 -29 l 322 -46 l 289 -54 l 264 -58 l 240 -58 l 219 -57 l 200 -39 l 219 -19 l 231 -32 l 240 -31 l 261 -31 l 283 -26 l 314 -18 l 335 -11 l 313 -11 l 286 -11 l 263 -11 l 246 -11 l 224 -6 l 208 4 l 215 13 l 208 28 l 200 46 l 196 67 l 192 93 l 183 126 l 185 108 l 189 81 l 189 57 l 193 36 l 197 14 l 200 -1 l 172 -7 l 169 8 l 165 31 l 161 54 l 161 78 l 157 106 l 154 143 l 150 186 l 144 232 l 142 271 l 139 308 l 139 331 l 139 333 l 139 336 l 124 336 l 106 336 l 96 342 l 96 326 l 96 292 l 96 254 l 97 214 l 97 179 l 97 138 l 97 104 l 97 76 l 97 53 l 97 31 l 97 14 l 106 -3 l 81 -14 l 69 8 l 69 31 l 69 53 l 69 76 l 69 104 l 69 138 l 69 179 l 69 214 l 68 254 l 68 292 l 68 326 l 68 346 l 68 351 l 58 356 m 99 328 l 126 328 l 128 300 l 131 275 l 135 236 l 138 192 l 138 150 l 138 110 l 138 79 l 139 51 l 142 35 l 142 19 l 154 4 l 132 -12 l 117 11 l 114 32 l 111 49 l 110 79 l 110 110 l 110 150 l 110 192 l 107 233 l 103 272 l 100 297 l 99 328 m 228 54 l 228 60 l 226 60 l 228 54 m 182 146 l 181 167 l 182 146 z "},"c":{"ha":1017,"x_min":19,"x_max":879,"o":"m 817 268 l 815 256 l 794 229 l 782 217 l 767 203 l 746 185 l 724 169 l 704 147 l 671 119 l 638 85 l 600 68 l 563 56 l 522 56 l 481 56 l 444 58 l 406 61 l 372 65 l 333 76 l 301 88 l 269 99 l 240 117 l 210 135 l 183 160 l 158 182 l 136 210 l 121 226 l 117 232 l 126 215 l 131 207 l 140 193 l 158 169 l 172 154 l 189 136 l 211 118 l 239 104 l 269 89 l 299 72 l 325 60 l 336 58 l 371 49 l 394 44 l 429 36 l 451 32 l 474 28 l 496 25 l 522 24 l 542 21 l 550 21 l 571 24 l 599 28 l 629 39 l 654 53 l 683 71 l 706 88 l 731 103 l 735 104 l 736 106 l 757 128 l 781 156 l 796 186 l 810 219 l 818 238 l 821 253 l 825 264 l 817 268 m 106 254 l 118 261 l 117 269 l 101 261 l 103 258 l 106 254 m 847 728 l 819 731 l 821 744 l 821 763 l 815 789 l 807 804 l 800 819 l 793 832 l 778 849 l 767 863 l 756 879 l 740 892 l 722 906 l 701 917 l 681 928 l 660 939 l 638 946 l 615 953 l 589 958 l 564 958 l 538 958 l 510 961 l 481 961 l 453 958 l 417 953 l 393 946 l 361 931 l 336 918 l 313 899 l 290 871 l 260 836 l 239 806 l 218 775 l 199 738 l 181 704 l 165 668 l 153 628 l 142 588 l 138 553 l 135 526 l 135 496 l 138 467 l 110 464 l 107 496 l 107 526 l 110 556 l 114 593 l 125 636 l 140 679 l 156 715 l 174 751 l 193 789 l 217 822 l 238 853 l 268 888 l 293 918 l 314 935 l 299 928 l 272 913 l 247 893 l 232 876 l 213 854 l 197 839 l 182 818 l 168 793 l 157 764 l 144 732 l 135 700 l 126 667 l 118 642 l 111 614 l 104 588 l 103 560 l 100 535 l 100 517 l 100 496 l 100 478 l 103 464 l 75 458 l 72 475 l 72 496 l 72 517 l 72 538 l 75 563 l 76 590 l 83 619 l 90 650 l 99 675 l 107 708 l 119 740 l 132 775 l 143 804 l 160 832 l 175 856 l 193 874 l 213 896 l 228 913 l 256 935 l 285 953 l 315 965 l 347 981 l 372 990 l 406 1001 l 439 1011 l 468 1017 l 497 1021 l 526 1021 l 557 1021 l 583 1021 l 606 1021 l 632 1017 l 656 1015 l 676 1008 l 696 1004 l 717 996 l 733 988 l 753 975 l 772 963 l 786 950 l 799 938 l 814 922 l 831 903 l 843 882 l 858 856 l 871 828 l 875 804 l 879 779 l 879 749 l 875 726 l 847 732 l 847 728 m 28 444 l 42 469 l 63 456 l 90 453 l 110 453 l 122 453 l 135 457 l 139 457 l 139 461 l 142 493 l 142 525 l 146 553 l 153 585 l 164 617 l 174 644 l 186 681 l 204 715 l 222 747 l 242 775 l 264 801 l 281 822 l 303 843 l 329 865 l 353 882 l 381 901 l 404 911 l 431 922 l 460 924 l 483 924 l 514 924 l 535 924 l 557 924 l 579 922 l 607 915 l 629 911 l 654 901 l 675 890 l 694 878 l 711 867 l 729 854 l 743 839 l 761 819 l 779 797 l 793 778 l 801 754 l 810 732 l 810 715 l 810 701 l 782 701 l 782 715 l 782 726 l 776 746 l 768 764 l 757 781 l 739 800 l 724 819 l 710 832 l 694 844 l 681 856 l 661 865 l 643 876 l 621 883 l 601 888 l 574 894 l 557 896 l 535 896 l 514 896 l 483 896 l 460 896 l 436 894 l 415 886 l 394 876 l 369 860 l 346 843 l 322 824 l 300 803 l 286 785 l 264 758 l 244 733 l 229 701 l 211 669 l 199 636 l 192 608 l 181 576 l 174 547 l 169 522 l 169 493 l 167 461 l 167 432 l 150 432 l 143 429 l 125 425 l 110 425 l 88 425 l 54 431 l 28 444 m 53 247 l 58 275 l 68 272 l 88 285 l 100 292 l 108 301 l 115 308 l 101 304 l 71 299 l 53 297 l 50 325 l 68 326 l 96 332 l 114 336 l 126 343 l 143 353 l 156 369 l 164 381 l 169 389 l 154 379 l 135 371 l 118 371 l 100 371 l 82 374 l 67 375 l 40 382 l 19 383 l 22 411 l 46 410 l 72 403 l 85 401 l 103 399 l 118 399 l 129 399 l 140 404 l 165 418 l 178 428 l 194 406 l 190 403 l 204 399 l 199 383 l 186 364 l 178 353 l 174 347 l 176 346 l 164 326 l 154 311 l 139 293 l 128 282 l 126 281 l 142 283 l 146 260 l 154 249 l 176 229 l 200 214 l 229 196 l 261 181 l 294 168 l 335 163 l 378 158 l 422 156 l 461 153 l 503 153 l 539 156 l 574 167 l 606 183 l 636 208 l 663 236 l 686 258 l 707 276 l 725 290 l 736 301 l 746 313 l 756 325 l 758 340 l 763 363 l 763 376 l 790 376 l 790 360 l 786 335 l 781 314 l 768 296 l 756 282 l 744 271 l 724 254 l 706 239 l 682 217 l 656 189 l 622 161 l 585 142 l 544 128 l 503 125 l 461 125 l 419 128 l 375 131 l 332 135 l 289 140 l 250 156 l 215 171 l 203 179 l 226 157 l 254 142 l 281 124 l 310 113 l 342 104 l 378 93 l 408 89 l 447 86 l 481 83 l 522 83 l 557 83 l 589 93 l 621 107 l 651 139 l 685 167 l 704 189 l 729 207 l 747 225 l 763 236 l 775 249 l 790 267 l 792 288 l 781 299 l 803 315 l 815 299 l 815 300 l 850 275 l 849 247 l 843 229 l 835 208 l 821 175 l 803 142 l 796 132 l 808 119 l 793 104 l 776 94 l 761 86 l 750 81 l 729 63 l 703 39 l 678 22 l 650 3 l 621 -7 l 590 -8 l 568 -8 l 551 -7 l 546 -8 l 515 -8 l 486 -8 l 460 -7 l 431 0 l 401 7 l 374 15 l 347 21 l 319 32 l 317 33 l 304 35 l 279 44 l 254 53 l 232 64 l 211 72 l 190 89 l 169 108 l 153 126 l 139 144 l 122 161 l 111 185 l 107 192 l 101 200 l 93 215 l 78 247 l 74 244 l 53 247 m 847 732 l 851 751 l 851 776 l 847 799 l 843 819 l 833 842 l 818 868 l 808 886 l 794 903 l 779 918 l 767 931 l 756 940 l 739 953 l 719 963 l 706 971 l 688 976 l 668 981 l 650 988 l 629 989 l 603 993 l 583 993 l 557 993 l 526 993 l 500 993 l 474 989 l 481 989 l 510 989 l 538 986 l 564 986 l 592 986 l 621 981 l 646 974 l 671 964 l 694 953 l 715 942 l 736 928 l 757 914 l 775 899 l 789 879 l 800 868 l 815 849 l 825 831 l 832 815 l 840 797 l 849 765 l 849 744 l 847 732 z "},"d":{"ha":982,"x_min":58,"x_max":844,"o":"m 651 815 l 626 833 l 603 853 l 578 865 l 549 876 l 521 885 l 488 894 l 457 903 l 424 907 l 396 907 l 368 907 l 343 904 l 324 904 l 304 899 l 286 896 l 268 890 l 264 901 l 263 889 l 261 878 l 282 881 l 303 881 l 325 881 l 356 881 l 382 881 l 413 878 l 453 874 l 486 868 l 525 861 l 560 850 l 594 839 l 632 826 l 651 815 m 275 117 l 264 132 l 258 124 l 249 110 l 246 106 l 265 113 l 275 117 m 524 914 l 494 926 l 460 933 l 418 938 l 388 938 l 360 938 l 343 932 l 365 935 l 396 935 l 426 935 l 463 931 l 496 922 l 524 914 m 789 621 l 788 625 l 790 597 l 792 561 l 792 519 l 790 479 l 779 433 l 761 390 l 736 347 l 714 310 l 685 275 l 656 243 l 653 242 l 653 240 l 617 199 l 581 165 l 542 138 l 504 122 l 539 132 l 578 153 l 614 179 l 651 208 l 686 243 l 713 276 l 738 314 l 760 353 l 769 389 l 785 438 l 793 490 l 793 536 l 793 582 l 789 621 m 276 88 l 267 83 l 301 86 l 346 90 l 388 99 l 439 108 l 472 114 l 450 111 l 403 106 l 367 104 l 332 104 l 321 104 l 293 94 l 276 88 m 251 83 l 244 103 l 236 90 l 229 82 l 233 82 l 251 83 m 519 97 l 497 90 l 444 81 l 393 71 l 349 63 l 304 58 l 269 56 l 233 54 l 208 54 l 203 54 l 203 53 l 182 38 l 178 36 l 183 36 l 214 36 l 247 36 l 282 36 l 311 36 l 343 40 l 376 44 l 417 54 l 451 65 l 493 82 l 519 97 m 793 356 l 794 371 l 794 375 l 785 342 l 763 300 l 735 260 l 706 224 l 671 189 l 631 157 l 611 143 l 617 146 l 654 158 l 696 176 l 721 199 l 742 229 l 760 263 l 775 301 l 786 335 l 793 356 m 765 778 l 764 779 l 739 819 l 706 849 l 665 871 l 624 897 l 586 911 l 621 889 l 657 865 l 693 835 l 724 803 l 753 768 l 771 736 l 783 715 l 771 763 l 765 778 m 69 208 l 78 236 l 92 232 l 106 229 l 124 228 l 140 228 l 163 228 l 176 228 l 192 233 l 197 246 l 222 232 l 211 214 l 182 200 l 163 200 l 140 200 l 124 200 l 103 201 l 86 204 l 69 208 m 58 150 l 67 178 l 83 172 l 96 163 l 118 160 l 139 158 l 154 158 l 169 163 l 182 171 l 192 179 l 204 193 l 224 174 l 211 160 l 199 149 l 181 138 l 157 131 l 139 131 l 115 132 l 85 138 l 72 147 l 58 150 m 325 969 l 317 997 l 350 1007 l 389 1011 l 433 1011 l 482 1008 l 542 997 l 596 975 l 649 943 l 700 908 l 743 869 l 776 824 l 790 790 l 813 744 l 829 693 l 840 643 l 844 597 l 844 550 l 844 496 l 838 436 l 829 379 l 821 351 l 817 310 l 810 263 l 799 219 l 785 186 l 767 147 l 738 110 l 704 74 l 663 47 l 614 31 l 564 15 l 507 -3 l 446 -26 l 392 -46 l 333 -58 l 272 -61 l 213 -61 l 174 -54 l 146 -53 l 125 -46 l 107 -21 l 129 -4 l 142 -24 l 151 -25 l 176 -26 l 215 -33 l 272 -33 l 331 -31 l 383 -18 l 438 -1 l 499 22 l 556 43 l 606 58 l 651 72 l 688 96 l 715 126 l 742 161 l 760 197 l 767 215 l 740 179 l 710 154 l 665 133 l 628 121 l 582 99 l 551 83 l 504 57 l 460 40 l 425 26 l 382 17 l 346 13 l 314 8 l 282 8 l 247 8 l 214 8 l 183 8 l 153 11 l 131 19 l 114 17 l 94 15 l 92 43 l 100 43 l 93 63 l 118 74 l 125 54 l 132 50 l 151 57 l 168 63 l 168 82 l 186 82 l 192 82 l 199 89 l 214 107 l 226 126 l 236 138 l 236 139 l 224 128 l 206 111 l 182 94 l 156 82 l 132 78 l 107 71 l 90 71 l 69 71 l 69 99 l 90 99 l 104 99 l 126 106 l 147 110 l 168 119 l 189 133 l 204 147 l 219 161 l 240 176 l 257 154 l 254 151 l 269 144 l 269 143 l 282 153 l 294 133 l 308 132 l 315 132 l 338 143 l 375 147 l 408 153 l 451 156 l 488 164 l 528 181 l 564 203 l 601 233 l 633 260 l 663 297 l 690 338 l 714 382 l 731 418 l 743 453 l 743 489 l 743 531 l 743 571 l 739 611 l 732 646 l 722 676 l 707 710 l 690 740 l 674 765 l 646 786 l 621 801 l 586 811 l 551 822 l 519 833 l 481 840 l 450 846 l 410 850 l 382 853 l 356 853 l 325 853 l 303 853 l 285 853 l 265 850 l 256 849 l 251 836 l 246 810 l 235 778 l 226 738 l 221 711 l 219 700 l 211 638 l 200 582 l 192 533 l 188 490 l 178 443 l 176 439 l 176 419 l 176 369 l 176 326 l 178 293 l 178 272 l 178 254 l 178 229 l 150 229 l 150 235 l 126 235 l 126 239 l 110 239 l 110 253 l 107 272 l 107 276 l 99 276 l 99 290 l 96 306 l 94 325 l 92 346 l 92 374 l 90 403 l 88 439 l 88 472 l 88 513 l 85 561 l 85 606 l 85 654 l 85 700 l 85 751 l 85 801 l 85 847 l 88 893 l 88 921 l 88 956 l 115 956 l 115 921 l 115 893 l 113 847 l 113 801 l 113 751 l 113 700 l 113 654 l 113 606 l 113 561 l 115 513 l 115 507 l 119 536 l 126 590 l 133 647 l 139 710 l 142 771 l 142 821 l 142 868 l 139 904 l 135 931 l 131 961 l 158 964 l 163 933 l 167 907 l 169 868 l 169 821 l 169 771 l 167 707 l 161 644 l 154 588 l 147 533 l 142 494 l 139 460 l 138 429 l 135 396 l 132 368 l 132 350 l 138 375 l 142 407 l 149 443 l 150 488 l 160 544 l 165 588 l 174 638 l 188 689 l 193 715 l 199 764 l 204 821 l 208 879 l 214 919 l 215 944 l 214 972 l 242 972 l 243 949 l 247 965 l 254 979 l 279 965 l 272 954 l 269 940 l 267 918 l 281 924 l 299 926 l 308 929 l 307 935 l 293 933 l 290 961 l 321 965 l 351 967 l 383 967 l 429 967 l 478 965 l 533 957 l 583 942 l 622 928 l 585 950 l 533 969 l 479 981 l 433 983 l 392 983 l 356 979 l 325 969 z "}}}
